<?xml version="1.0" standalone="no"?>
<!DOCTYPE svg PUBLIC "-//W3C//DTD SVG 1.1//EN" "http://www.w3.org/Graphics/SVG/1.1/DTD/svg11.dtd" >
<svg xmlns="http://www.w3.org/2000/svg">
<metadata>
Created by FontPrep 20130207 at Sun Jan 10 11:49:55 2016
 By Cindy Leschaud
Copyright (c) 2012 TypeSETit, LLC (typesetit@att.net),with Reserved Font Name "Great Vibes"
</metadata>
<defs>
<font id="45206ddb59cbd99a609ac10e32a55908" horiz-adv-x='1024' >
  <font-face 
    font-family="GreatVibes-Regular"
    font-weight="400"
    font-stretch="normal"
    units-per-em="2048"
    panose-1="2 0 5 7 8 0 0 2 0 2"
    ascent="1638"
    descent="-410"
    x-height="705"
    cap-height="1706"
    bbox="-821 -819.766 3334 1743"
    underline-thickness="28"
    underline-position="-160"
    unicode-range="U+0020-FB04"
  />
<missing-glyph horiz-adv-x="2048" 
 />
    <glyph glyph-name=".notdef" horiz-adv-x="2048" 
 />
    <glyph glyph-name=".null" horiz-adv-x="0" 
 />
    <glyph glyph-name="nonmarkingreturn" horiz-adv-x="681" 
 />
    <glyph glyph-name="space" unicode=" " horiz-adv-x="530" 
 />
    <glyph glyph-name="exclam" unicode="!" horiz-adv-x="716" 
d="M315 -29q-35 0 -53 22t-18 38q0 55 32 82q33 27 68 27t53 -22q19 -22 19 -38t-4 -38t-33 -46t-64 -25zM1028 1270l64 -2l10 -4l4 -13q-18 -49 -345 -530t-341 -502l-21 2l2 15l521 991q22 43 106 43z" />
    <glyph glyph-name="quotedbl" unicode="&#x22;" horiz-adv-x="651" 
d="M410 1346q47 0 47 -70t-70 -336h-20l-19 338q-2 28 16 48t46 20zM631 1346q49 0 49 -62t-35 -200t-37 -144h-20l-17 340q-1 30 15 48t45 18z" />
    <glyph glyph-name="numbersign" unicode="#" horiz-adv-x="1527" 
d="M999 854h-284l-174 -289h286zM1473 952l-58 -98h-305l-170 -289h330l-60 -96h-329l-285 -469h-109l281 469h-283l-284 -469h-109l283 469h-324l62 96h319l172 289h-348l59 98h349l282 473h113l-287 -473h287l284 473h111l-285 -473h304z" />
    <glyph glyph-name="dollar" unicode="$" horiz-adv-x="919" 
d="M565 356q0 88 -84 201l-288 -520q141 0 257 91q115 91 115 228zM451 913q0 -43 14 -71t36 -63q22 -34 23 -38l221 398l-28 2q-98 0 -182 -66t-84 -162zM973 1002q0 -60 -32 -100t-76 -40q-43 0 -69 27t-26 65t27 63q46 44 103 14q22 -11 26 -23q-14 98 -129 122
l-240 -434q137 -180 137 -303t-86 -217t-202 -137t-236 -43l-57 -109l-70 -12l72 125q-199 37 -252 109q2 14 37 49h18q84 -88 221 -115l305 557q-123 152 -122 258q0 106 75 182q137 137 369 138l57 106l66 12l-68 -125q78 -12 115 -61q37 -48 37 -108z" />
    <glyph glyph-name="percent" unicode="%" horiz-adv-x="1271" 
d="M756 -16q33 0 78 28q44 28 68 54q24 27 69 84t87 176t42 176q0 90 -76 90q-57 0 -132 -72q-76 -72 -142 -212t-66 -232t72 -92zM313 825q49 0 113 54q-35 53 -31 100q0 88 70 88q27 0 44 -17q17 -18 17 -38t-4 -29q37 51 85 163t48 191q0 78 -53 93q-12 4 -24 4
q-54 0 -130 -73t-142 -213t-67 -231q0 -92 74 -92zM999 657q156 1 156 -155t-127 -340q-154 -221 -309 -221q-150 0 -150 188q0 86 45 184q61 143 173 243t212 101zM555 1499q154 0 154 -147q0 -176 -156 -389q-35 -49 -66 -78q29 -51 86 -51q96 0 273 141q51 41 206 211
t163 176q9 6 29 6t26 -14l-1260 -1526h-76l-2 10q293 307 637 729q102 127 326 402q-199 -170 -326 -170q-72 0 -120 51q-90 -70 -175 -70q-150 0 -149 189q0 88 45 186q61 141 173 243t212 101z" />
    <glyph glyph-name="ampersand" unicode="&#x26;" horiz-adv-x="1241" 
d="M918 752q0 37 -152 36q-31 0 -64 -2q48 -61 132 -61t84 27zM952 750q0 -16 -10 -29q-25 -31 -92 -31q-117 0 -207 90q-229 -35 -348 -243q-76 -135 -76 -265q0 -72 23 -141q68 -197 293 -197q201 0 348 136t147 268q0 63 -54 105q-54 41 -114 49t-103 8q-149 0 -234 -58
t-85 -147q0 -88 138 -160q20 -11 17 -31t-17 -12q-129 70 -183 158q-37 57 -37 96q0 118 134 184q98 49 249 50h363q106 0 262 71q127 58 127 134q0 28 -17 57t6 28q9 0 15 -10q29 -49 29 -93t-27 -81q-51 -78 -174 -125t-254 -47h-10q78 -63 78 -162q0 -137 -160 -282
q-76 -72 -195 -117t-249 -45q-317 0 -449 184q-66 92 -66 178t27 160q72 195 289 301q125 61 280 78q-57 80 -56 201q2 121 106 227q104 107 240 155t254 48t192 -43q76 -43 75 -137q0 -59 -36 -106q-37 -46 -83 -46t-74 28t-28 68t28 68q28 26 58 26t54 -11q23 -11 26 -25
q2 12 2 24q0 45 -38 72q-38 26 -116 26t-182 -42t-196 -122t-134 -170q-42 -92 -40 -143q0 -51 18 -92l137 4q86 0 115 -37q14 -16 14 -32z" />
    <glyph glyph-name="quotesingle" unicode="'" horiz-adv-x="323" 
d="M158 799q0 12 16 18q61 23 106 68q44 45 52 110q-31 -20 -63 -20q-32 1 -50 23t-18 38t4 38t33 46q28 24 66 25q38 0 60 -34t21 -79q0 -90 -62 -150t-143 -87q-6 -2 -14 -2t-8 6z" />
    <glyph glyph-name="parenleft" unicode="(" horiz-adv-x="716" 
d="M1048 1550q14 0 14 -16q-1 -16 -46 -31q-133 -35 -254 -111q-213 -133 -361 -354q-231 -342 -231 -692q0 -264 129 -373q61 -51 147 -51q18 0 48 3t30 -15q2 -33 -106 -33t-212 93q-152 137 -155 448q0 102 33 246q31 114 115 248q189 301 486 489q163 102 331 145
q18 4 32 4z" />
    <glyph glyph-name="parenright" unicode=")" horiz-adv-x="1060" 
d="M29 -96q0 23 49 35q164 43 307 144t238 226q299 397 299 787q0 264 -129 370q-63 53 -150 54q-16 0 -44 -3t-32 15q-2 33 107 33q109 1 212 -93q154 -140 154 -448q0 -102 -32 -246q-41 -156 -168 -334t-334 -334t-430 -214q-47 -10 -47 8z" />
    <glyph glyph-name="asterisk" unicode="*" horiz-adv-x="882" 
d="M33 756q0 41 43 41h297q-57 131 -117 256q-18 39 8 45q6 2 10 2q29 0 52 -45l120 -236l238 240q31 31 41 4q4 -9 4 -27t-31 -51l-174 -188h279q33 0 33 -21q0 -38 -72 -45l-270 -10q57 -117 108 -215q8 -16 -4 -43q-18 -33 -38 -33t-36 27l-102 229l-223 -244
q-14 -14 -40 -7t-35 25t15 48l205 207l-270 -10q-18 0 -30 18q-11 19 -11 33z" />
    <glyph glyph-name="plus" unicode="+" horiz-adv-x="937" 
d="M725 829q23 -1 13 -37t-60 -303q39 -2 131 -2h135q23 0 30 -10t7 -18q0 -27 -43 -27q-96 0 -272 -12q-6 -37 -26 -145t-22 -136q-4 -23 -49 -33q-12 -2 -22 -2q-29 0 -29 25q0 12 72 287q-48 -4 -154 -10t-135 -9q-23 -2 -22 39q6 54 47 60l284 -7q48 200 68 285
q16 55 47 55z" />
    <glyph glyph-name="comma" unicode="," horiz-adv-x="313" 
d="M233 41q-1 -92 -67 -158t-146 -92q-8 -4 -14 -4t-6 10t16 17q61 20 105 66q43 46 51 112q-28 -20 -60 -20t-53 24q-20 26 -15 60t35 59q31 25 69 25t62 -28q23 -28 23 -71z" />
    <glyph glyph-name="hyphen" unicode="-" horiz-adv-x="831" 
d="M301 453q0 43 35 43q133 0 450 -9q35 -2 43 -26q-4 -25 -34 -29q-160 0 -311 -17l-150 -18q-12 0 -23 20q-10 20 -10 36z" />
    <glyph glyph-name="period" unicode="." horiz-adv-x="425" 
d="M281 -29q-35 0 -54 22q-18 22 -18 38q0 55 33 82q34 27 68 27t52 -22t18 -38t-3 -38q-5 -22 -33 -46t-63 -25z" />
    <glyph glyph-name="slash" unicode="/" horiz-adv-x="1122" 
d="M49 -84q-16 0 -16 15t33 43q81 69 435 496q87 105 218 271t224 282q93 117 247 313t240 302q24 33 70 33t46 -29q0 -14 -14 -28q-106 -122 -444 -544t-651 -788q-312 -366 -388 -366z" />
    <glyph glyph-name="zero" unicode="0" horiz-adv-x="1028" 
d="M956 1008q0 140 -110 139q-94 0 -208 -120q-209 -220 -349 -604q-59 -163 -60 -251q0 -154 127 -154t274 195q146 195 236 425t90 370zM1034 958q0 -124 -59 -290q-138 -391 -380 -583q-134 -108 -254 -108t-177 77q-58 76 -58 212t111 357t288 392t339 171
q190 -1 190 -228z" />
    <glyph glyph-name="one" unicode="1" horiz-adv-x="774" 
d="M864 1165q2 0 8 -2v-10l-622 -1143q-11 -6 -107 -14l-18 4l-2 12q102 182 289 516q186 334 264 471q-166 -150 -334 -251h-8l-8 16l4 12q272 207 352 293t115 90l63 6h4z" />
    <glyph glyph-name="two" unicode="2" horiz-adv-x="999" 
d="M571 90q49 0 101 35t86 74q35 39 43 41l14 -13v-8q-201 -244 -323 -244q-43 0 -124 35q-82 35 -136 60t-60 26l-143 -112l-27 16q2 10 96 114t105 107q31 4 45 -2q639 569 639 807q-1 90 -103 90t-195 -99t-138 -218l-9 -8h-24l-4 12q53 149 170 263t260 114
q82 0 134 -45t52 -131t-126 -234t-269 -273q-142 -125 -242 -205q-100 -81 -104 -85q233 -117 282 -117z" />
    <glyph glyph-name="three" unicode="3" horiz-adv-x="937" 
d="M995 1057q0 -223 -454 -387q111 0 193 -44t83 -154q0 -110 -103 -230q-102 -120 -244 -193q-142 -72 -262 -72t-188 50v10l15 12l10 4q66 -31 143 -30q160 1 325 157t165 318q0 59 -41 93t-91 34t-155 -29l-14 6l-2 19l8 10q471 194 471 416q0 72 -80 71
q-121 0 -282 -182h-11l-14 12v10q184 225 373 226q68 0 112 -30t43 -97z" />
    <glyph glyph-name="four" unicode="4" horiz-adv-x="950" 
d="M455 -4q0 25 204 389l-497 -12v16q18 37 153 174q264 264 451 514q41 51 72 64t74 20q43 6 65 10l14 -6l2 -14q0 -39 -272 -295q-74 -70 -157 -144t-145 -131q-61 -55 -117 -105t-62 -56l444 8l133 258q16 37 80 37l37 2l12 -6l2 -12q0 -6 -61 -127t-76 -146h49l12 -8
l-10 -23l-14 -10l-60 -2q-182 -365 -190 -373t-63 -20t-70 -12l-10 2v8z" />
    <glyph glyph-name="five" unicode="5" horiz-adv-x="911" 
d="M650 1153q38 0 80 -6t142 -6t158 43l8 -4q-35 -92 -123 -131t-176 -39l-209 6l-225 -391q137 92 275 92q90 0 147 -45t57 -133q0 -135 -111 -270q-113 -134 -267 -215t-275 -81t-156 25v14l13 15l8 4q49 -18 127 -19q172 0 348 174t176 346q0 64 -35 98t-89 34t-97 -16
t-102 -53q-59 -36 -80 -46l-13 4v12q14 41 161 297t167 273q53 18 91 18z" />
    <glyph glyph-name="six" unicode="6" horiz-adv-x="862" 
d="M197 152q0 -55 29 -92q30 -36 83 -35q90 0 184 94q93 94 147 216t54 207t-69 85q-63 0 -129 -62q-100 -94 -168 -264l-9 -10l-20 -2l-4 12q33 137 142 263q110 126 237 126q70 0 108 -45t37 -117q0 -112 -80 -242q-79 -130 -203 -219t-233 -89t-168 58t-59 175t80 269
t209 290q238 252 495 432l12 2l15 -22q-2 -2 -5 -8q-9 -18 -145 -127q-288 -268 -455 -600q-85 -166 -85 -295z" />
    <glyph glyph-name="seven" unicode="7" horiz-adv-x="999" 
d="M845 1157q177 0 290 -14q27 20 41 20l8 -12l-4 -14q-63 -72 -344 -366t-553 -642q-93 -117 -105 -122t-143 -17l-12 6l-3 8q14 61 799 817q133 127 203 193l-326 8q-61 0 -105 -23t-63 -49q-47 -72 -75 -76l-7 5v12q86 170 154 218t245 48z" />
    <glyph glyph-name="eight" unicode="8" horiz-adv-x="860" 
d="M543 322q0 115 -86 323q-334 -248 -334 -475q0 -70 37 -110t106 -40q113 0 195 94t82 208zM870 1026q0 53 -29 84q-30 31 -83 31q-86 0 -150 -70t-63 -157q0 -87 76 -289q97 83 173 191t76 210zM944 1033q0 -128 -113 -259q-88 -98 -196 -192q39 -86 39 -232t-130 -260
q-130 -113 -282 -113q-96 1 -165 53t-68 133q0 151 146 290t271 231q-35 80 -34 164q0 133 105 233t239 101q82 0 135 -40t53 -109z" />
    <glyph glyph-name="nine" unicode="9" horiz-adv-x="890" 
d="M897 918q0 -118 -75 -268q-75 -148 -195 -277q-238 -256 -486 -418h-12l-10 18l8 13q496 348 627 864q20 78 20 147q0 141 -112 142q-92 0 -186 -82t-151 -195q-56 -113 -57 -203q0 -115 103 -114q162 0 280 284l8 7l23 -2l2 -11q-54 -143 -160 -270t-227 -127
q-68 0 -107 45t-38 115q0 178 186 387t358 209q99 0 150 -73t51 -191z" />
    <glyph glyph-name="colon" unicode=":" horiz-adv-x="524" 
d="M197 -29q-35 0 -54 22q-18 22 -18 38t4 38q4 23 33 47q30 24 64 24t53 -22q18 -22 18 -38q-1 -55 -33 -82t-67 -27zM422 430q-35 0 -55 25q-19 25 -15 59t34 60q30 24 65 24t53 -22t18 -37q0 -16 -4 -38q-4 -23 -32 -47t-64 -24z" />
    <glyph glyph-name="semicolon" unicode=";" horiz-adv-x="522" 
d="M309 29q0 -91 -62 -151t-143 -87q-8 -4 -15 -4t-7 10t16 17q61 20 106 66q44 46 52 112q-72 -47 -115 4q-20 26 -14 60t35 59q28 25 66 25t60 -34q22 -32 21 -77zM422 430q-35 0 -55 25q-19 25 -15 59t34 60q30 24 65 24t53 -22t18 -37q0 -16 -4 -38q-4 -23 -32 -47
t-64 -24z" />
    <glyph glyph-name="less" unicode="&#x3c;" horiz-adv-x="673" 
d="M682 608q-32 -55 -180 -155t-152 -105l-2 -278l-10 -21l-14 -6q-10 0 -17 6q-29 74 -49 179t-29 139q8 5 211 133t226 129l14 -6z" />
    <glyph glyph-name="equal" unicode="=" horiz-adv-x="937" 
d="M838 455q0 -23 -35 -23q-213 0 -321 -17t-136 -18q-45 0 -45 60q0 39 35 39h301q201 0 201 -41zM838 659q0 -23 -35 -22q-213 0 -321 -17t-136 -18q-45 0 -45 60q0 39 35 38h301q201 0 201 -41z" />
    <glyph glyph-name="greater" unicode="&#x3e;" horiz-adv-x="673" 
d="M508 307l-420 -262l-14 -2q-8 0 -17 4l-2 8q0 19 47 57q139 111 192 147q52 35 73 50l20 15l2 278q2 2 5 9t5 10l17 8l18 -8q32 -83 50 -183t24 -131z" />
    <glyph glyph-name="question" unicode="?" horiz-adv-x="782" 
d="M315 -29q-35 0 -53 22t-18 38q0 55 32 82q33 27 68 27t53 -22q19 -22 19 -38t-4 -38t-33 -46t-64 -25zM590 1151q72 0 72 -78q0 -51 -46 -86t-90 -35q-70 0 -92 58q-10 20 -10 49t14 69q28 63 146 132t235 69t170 -92q14 -27 15 -59q0 -115 -136 -269q-48 -53 -162 -165
t-182 -202t-114 -214q-8 -18 -26 -13q-17 6 -13 27q16 72 69 164t90 142q38 50 138 172t114 141q74 94 74 162t-70 102q-32 12 -58 12t-60 -3t-88 -30q-53 -26 -86 -64t-33 -69v-10q10 39 71 74q35 16 58 16z" />
    <glyph glyph-name="at" unicode="@" horiz-adv-x="1957" 
d="M690 238q0 -86 68 -86q76 0 174 112q104 125 191 291t120 202t84 36q16 -1 56 -9t63 -4q-46 -44 -146 -234t-100 -300t105 -111q129 0 263 109q134 110 208 278t74 344t-97 286q-96 112 -219 154t-274 42q-272 0 -514 -152t-368 -385t-126 -465t113 -364t258 -186
t315 -54q332 0 633 203q19 18 33 -2t-11 -31q-324 -215 -669 -215q-426 0 -637 254q-133 162 -133 409q0 180 82 368t238 337q157 147 364 237t436 89q229 0 422 -113q98 -55 159 -152q76 -116 76 -280t-95 -338t-261 -307q-55 -43 -155 -76t-177 -33h-14q-80 0 -137 68
q-33 40 -33 104t22 146q-90 -148 -185 -240t-171 -92q-37 0 -68 20q-82 51 -82 195q0 248 218 508q121 145 301 188q49 12 94 12q119 0 203 -81q25 -29 15 -55t-42 -19q-27 92 -132 92t-266 -175q-92 -101 -184 -251t-92 -274z" />
    <glyph glyph-name="A" unicode="A" horiz-adv-x="1458" 
d="M1677 1348q0 88 -72 135q-73 47 -200 47q-357 0 -683 -326q-85 -84 -183 -200q154 -49 376 -50q420 0 613 136q149 104 149 258zM1360 911q47 0 47 -61t-51 -117q-90 -100 -166 -252q-115 -229 -115 -413q0 -72 26 -105t58 -33q98 0 230 160q117 150 178 291q16 33 32 29
t3 -37q-84 -186 -191 -328q-55 -76 -137 -126t-163 -50q-81 1 -122 65t-41 152t22 174t56 133q-207 -248 -440 -397q-149 -92 -321 -92q-34 0 -81 24q-147 61 -147 300t156 517q82 147 180 261q-137 66 -195 131t-59 143q0 78 31 98q20 27 36 11q12 -17 1 -45t-11 -52
q0 -55 60 -123t174 -120q481 535 999 534q162 0 257 -73q95 -72 95 -192t-139 -237q-70 -61 -199 -106q-197 -70 -468 -70t-449 58q-207 -293 -285 -487t-78 -300q0 -23 2 -41q25 -170 172 -170q166 0 385 180q156 131 306 311t222 318q73 137 130 137z" />
    <glyph glyph-name="B" unicode="B" horiz-adv-x="2131" 
d="M141 144q0 -36 17 -68q45 -92 188 -92q195 0 361 125q-239 115 -303 137q-158 56 -226 -22q-37 -44 -37 -80zM1409 -20q229 0 389 131q174 139 174 304t-178 251q-66 30 -161 60t-153 50t-67 39q-1 39 49 40t130 -5t136 -5q58 1 139 41t138 103q92 102 92 193
q0 193 -360 276q-109 -150 -389 -632t-433 -646l-77 -74q231 -96 497 -122q39 -4 74 -4zM2126 393q0 -117 -84 -217q-119 -143 -318 -207q-147 -47 -286 -47q-51 0 -101 6q-322 41 -544 142q-203 -150 -428 -150q-266 0 -330 148q-14 35 -15 82q0 47 48 100q74 82 204 82
q86 0 156 -25t172 -80t152 -80q90 88 186 245q96 158 169 308t185 334q113 184 230 314l116 133q-373 67 -784 -23q-319 -68 -492 -274q-104 -125 -104 -238q0 -150 145 -194q169 -46 280 60q48 46 70 89t21 65q0 22 21 21q20 -2 22 -29v-2q-23 -150 -160 -227
q-84 -45 -168 -45l-106 18q-217 76 -217 283q0 141 125 279q201 225 590 280q188 27 392 27t415 -45q57 49 105 67t54 13q12 0 5 -14t-45 -38q-38 -25 -46 -45q279 -72 402 -204q119 -134 20 -306q-59 -102 -192 -154t-269 -59q131 -41 244 -114q160 -105 160 -279z" />
    <glyph glyph-name="C" unicode="C" horiz-adv-x="1454" 
d="M1075 680q260 0 417 145t157 329t-160 288q-119 76 -293 76t-350 -101q-221 -128 -377 -366q145 -371 606 -371zM776 -207q-160 1 -306 63t-233 183t-106 264q-8 61 -8 135q0 235 99 457q62 141 149 250q-35 137 -35 253t26 216q6 26 27 31q20 -1 12 -51t-8 -143t27 -237
q164 211 385 308q170 74 356 73q53 0 111 -6q315 -35 426 -241q45 -86 45 -178t-43 -191q-90 -197 -309 -291q-141 -61 -310 -61q-72 0 -145 10q-367 53 -508 348q-49 -69 -101 -233q-53 -164 -61 -252t-8 -148t8 -123q14 -113 86 -203t192 -127q120 -36 208 -36
q285 0 485 119q121 72 189 162t147 251q12 27 25 19t-1 -39q-79 -158 -145 -250t-180 -172q-230 -160 -496 -160z" />
    <glyph glyph-name="D" unicode="D" horiz-adv-x="2076" 
d="M139 140q0 -36 17 -68q43 -88 176 -88q196 -1 366 122q-240 115 -303 138q-63 22 -123 22t-97 -45q-36 -45 -36 -81zM1303 -12q324 0 516 184q154 150 153 414q0 188 -74 354q-92 211 -272 352q-59 -92 -228 -372q-334 -552 -470 -700q-68 -72 -111 -109
q207 -123 486 -123zM330 -80q-248 0 -310 148q-14 34 -14 80t47 100q74 84 205 84q88 0 177 -32t317 -153q178 171 382 583t396 628q-229 137 -488 137q-106 0 -217 -22q-317 -68 -483 -277q-102 -127 -102 -242q0 -156 149 -202q169 -45 275 55q90 90 96 168q2 18 24 13
t17 -32q-20 -150 -158 -227q-84 -45 -168 -45l-106 18q-156 53 -205 199q-20 55 -21 111q0 113 84 223q180 242 639 309q90 12 178 12q285 0 543 -135q80 93 148 141q67 48 99 48t36 -9t-1 -15t-14 -5q-35 0 -90 -74t-90 -137q219 -145 334 -373q92 -182 92 -397
q0 -266 -127 -424q-104 -129 -268 -187t-338 -59q-352 1 -600 144q-190 -154 -438 -154z" />
    <glyph glyph-name="E" unicode="E" horiz-adv-x="1669" 
d="M1636 440q0 46 -49 58t-51 26q-4 18 31 16t57 -14q92 -49 92 -127q0 -115 -158 -239t-401 -199q-243 -74 -453 -74t-342 41q-231 72 -301 265q-18 49 -18 94q0 131 90 264q57 86 166 160q109 73 233 109t222 40q-102 37 -174 103t-72 141v12q14 166 186 298t360 182
t326 51q43 0 84 -5q170 -20 244 -84t74 -131q0 -92 -106 -177t-255 -117q-85 -18 -82 4q7 25 69 31t120 49q115 84 131 217v12q0 51 -49 94q-60 57 -206 57t-302 -46q-156 -47 -300 -163t-143 -266q0 -59 36 -108t105 -73t138 -40q158 -33 158 -86q0 -47 -88 -47l-220 2
q-270 0 -421 -131q-178 -152 -179 -352q0 -94 44 -173t158 -130q114 -52 308 -52t408 82t372 205t158 221z" />
    <glyph glyph-name="F" unicode="F" horiz-adv-x="2146" 
d="M1388 1454q-252 0 -417 -140q-166 -140 -166 -298q0 -82 59 -119q80 -45 152 -45q27 0 53 6q94 23 160 76t65 86q0 33 20 45t19 -8q0 -12 -6 -29q-43 -145 -202 -199t-279 21q-131 74 -131 225q0 182 168 332t409 149q119 0 240 -34q303 -82 549 -238q63 70 135 70
t74 -51q2 -23 -15 -21q-10 2 -22 16q-16 6 -31 7q-45 0 -92 -45q152 -76 356 -130q80 -18 127 -18t72 2q90 10 117 68q14 31 25 38q11 6 13 -4t1 -20q0 -84 -86 -127q-53 -27 -126 -27t-207 43q-133 43 -265 109l-58 29q-106 -121 -227 -416q-39 -98 -45 -113
q119 -16 219 -16t158 3t61 -13q2 -45 -305 -45q-98 0 -158 8q-127 -348 -254 -516q-53 -70 -133 -147t-170 -124q-203 -110 -453 -110t-423 110q-264 164 -265 473q0 104 35 224q25 78 91 137q67 58 112 72t42 6t-71 -56q-133 -96 -159 -238t22 -265q84 -217 348 -320
q124 -47 268 -47q306 0 545 226q238 226 392 581l-132 2q-240 0 -315 -111q-18 -24 -30 -12t-3 31q45 98 127 141t163 43t218 -18q63 155 161 323t136 213q-414 205 -666 205z" />
    <glyph glyph-name="G" unicode="G" horiz-adv-x="1431" 
d="M6 -616q0 -57 98 -78q33 -8 72 -8q145 0 369 104q283 129 448 367q-215 -6 -377 -33q-233 -35 -444 -170q-166 -106 -166 -182zM1171 1612q-176 0 -372 -119q-289 -172 -449 -494q96 -75 222 -105t202 -30q432 0 653 232q111 119 111 237q0 188 -211 254q-78 25 -156 25z
M606 123q72 1 182 29t228 106q117 78 147 150q82 190 176 190q47 0 64 -53q8 -20 4 -45q-20 -160 -88 -317t-191 -359q246 -2 449 -53q43 -10 43 -31t-59 -6q-141 37 -408 37h-53q-125 -181 -333 -319t-405 -189q-108 -29 -184 -29t-127 18q-150 55 -149 146q0 27 14 57
q55 123 291 228q178 81 376 109t443 32q152 256 207 504l8 34q-98 -94 -222 -166q-254 -148 -459 -149q-254 0 -380 207q-88 143 -88 342t105 426q-135 139 -136 296q0 157 127 298q25 28 36 20t-9 -37q-92 -123 -92 -257t106 -259q12 27 45 80q160 262 435 402
q215 111 415 110q55 0 111 -8q264 -41 356 -217q37 -70 37 -151t-51 -173q-115 -199 -401 -278q-152 -43 -310 -43q-331 0 -542 141q-98 -213 -99 -381q0 -346 238 -424q71 -18 143 -18z" />
    <glyph glyph-name="H" unicode="H" horiz-adv-x="2828" 
d="M2286 1581q-25 0 -103 -100q133 20 131 71q-2 23 -22 27q-2 2 -6 2zM3124 1563q24 -1 24 -7t-27 -19t-91 -107t-163 -289q-98 -195 -172 -412q125 0 159 12t41 4t-20 -26q-68 -47 -198 -55q-2 -4 -33 -99q-102 -317 -102 -444q0 -72 26 -101q46 -53 117 -4
q117 86 256 371q15 35 31 29t0 -43q-76 -162 -126 -238q-50 -75 -124 -147t-163 -72t-126 78q-18 38 -18 68t2 101t31 169q28 98 41 140t40 114t29 78q-88 0 -694 26q-125 -373 -394 -667q-131 -145 -305 -244q-233 -129 -491 -129q-109 0 -242 32t-252 120t-169 241
q-50 152 -3 336q25 94 110 176t140 84q20 0 24 -5q9 -10 -20 -24q-61 -27 -137 -131t-76 -262q0 -246 238 -367q143 -72 336 -71q84 0 157 16q694 156 977 899q-53 0 -103 -24t-66 -23q-16 0 -17 12q0 35 49 67t86 36h80q131 328 299 663q-53 -6 -151 -14q-338 -27 -484 -75
t-231 -128q-117 -111 -166 -270q-21 -66 -21 -140t53 -143q53 -70 142 -69q174 0 248 200q53 143 21 190q-13 19 7 23q14 2 25 -16q56 -119 -17 -248q-105 -190 -303 -190q-57 0 -114 24q-109 47 -160 160q-33 68 -33 129q0 163 96 301q57 82 143 132t186 88q99 38 291 58
q191 19 314 25t183 13q23 39 68 95q46 56 79 65t51 10q76 0 76 -65q0 -66 -84 -108t-158 -42q-55 -106 -156 -380t-108 -288q154 0 396 -18t298 -17q41 119 141 340q99 221 175 335t142 138t90 23z" />
    <glyph glyph-name="I" unicode="I" horiz-adv-x="1867" 
d="M2241 1538q139 29 133 78q-4 24 -28 24t-105 -102zM602 -319q-295 0 -469 126q-172 127 -172 361q0 80 42 190t136 194q94 85 150 89q20 0 25 -7t-23 -22q-63 -27 -141 -120q-121 -143 -121 -324q0 -137 88 -236q111 -123 313 -168q90 -20 137 -20t97 1t133 22
q169 43 325 139t267 208t204 246q160 231 242 455q143 379 307 662q-326 -68 -520 -152t-303 -190q-135 -137 -174 -310q-12 -49 -12 -90q0 -86 47 -139t101 -53q55 1 117 25t109 81q66 84 66 199q0 57 -17 72q-4 6 5 18q20 31 38 0q27 -52 27 -112t-39 -132
q-70 -131 -201 -180q-66 -25 -140 -25t-161 68q-86 68 -86 188q0 37 9 80q117 526 1167 705q19 39 67 96q48 56 82 68t56 12q68 0 69 -57q0 -61 -47 -93t-110 -51l-86 -18q-139 -258 -252 -660q-39 -139 -119 -310t-190 -314q-408 -522 -1043 -522z" />
    <glyph glyph-name="J" unicode="J" horiz-adv-x="1978" 
d="M2500 1581q-19 1 -46 -27t-34 -35q-8 -7 -20 -21t-16 -17q141 25 139 75q-4 25 -23 25zM-131 -289q0 104 55 246q39 94 137 176t154 84q25 2 25 -8q-2 -8 -27 -21q-65 -26 -145 -116t-106 -182t-25 -140q0 -150 79 -242q127 -141 335 -182t345 -6q140 30 270 102t230 157
q175 148 357 422t405 798q162 360 328 622q-285 -47 -580 -204q-150 -80 -256 -203q-137 -156 -137 -334q0 -96 46 -150t97 -53q50 0 112 23t111 78q78 90 78 206q0 49 -14 66q-25 16 -4 31q23 12 47 -15q20 -45 20 -105t-45 -138q-76 -129 -209 -177q-60 -20 -134 -20
t-158 68t-84 218q0 148 118 300q90 116 212 192q329 204 814 271q25 41 74 96t82 65t53 11q72 0 72 -62q-2 -55 -45 -85t-121 -54l-88 -16q-158 -272 -303 -734q-56 -174 -156 -400t-223 -419q-166 -258 -441 -425t-503 -197q-296 -40 -515 33q-218 73 -300 241
q-37 78 -37 182z" />
    <glyph glyph-name="K" unicode="K" horiz-adv-x="2342" 
d="M2329 1565q0 23 -19 22q-22 0 -46 -19t-81 -87q59 8 90 24q56 27 56 60zM2392 1564q0 -26 -39 -61q-66 -59 -207 -73q-117 -211 -268 -678q-55 -170 -148 -362q-94 -192 -200 -334q-106 -144 -282 -254q-243 -152 -555 -152q-87 0 -189 22q-375 86 -484 369
q-33 86 -32 171q0 85 23 175q24 90 103 161t130 77q27 4 26 -13q0 -10 -12 -16q-49 -22 -129 -120t-80 -264t103 -269q125 -131 294 -164q117 -23 193 -23t133 17q168 39 314 122t246 176q99 93 191 223q91 130 143 228t185 400t234 503q-31 -3 -237 -21t-357 -61
q-281 -78 -399 -299q-89 -165 -42 -307q46 -141 179 -141q168 0 235 174q33 84 33 139t-4 78t6 23q16 -4 29 -27q18 -43 18 -101t-39 -134q-61 -129 -172 -170q-68 -25 -127 -25q-102 0 -184 74q-111 98 -111 256q0 223 209 374q193 143 557 183q111 12 253 21t182 14
q22 39 68 95t80 65t66 9t48 -26q16 -28 16 -54zM1841 573q61 0 227 84q435 220 821 591q230 222 380 450q27 39 45 39q6 0 13 -6q7 -7 7 -21t-14 -39q-234 -387 -658 -728t-708 -413q-4 -6 -4 -25t4 -65t40 -173q36 -128 83 -236q139 -319 366 -320q131 -1 251 55t173 160
q13 29 31 29t-4 -45q-56 -113 -194 -200t-283 -87t-275 107q-225 184 -303 581q-20 117 -20 186q0 70 16 76h6z" />
    <glyph glyph-name="L" unicode="L" horiz-adv-x="1458" 
d="M31 -59q0 -53 58 -87t141 -34t196 53q170 82 315 289q-211 49 -437 -10q-225 -59 -265 -172q-8 -20 -8 -39zM1876 1554q0 78 -72 78q-104 0 -238 -164t-240 -369q-108 -206 -191 -380q285 63 513 312t228 523zM1962 1556q0 -178 -116 -372t-320 -339q-204 -144 -420 -181
q-125 -252 -180 -353l-43 -69q406 -100 671 -305q135 -104 183 -254t3 -229q-22 -38 -50 -52t-41 -14q-12 0 -13 10q0 10 24 60t23 118q0 182 -135 300q-78 69 -216 129t-239 86t-272 59q-174 -244 -370 -339t-347 -16q-117 57 -116 174q0 117 164 212t460 95q106 0 193 -16
q92 143 215 395h-23q-129 0 -239 43t-176 117q-86 96 -86 217q0 63 31 137q32 74 142 150t277 115q27 6 45 6q19 0 23 -10q9 -20 -72 -31q-80 -10 -156 -60q-131 -84 -182 -258q-12 -41 -12 -79q0 -111 76 -200q47 -56 128 -79t141 -23t112 7l174 438q180 463 430 569
q66 27 128 27q63 0 119 -40t60 -97q2 -25 2 -48z" />
    <glyph glyph-name="M" unicode="M" horiz-adv-x="2721" 
d="M2869 1386q109 0 109 -139q0 -104 -82 -268q-168 -337 -241 -567t-73 -326t19 -160q37 -127 195 -127q8 0 34 1t28 -9q3 -10 -21 -21t-56 -3q-324 33 -323 331q0 168 118 459q49 119 207 465q55 129 56 197q0 68 -58 67q-80 0 -248 -164q-86 -86 -186 -210t-297 -434
t-247 -429t-128 -119q-55 0 -65 39q-6 15 0 25q149 235 278 602q98 289 133 594q4 35 4 87t-27 83q-28 31 -59 31q-100 0 -221 -152q-164 -203 -284 -399t-186 -328t-150 -320t-89 -200t-15 -30t-15 -36q-27 -59 -115 -59q-51 0 -55 33q0 6 2 14q135 209 299 633
q209 537 209 782q0 293 -242 293q-157 0 -393 -150t-391 -382q-61 -92 -92 -179q-53 -158 -54 -249q0 -264 177 -349q61 -31 125 -30q221 0 362 239q72 121 72 211q0 141 -133 141q-18 0 -45 -3t-37 14q-21 30 102 35q119 0 162 -103q18 -43 18 -109t-57 -167
q-100 -182 -315 -273q-151 -65 -305 8q-155 72 -214 240q-23 66 -22 165q0 99 55 251q127 297 428 514t572 217q229 0 307 -184q35 -80 35 -193q0 -191 -111 -483q-14 -39 -14 -52t6 -14q10 -2 35 43q152 276 333 496q59 72 147 119t162 47q72 0 114 -53t42 -142
q0 -207 -161 -690q-33 -96 -41 -123q166 260 416 573q251 312 446 369q35 10 61 10z" />
    <glyph glyph-name="N" unicode="N" horiz-adv-x="2127" 
d="M866 743q0 131 -137 131q-15 0 -35 -2t-25 6t3 15q18 25 122 25t136 -91q14 -35 14 -73q0 -88 -65 -201q-111 -184 -306 -262q-100 -41 -222 -41t-221 83t-130 234q-6 39 -6 84q0 123 65 286q66 163 220 312q291 287 614 355q90 18 158 18t114 -6q127 -18 199 -121
q57 -80 57 -197q-1 -118 -25 -192t-32 -98t-30 -72q-22 -50 -28 -64t-62 -136t-52 -126l63 103q125 193 271 368q270 328 493 431t354 9q60 -45 60 -151t-68 -259q-67 -153 -197 -391t-220 -432t-90 -345q0 -53 14 -97q29 -94 110 -94q46 0 94 23q98 46 97 -4q0 -27 -39 -49
t-63 -21q-328 0 -328 285q0 104 36 210t266 591q230 484 230 593q0 86 -100 86q-68 0 -154 -45q-322 -154 -612 -587q-172 -256 -391 -728q-80 -172 -84 -180q-29 -59 -115 -59q-51 0 -55 33q-2 6 0 14q98 146 275 538q260 577 264 854q0 75 -21 128q-43 109 -145 125
q-31 4 -86 4t-165 -32t-247 -118q-309 -193 -449 -502q-76 -168 -75 -309q0 -72 18 -135q68 -170 238 -178q211 0 368 176q127 141 127 278z" />
    <glyph glyph-name="O" unicode="O" horiz-adv-x="1486" 
d="M662 -76q92 0 178 39q180 82 323 256t217 383q29 83 37 146q-342 -182 -721 -183q-184 0 -323 56q-63 -166 -64 -287q0 -283 170 -367q91 -43 183 -43zM1434 928q0 346 -222 512q-147 111 -344 110q-57 0 -116 -10q-250 -37 -408 -207q-133 -147 -133 -321t88 -250
q80 170 243 352q204 227 430 232q48 0 111 -39q13 -9 15 -17t-8 -12t-30 3t-70 7q-48 0 -138 -49t-182 -154q-182 -207 -267 -393q129 -59 310 -59q372 0 717 186q4 56 4 109zM100 997q0 246 218 417t526 171t509 -171q202 -171 201 -488v-41q205 135 267 258q10 23 26 19
t17 -13q0 -10 -13 -29q-121 -190 -305 -307q-8 -96 -52 -231q-44 -136 -148 -280t-244 -253q-227 -174 -467 -174t-352 182q-80 133 -80 296t59 325q-162 109 -162 319z" />
    <glyph glyph-name="P" unicode="P" horiz-adv-x="1822" 
d="M1163 553q150 0 325 52t310 153q262 199 262 409q0 240 -362 326q-115 -159 -297 -485t-266 -455h28zM2191 1133q0 -143 -159 -308q-92 -96 -218 -166t-249 -100q-213 -51 -385 -51q-37 0 -74 2q-150 -219 -307 -373q-231 -217 -503 -217t-335 146q-14 34 -14 80t47 100
q74 84 207 84q86 0 180 -31q35 -12 25 -27q-8 -8 -54 8t-112 17q-66 0 -116 -50t-50 -108q0 -23 8 -45q33 -111 186 -110q229 0 451 213q158 154 354 553q76 150 189 332t229 315l37 37q43 49 71 77q-636 86 -1117 -171q-114 -60 -191 -152q-102 -117 -103 -244
q0 -78 58 -148t150 -69q93 0 181 72q87 72 123 176q2 14 10 19t13 -1q6 -6 6 -20q-2 -133 -103 -210q-100 -77 -232 -77t-220 82t-88 206t64 219q63 95 151 155t243 122q154 62 368 94q424 64 743 -1q75 57 135 79t65 17q11 0 5 -13t-46 -40t-77 -64q131 -35 237 -98
q217 -129 217 -311z" />
    <glyph glyph-name="Q" unicode="Q" horiz-adv-x="1540" 
d="M227 -186q-43 0 -87 -28t-47 -62t-17 -31q-16 0 -17 40q1 40 53 91t115 51q176 0 383 -166q90 -75 190 -151t246 -148t316 -104q59 -12 108 -13q125 0 170 78q20 35 21 83q0 48 -45 114q-94 139 -291 172q-33 4 -33 23t27 16q240 -39 348 -182q51 -72 51 -126t-24 -98
q-76 -129 -347 -129t-470 113q-158 90 -297 233q-59 59 -113 111q-121 113 -240 113zM1006 1286q-92 0 -226 -91t-252 -263q-119 -172 -180 -387q-37 -125 -37 -217q0 -238 131 -348q82 -68 181 -68q205 0 407 154q131 100 227 225q211 279 211 596q0 217 -112 385
q-141 211 -402 264q-80 18 -158 18t-149 -10q-236 -31 -336 -203q-66 -109 -65 -243q0 -80 22 -170q8 -35 -10 -43t-39 30q-51 102 -51 210t74 218q133 201 397 246q133 20 217 21q260 0 406 -82q231 -129 286 -357q29 -111 29 -235t-42 -259q-89 -283 -278 -489
q-287 -317 -622 -317q-143 0 -244 74q-100 75 -147 193t-47 239t26 225q64 246 203 420q72 90 154 166q152 141 342 155q12 2 22 3q72 0 139 -39q13 -9 15 -17t-8 -12t-30 2t-54 6z" />
    <glyph glyph-name="R" unicode="R" horiz-adv-x="2097" 
d="M2128 1257q0 140 -186 197q-49 14 -201 39q-37 -63 -180 -297t-213 -371q45 7 132 15t126 12q233 29 397 182q125 114 125 223zM1822 -84q-120 0 -231 116t-185 330t-101 386q-66 -131 -103 -200q-36 -69 -108 -175t-150 -193q-242 -260 -532 -260t-359 150
q-16 35 -16 81t47 99q76 84 209 84q90 0 190 -35q27 -11 21 -23t-53 6t-114 19q-67 0 -115 -51t-48 -107q0 -25 10 -53q41 -106 201 -106t289 100q74 56 133 116t146 187t162 259t162 289t128 228q131 223 240 342q-115 10 -230 11q-262 0 -521 -54t-411 -180
q-190 -158 -190 -336q0 -86 61 -152t177 -67q116 0 200 90t88 144q2 27 12 26q16 0 15 -31q-14 -98 -80 -165q-115 -119 -274 -119q-121 0 -210 82t-89 219q-1 203 197 363t519 208q229 33 423 33t358 -23q53 57 73 58q13 0 13 -20t-11 -48q152 -25 203 -39
q307 -90 307 -278q0 -121 -149 -240q-249 -192 -692 -215q66 -362 227 -610q55 -84 101 -122t110 -38q147 0 338 381q16 31 32 31t3 -31q-119 -267 -211 -367t-212 -100z" />
    <glyph glyph-name="S" unicode="S" horiz-adv-x="1845" 
d="M1843 1391q0 72 -65 135q-94 90 -250 90t-332 -64q-92 -33 -160 -90q-104 -90 -104 -180q0 -121 153 -217q57 -35 231 -114t274 -141t146 -144q46 -84 46 -171t-68 -194q-119 -190 -348 -328q-264 -159 -630 -159t-576 182q-164 139 -164 358q0 140 101 308t249 237
q31 12 46 8t-25 -39q-88 -70 -142 -153q-115 -180 -114 -391q0 -139 77 -244q161 -215 599 -215q77 -1 209 27t255 92q264 139 342 360q25 66 25 127q0 139 -125 246q-67 53 -275 142t-280 136q-158 107 -158 243t142 257q203 172 573 172q174 0 284 -52q138 -65 138 -198
q0 -80 -74 -143q-51 -41 -137 -66q-37 -10 -41 9q-4 27 51 32q98 12 121 99q6 23 6 43z" />
    <glyph glyph-name="T" unicode="T" horiz-adv-x="1880" 
d="M2697 1200q127 0 127 62q0 31 22 30q22 0 22 -50t-68 -82q-66 -32 -164 -17q-301 39 -516 131q-145 -229 -260 -610q-43 -137 -122 -297q-79 -159 -170 -263q-261 -297 -761 -297q-258 0 -481 126t-260 386q-4 35 -5 104q0 69 40 195t151 193q45 27 67 27q37 0 33 -35
q-8 -10 -42 -34q-34 -23 -64 -49t-62 -79q-53 -90 -53 -203q0 -258 176 -397q94 -78 211 -119t234 -41h10q424 10 696 307q172 186 471 842q102 225 131 264q-362 115 -651 115t-469 -174q-145 -139 -145 -298t145 -204q51 -14 93 -14q119 0 201 79q50 48 76 95t21 72v4
q17 14 29 9t12 -26q-20 -160 -162 -239q-86 -51 -160 -51t-130 20q-168 59 -213 227q-14 53 -15 105q0 123 76 239q166 257 549 263q169 0 323 -42t290 -86q136 -46 163 -55q100 123 150 125q10 4 27 4q18 0 28 -28t-14 -37q-10 -2 -27 2q-12 8 -50 -26t-57 -56
q192 -61 338 -89t209 -28z" />
    <glyph glyph-name="U" unicode="U" horiz-adv-x="1929" 
d="M983 146q0 193 232 706q105 231 138 358q32 127 31 228q0 150 -79 196q-96 51 -218 52q-217 0 -464 -144q-367 -215 -496 -543q-53 -137 -53 -251t39 -205q86 -209 299 -209q250 0 399 254q82 135 82 239q0 154 -139 154q-33 0 -83 -11t-46 1q6 16 61 41t111 24
q84 0 120 -61q67 -113 -5 -308q-72 -194 -261 -307q-139 -86 -266 -86t-225 76q-168 129 -168 392t201 515q162 203 416 343t472 141q115 0 213 -41q199 -86 199 -330q0 -182 -117 -452q-68 -160 -130 -292t-103 -268t-41 -227q0 -172 115 -172q123 0 288 205l56 76
q82 120 212 378t132 261q61 108 114 108q41 -20 41 -63t-51 -133q-170 -305 -223 -621q-14 -86 -14 -156q0 -141 75 -141h23q37 0 37 -16q0 -25 -45 -31h-25q-69 12 -105 72t-39 121t-3 141t26 207q-279 -461 -538 -461q-86 0 -134 55q-61 73 -61 185z" />
    <glyph glyph-name="V" unicode="V" horiz-adv-x="1996" 
d="M1122 -197q-18 0 -37 4q-98 18 -98 175q0 252 254 858q98 229 145 446q18 84 19 134q0 50 -4 79q-10 90 -68 125q-102 55 -232 55q-129 1 -277 -65q-313 -139 -515 -384q-106 -130 -158 -272t-53 -258q0 -47 8 -90q33 -141 123 -211t213 -69q172 0 323 152t150 321
q0 92 -36 133q-37 41 -76 41t-78 -11t-39 2q0 12 47 34t98 22t95 -31q80 -61 80 -186t-96 -251t-234 -203q-140 -77 -276 -77t-253 100t-155 267q-10 49 -10 105q0 128 63 280t183 282q221 239 554 361q295 111 543 17q199 -86 199 -365q0 -205 -148 -508
q-92 -187 -181 -457t-89 -395q0 -94 63 -94q127 0 445 330q223 231 350 508q82 176 82 299q0 165 -45 191q-16 9 -62 18q-45 9 -50 31t22 26l39 -4q94 -27 167 -137t-3 -334q-94 -250 -291 -493t-389 -372t-312 -129z" />
    <glyph glyph-name="W" unicode="W" horiz-adv-x="2752" 
d="M2478 1208l-128 -16q-24 0 -23 12q-1 18 37 34t63 17h55q117 0 214 -92t126 -270q6 -43 6 -88q0 -152 -71 -344q-100 -254 -345 -432t-450 -179q-276 0 -276 336q0 88 43 230q-111 -184 -287 -400q-96 -114 -200 -192t-177 -78q-145 0 -145 176q0 207 268 844
q168 406 168 608q0 131 -79 181t-187 51q-47 0 -99 -11q-362 -74 -643 -391q-139 -160 -192 -306q-52 -146 -60 -217t-8 -117q0 -124 78 -216q80 -92 223 -92q238 0 377 248q72 127 72 229q0 168 -150 168q-26 0 -62 -6t-34 8q2 15 55 31t107 16q106 0 155 -82
q31 -50 31 -120t-39 -162q-104 -240 -375 -353q-72 -31 -133 -30q-201 0 -319 143q-84 98 -107 254q-4 31 -4 64q0 132 67 284t181 283q208 237 534 366q290 110 531 19q197 -86 197 -330q0 -201 -138 -512q-95 -212 -199 -504t-104 -397q0 -74 51 -74q27 0 64 25
q111 66 242 248t272 424t201 324t105 81q46 0 45 -50t-12 -83q-12 -33 -106 -261t-104 -301t-10 -110q0 -195 157 -194q147 0 375 181t322 403t94 388t-67 250t-183 84z" />
    <glyph glyph-name="X" unicode="X" horiz-adv-x="1652" 
d="M2261 1648q0 -58 -266 -248q-147 -106 -413 -288t-435 -303q-2 -119 -2 -221q0 -354 33 -479q47 -172 157 -172q154 0 320 251q59 90 106 199q15 31 33 28t2 -38q-184 -387 -405 -512q-84 -47 -155 -47t-128 55t-80 162q-12 55 -12 262t4 434q-797 -575 -1116 -1077
q-63 -104 -125 -105q-29 0 -29 23q0 16 14 41l25 41q416 575 1229 1155v225q0 172 -21 314q-25 162 -182 161q-193 0 -414 -172q-113 -86 -147 -161q-6 -6 -23 0q-45 12 -10 65q19 29 119 112t262 172t286 89t177 -103q57 -105 68 -245q12 -153 12 -344v-35q119 83 352 241
t356 248t211 178l22 22t22 21q6 9 18 19t19 16t19 17q27 24 62 24q35 -1 35 -25z" />
    <glyph glyph-name="Y" unicode="Y" horiz-adv-x="1964" 
d="M547 -653q0 -16 8 -33q43 -70 198 -70q299 0 568 202q133 99 219 239q-537 0 -823 -166q-170 -98 -170 -172zM2013 989q37 0 37 -61q0 -62 -40 -236t-139 -471t-204 -483q31 2 110 4q275 7 374 53q100 47 118 148q-4 27 3 29q6 2 16 -16t10 -48t-33 -85q-33 -54 -129 -94
t-500 -44q-98 -147 -248 -260t-319 -177q-168 -64 -284 -63q-116 0 -195 27q-154 51 -154 155q0 135 248 238q317 131 885 131q201 492 280 792q-186 -401 -415 -557q-121 -82 -234 -82q-113 -1 -175 61t-62 169q0 223 303 717q94 154 156 320t61 290q0 125 -81 178t-196 53
q-45 0 -96 -10q-369 -70 -666 -383q-150 -158 -220 -330t-70 -299q0 -53 14 -98q41 -150 162 -205q61 -27 127 -26q227 0 387 254q90 145 90 254q0 141 -127 141q-25 0 -59 -7t-37 7q-2 14 47 26t94 13q106 0 143 -90q16 -39 17 -84q0 -90 -64 -209q-125 -227 -366 -328
q-74 -31 -136 -31q-199 0 -311 144q-98 120 -98 276t76 312q75 156 197 286q226 243 554 371q162 63 297 63t240 -41q109 -49 153 -132t45 -175q0 -231 -169 -514q-328 -560 -328 -790q0 -47 31 -88t103 -41t169 71q117 82 233 269q195 311 293 637q6 33 37 51t45 18z" />
    <glyph glyph-name="Z" unicode="Z" horiz-adv-x="1386" 
d="M115 96q0 -32 42 -72t127 -40q84 0 162 32t123 70q-41 33 -61 47q-146 83 -246 83t-135 -66q-12 -23 -12 -54zM2144 1454q0 16 -13 40t-48 24q-84 -1 -242 -134q195 -57 269 -11q34 22 34 81zM2021 1323q-84 0 -211 31q-100 -92 -314 -376t-268 -344q-54 -62 -98 -106
t-76 -78t-79 -77t-73 -67t-74 -64t-63 -52q-15 -14 -63 -53t-53 -43q561 -244 781 -287q80 -14 164 -14t170 13q87 12 154 64t77 120t33 67q18 -1 18 -31q0 -81 -24 -127q-24 -47 -70 -99q-48 -52 -152 -88t-239 -36t-375 96t-414 195l-174 99q-207 -147 -354 -148
q-29 0 -56 6q-123 29 -155 135q-10 31 -10 60q0 61 50 114t142 54q45 0 100 -15q106 -29 293 -147q532 623 692 817q207 244 437 430q-305 84 -574 84q-143 0 -282 -26q-94 -26 -175 -90t-81 -137t92 -136q47 -33 22 -41t-47 2q-35 8 -76 53q-61 72 -61 162t72 176
q45 55 159 103t258 47q144 0 294 -37t277 -78q128 -41 161 -51q195 154 309 153q33 0 59 -12q60 -25 60 -78t-62 -112q-37 -31 -121 -31z" />
    <glyph glyph-name="bracketleft" unicode="[" horiz-adv-x="1198" 
d="M569 11q1 -46 -245 -46t-246 92q0 236 209 631t407 627q49 57 80 86q76 70 193 69h41q186 0 186 -73q0 -37 -31 -37h-20l-152 8q-78 0 -96 -10q-98 -49 -267 -301q-169 -251 -299 -527t-130 -391q0 -90 137 -90l147 8q86 0 86 -46z" />
    <glyph glyph-name="backslash" unicode="\" horiz-adv-x="1775" 
d="M141 1559q-16 1 -47 -13t-39 -16l-14 14q25 74 147 74q274 0 699 -567q63 -83 200 -273t213 -295q205 -279 441 -522q16 -20 18 -31l-14 -12q-182 55 -623 627q-180 236 -362 467t-349 389q-168 158 -270 158z" />
    <glyph glyph-name="bracketright" unicode="]" horiz-adv-x="1138" 
d="M993 1466q43 0 67 -4t43 -26t19 -64q0 -293 -174 -696t-385 -617q-43 -43 -115 -65t-123 -26q-52 -3 -160 -3t-130 10q16 80 168 80l37 -2q61 0 141 22t133 83q158 176 323 552t164 590q0 31 -6 62q-22 8 -67 8l-228 -8l-6 4q27 100 299 100z" />
    <glyph glyph-name="asciicircum" unicode="^" horiz-adv-x="757" 
d="M825 801q-1 -19 -35 -19t-128 71t-130 118q-244 -174 -278 -180l-12 14q4 27 152 137t184 115l12 -6q84 -117 225 -234z" />
    <glyph glyph-name="underscore" unicode="_" horiz-adv-x="1650" 
d="M51 -51h1516q23 1 39 -17t18 -41l-14 -14q-483 0 -1161 -14l-398 -13q-16 0 -25 20t-10 40q0 39 35 39z" />
    <glyph glyph-name="grave" unicode="`" horiz-adv-x="432" 
d="M395 836q0 -18 -16 -18q-17 0 -145 67q-128 68 -140 73q-76 37 -76 86t39 50q27 0 183 -123t155 -135z" />
    <glyph glyph-name="a" unicode="a" horiz-adv-x="716" 
d="M541 89q0 -40 30 -40q39 0 110 88t153 256q8 18 18 21q16 6 16 -13q0 -10 -6 -24q-188 -381 -317 -381q-59 0 -96 57q-18 31 -19 82q0 51 21 125q-164 -264 -283 -264q-33 0 -59 20q-61 43 -62 148q0 201 174 407q98 115 242 150q39 10 74 10q94 0 159 -65q20 -23 12 -43
t-34 -17q-23 74 -105 74t-211 -139q-74 -82 -146 -204t-71 -202q0 -80 52 -80q123 0 321 377q39 76 66 104t67 27q8 0 42 -6t50 -2q-36 -37 -104 -167t-81 -194t-13 -105z" />
    <glyph glyph-name="b" unicode="b" horiz-adv-x="706" 
d="M684 1266q2 0 36 -6t50 -3q-68 -72 -213 -286q-360 -535 -360 -799q0 -109 69 -123q6 -2 15 -2q63 0 158 114t157 259q35 76 35 137q0 117 -96 117h-17q-37 -4 -43 14t19 24t53 3q106 -16 145 -101q27 -51 27 -100q0 -176 -129 -347t-334 -171q-76 0 -123 43t-47 122
t98 283q-168 -317 -217 -364q-20 -18 -20 12q0 6 4 14q72 94 286 512t300 547q70 100 135 101h12z" />
    <glyph glyph-name="c" unicode="c" horiz-adv-x="532" 
d="M184 191q0 -73 30 -117t92 -45t116 29q107 59 242 331q14 29 24 24t10 -21t-56 -119t-105 -167q-92 -115 -252 -114q-115 0 -165 56t-50 138t44 188t101 185q119 162 274 162q76 0 110 -36q34 -37 34 -95t-58 -107q-48 -45 -81 -12q72 86 71 145q0 59 -49 60
q-96 0 -219 -176q-39 -56 -76 -146t-37 -163z" />
    <glyph glyph-name="d" unicode="d" horiz-adv-x="751" 
d="M574 684q-48 0 -134 -72q-138 -115 -212 -254t-74 -211q0 -33 13 -59t42 -27q70 -1 172 143t268 453q-27 27 -75 27zM549 119q0 -66 53 -66q96 0 256 322q6 12 11 24q5 13 17 17t15 -5q4 -9 -4 -30q-164 -381 -332 -381q-55 0 -88 49t-33 97t11 90q-119 -197 -205 -224
q-24 -10 -48 -10t-46 6q-100 27 -101 160q0 90 46 200t130 210q125 149 305 149q58 0 130 -37q139 262 237 486q29 68 56 87q28 19 52 19h28q5 0 39 -5t52 -3q-47 -43 -277 -470t-284 -587q-20 -59 -20 -98z" />
    <glyph glyph-name="e" unicode="e" horiz-adv-x="503" 
d="M551 643q0 41 -33 41q-57 0 -174 -141q-70 -86 -123 -193q35 0 102 25t115 65q113 97 113 203zM178 174q0 -139 98 -139q186 0 338 350q14 33 35 29q8 -2 8 -10t-46 -108q-46 -99 -93 -161q-104 -143 -258 -143q-82 0 -139 53t-58 145q1 92 45 196t119 193q76 89 174 130
q47 20 91 20t79 -24q35 -29 35 -64q0 -123 -147 -235q-45 -35 -127 -63t-125 -28q-29 -70 -29 -141z" />
    <glyph glyph-name="f" unicode="f" horiz-adv-x="405" 
d="M160 29h12q-6 88 -49 141l-45 -102q21 -39 82 -39zM-129 -600q0 -59 33 -59q40 0 108 91t116 250t48 287v21h-18q-59 0 -101 33q-186 -471 -186 -623zM-127 -713q-113 0 -113 113q0 162 211 659q-25 41 -24 68q0 86 39 115q39 33 73 22q233 526 420 875q37 75 76 109
t98 34q8 0 41 -6t49 -4q-96 -90 -270 -398t-330 -657q47 -57 66 -154l6 -26h6q55 0 117 64q86 92 164 254q25 52 33 58t15 0q7 -5 7 -13t-4 -15q-170 -387 -334 -387q2 -33 2 -108t-37 -222t-124 -264t-187 -117z" />
    <glyph glyph-name="g" unicode="g" horiz-adv-x="802" 
d="M-174 -528q0 -78 100 -78q59 0 134 35t124 71q84 68 185 201q76 106 116 207l-71 -25q-319 -111 -451 -196q-96 -63 -127 -162q-10 -30 -10 -53zM698 325q0 -124 -43 -282q160 116 228 275q31 69 37 81q6 11 20 15t14 -13q0 -10 -6 -24q-90 -186 -150 -269t-165 -133
q-49 -139 -143 -276t-234 -242q-142 -104 -281 -104q-193 0 -192 158q0 131 178 235q152 88 324 144t221 77q53 156 53 340q0 37 -4 55q-57 -117 -158 -239q-119 -147 -235 -115q-106 45 -107 176q0 176 176 387q96 115 226 146q35 10 69 10q92 0 181 -61q33 -27 33 -45
q0 -17 -13 -35q-12 -18 -26 -5q-13 13 -17 25q-27 76 -86 76q-109 0 -244 -152q-76 -86 -138 -196t-60 -177q0 -91 69 -96q47 0 118 65t131 164t77 154q16 56 40 70q25 14 53 16t38 11q16 -92 16 -216z" />
    <glyph glyph-name="h" unicode="h" horiz-adv-x="679" 
d="M481 92q0 -57 41 -57q96 0 273 360q14 29 25 23t11 -20t-47 -102q-47 -89 -92 -161q-94 -143 -200 -143q-70 0 -111 57q-18 27 -19 73q0 46 20 112t114 212q23 37 22 59q0 21 -35 21t-133 -92q-147 -135 -287 -405q-14 -31 -75 -31q-55 -4 -70 -12q389 809 563 1128
q71 129 125 129q26 0 58 -5q33 -5 49 -3q-61 -63 -220 -351t-305 -585q96 121 173 189t188 127q111 60 162 61q12 0 22 -4q-252 -443 -252 -580z" />
    <glyph glyph-name="i" unicode="i" horiz-adv-x="356" 
d="M197 45q39 0 82 39q76 76 192 309q14 31 29 19q4 -4 4 -14t-30 -74q-149 -324 -295 -324q-75 0 -107 45t-33 100q0 55 27 121l131 334q4 12 4 32t-25 54l113 2q47 0 55 -17t-12 -55l-164 -383q-34 -76 -34 -132t63 -56zM334 772q-35 0 -55 25q-19 25 -15 59t33 60
q29 24 63 24t57 -25q21 -25 15 -59t-34 -60q-28 -24 -64 -24z" />
    <glyph glyph-name="j" unicode="j" horiz-adv-x="362" 
d="M334 772q-35 0 -53 23t-19 39q0 16 3 36t32 45t63 25t55 -21q19 -22 19 -38t-4 -38q-4 -23 -32 -47t-64 -24zM-762 -526q0 -37 29 -59t69 -21q119 0 256 123q193 172 281 336q-340 -90 -424 -127q-133 -57 -188 -170q-23 -45 -23 -82zM217 632q0 20 -27 54l113 2
q47 0 55 -17t-12 -55l-164 -383q-51 -121 -127 -270q80 31 117 47t89 60t90 99q38 56 128 226q13 29 25 23t12 -16t-57 -125q-57 -114 -123 -189q-67 -74 -135 -112t-181 -78q-158 -287 -319 -422q-61 -51 -145 -87t-176 -36t-140 38q-49 38 -49 91t31 121q53 104 192 168
q104 49 276 91t222 56q51 88 60 108t149 306q-33 0 -19 33l109 235q6 12 6 32z" />
    <glyph glyph-name="k" unicode="k" horiz-adv-x="743" 
d="M690 709q90 0 90 -76q0 -105 -128 -196q-89 -62 -195 -72q-25 -57 -25 -105t10 -88q25 -98 93 -121q14 -4 28 -4q57 0 135 72q63 70 166 280q14 27 22 18t9 -17q0 -8 -31 -81q-31 -72 -86 -157q-117 -176 -258 -176q-86 0 -133 49q-68 70 -68 182q0 57 31 117t72 63h12
q72 -1 140 55t69 101q0 55 -55 55q-82 0 -190 -93t-179 -196q-31 -59 -50 -149t-19 -125t12 -45h-129q-31 0 -16 54t42 118t67 146q40 83 58 126q-168 -317 -217 -364q-20 -18 -20 12q0 6 4 14q72 94 286 512t300 547q70 100 135 101h12q2 0 36 -6t50 -3q-76 -57 -209 -263
t-211 -360t-104 -235q250 310 444 310z" />
    <glyph glyph-name="l" unicode="l" horiz-adv-x="434" 
d="M651 1160q0 40 -14 40q-19 0 -77 -81t-156 -291t-158 -367q105 106 207 268t150 276q48 115 48 155zM172 159q0 -44 20 -82t66 -38q74 0 144 99t147 253q16 29 31 23q10 -8 4 -22t-26 -57t-28 -61q-10 -18 -38 -70t-70 -99q-98 -109 -205 -109q-63 0 -105 34t-42 109
q0 129 49 260q47 170 134 371q148 343 243 440q70 74 137 74q47 0 63 -67q2 -12 2 -31q0 -70 -49 -176q-176 -391 -420 -615q-2 -8 -18 -56q-15 -48 -27 -92t-12 -88z" />
    <glyph glyph-name="m" unicode="m" horiz-adv-x="1038" 
d="M874 41q49 0 113 74q96 117 168 280q13 29 25 23t12 -16t-20 -52l-33 -65q-13 -25 -55 -95t-72 -102t-75 -64q-46 -32 -104 -32t-100 57q-18 27 -18 73t20 112t113 212q23 37 22 59q0 21 -34 21t-121 -82t-185 -221t-116 -223q-35 0 -52 29q-16 29 -16 49q0 84 113 319
q37 78 39 106q2 29 -8 29q-34 2 -138 -98q-143 -131 -282 -399q-10 -23 -26 -28t-60 -7q-45 -2 -60 -10q37 72 166 346t184 328q25 25 68 24q8 0 42 -6t50 -2q-76 -41 -248 -385q96 119 146 162t74 66q24 22 46 41t47 41t42 31t37 21q20 13 29 13t25 5t23 -3q41 -16 41 -49
t-70 -160t-89 -168q90 113 172 185q81 72 193 134q112 61 163 62q12 0 20 -4q-250 -444 -249 -574q0 -57 38 -57z" />
    <glyph glyph-name="n" unicode="n" 
d="M483 94q0 -53 39 -53q104 0 281 354q12 29 24 23q23 -11 4 -41q-109 -219 -183 -302t-150 -83q-74 0 -113 57q-20 27 -20 73t20 112t113 212q23 37 22 59q0 21 -35 21t-133 -92q-147 -135 -284 -405q-12 -19 -28 -25t-60 -8q-45 -2 -60 -10q33 66 167 346t187 332
q25 25 68 24q8 0 42 -6t50 -2q-76 -41 -248 -385q96 119 175 189t190 131q111 60 162 61q12 0 22 -4q-252 -442 -252 -578z" />
    <glyph glyph-name="o" unicode="o" 
d="M512 653q-55 1 -131 -73q-75 -74 -141 -211t-66 -231t72 -95q51 0 114 55q-33 47 -32 101q4 88 71 88q27 0 47 -22t11 -62q35 51 83 150t48 199t-76 101zM489 717q150 0 150 -189q0 -86 -45 -184q-57 -133 -172 -242q27 -51 89 -51q61 0 117 59t91 122t58 113t27 59
q4 8 20 10q15 2 16 -15q0 -6 -4 -14l-13 -29q-12 -29 -18 -41l-22 -44q-52 -111 -124 -183q-73 -72 -151 -72t-125 54q-94 -70 -174 -70q-150 0 -150 188q0 86 45 185q61 143 173 243t212 101z" />
    <glyph glyph-name="p" unicode="p" horiz-adv-x="688" 
d="M633 578q0 32 -13 60t-42 28q-72 0 -167 -134t-274 -464q27 -27 74 -27t133 72q137 115 229 284q60 111 60 181zM319 651q0 -125 -57 -278l41 65q74 119 108 154q35 35 83 82t104 47q16 0 31 -4q102 -27 102 -160q0 -90 -47 -199q-47 -108 -130 -208q-125 -149 -305 -150
q-58 0 -128 37l-195 -486q-50 -106 -108 -106h-30q-5 0 -37 6t-48 4q45 43 228 409t208 492q-23 -33 -43 -34q-12 0 0 24t45 100q33 78 33 153t-29 87q123 20 149 19q26 0 25 -54z" />
    <glyph glyph-name="q" unicode="q" horiz-adv-x="700" 
d="M156 146q0 -77 63 -83q100 0 303 336q57 91 79 109t40 18h25q6 0 36 -5t48 -3q-111 -170 -289 -586t-193 -520q-8 14 -31 36q-24 22 -28 26q-27 40 -27 74t68 188t161 341t119 247q-31 -55 -143 -209q-96 -113 -186 -113q-20 0 -41 6q-104 45 -105 176q0 176 176 387
q96 115 226 146q35 10 69 10q92 0 179 -61q51 -39 26 -74q-16 -25 -37 -4q-6 6 -10 18q-29 78 -84 78t-125 -49q-135 -94 -227 -253t-92 -236z" />
    <glyph glyph-name="r" unicode="r" horiz-adv-x="532" 
d="M391 821q0 -92 -117 -174q41 -2 110 -2t173 10q4 -7 4 -33q0 -40 -76 -186q-76 -147 -104 -227q-51 -156 16 -156q86 0 254 342q13 27 23 21t10 -17t-84 -174q-30 -57 -102 -142t-148 -85t-106 96q-6 18 -6 56q0 78 98 247q51 87 57 103t6 30q0 63 -163 68l-25 -66
q-129 -338 -248 -452q-20 -18 -20 12q0 6 4 14q115 152 198 359q84 207 117 393q12 63 57 64q45 0 66 -58q6 -18 6 -43z" />
    <glyph glyph-name="s" unicode="s" horiz-adv-x="524" 
d="M68 109q0 -82 77 -82q25 0 41 8q-76 47 -82 153q-36 -36 -36 -79zM311 279q0 63 -14 174t-14 149t2 53q-156 -311 -193 -379q43 0 43 -61q0 -121 86 -162q90 70 90 226zM328 35q82 0 161 96q43 53 154 268q4 10 14 11q18 2 19 -15q0 -4 -9 -23t-30 -68t-59 -111t-62 -82
l-43 -45q-35 -35 -97 -55t-132 1q-47 -20 -84 -20q-145 0 -176 114q-6 27 -7 65q0 38 26 73t54 37q105 199 183 365t186 167q28 0 56 -13q28 -14 21 -30t-30 -6t-39 10t-28 -6q-70 -33 -70 -141q0 -57 16 -95t50 -111q34 -74 34 -142q0 -67 -43 -133t-102 -107q27 -4 37 -4z
" />
    <glyph glyph-name="t" unicode="t" horiz-adv-x="409" 
d="M451 733h-97q-25 -57 -110 -272q111 114 207 272zM612 1114q0 41 -14 41q-23 1 -69 -65t-154 -312h102q135 242 135 336zM66 164q0 170 163 569h-106q-10 0 -13 11q-3 10 2 22t15 12h123q162 354 254 417q53 38 77 38t33 -4q48 -23 48 -93t-48 -171q-48 -100 -92 -187h99
q10 0 13 -11t-2 -23t-16 -11h-118q-113 -190 -273 -338l-47 -209q-6 -26 -6 -52t14 -52t47 -27q33 0 76 25q98 74 217 309q8 19 20 23q24 9 7 -35q-68 -141 -107 -201q-111 -178 -235 -178q-63 0 -105 47q-40 47 -40 119z" />
    <glyph glyph-name="u" unicode="u" horiz-adv-x="731" 
d="M554 2q-115 0 -118 145q0 47 21 117q-150 -262 -277 -262q-111 0 -129 92q-6 11 -6 25q0 88 76 213q-33 0 -19 33l37 71q70 133 115 226q20 43 80 43h125q-74 -53 -149 -206q-76 -153 -116 -240t-40 -132q0 -82 57 -82q116 0 414 617q23 43 80 43h110q-45 -35 -71 -72
t-70 -131q-123 -246 -137 -326q-6 -29 -7 -53q0 -66 45 -70q111 0 273 342q12 29 24 23t13 -18t-60 -129q-60 -116 -127 -193q-67 -76 -144 -76z" />
    <glyph glyph-name="v" unicode="v" horiz-adv-x="536" 
d="M315 651q-1 -125 -65 -295t-64 -228t18 -68t38 -9q52 0 120 86t136 254q-29 66 -29 116t12 89q37 117 117 145q16 6 31 7q33 0 33 -33l-11 -37q-104 -326 -192 -475q-129 -217 -271 -217q-115 0 -114 110q0 84 61 260q-19 -34 -31 -22t-6 28l37 70q39 80 39 160t-33 94
q123 20 149 19q26 0 25 -54z" />
    <glyph glyph-name="w" unicode="w" horiz-adv-x="974" 
d="M156 128q0 -85 55 -85q43 0 121 104q77 104 174 297t109 227q13 34 73 34h125q-3 -4 -33 -24t-49 -52q-92 -154 -129 -248q-82 -209 -82 -275t55 -69h11q147 0 291 356q-29 61 -29 113t12 92q35 119 111 145q14 6 26 7q33 0 33 -35l-10 -35q-90 -299 -164 -438
q-133 -246 -291 -246q-75 0 -101 38t-29 68t-3 70q0 39 19 104q-152 -276 -273 -276q-45 0 -82 26t-45 68q-6 10 -6 25q0 88 76 213q-33 0 -19 33l37 71q100 197 115 226q20 43 80 43h125q-74 -53 -149 -206q-74 -153 -114 -239t-40 -132z" />
    <glyph glyph-name="x" unicode="x" horiz-adv-x="681" 
d="M329 631q-40 0 -93 -86q-14 -23 -66 -120t-64 -121q-14 -24 -22 -10t6 42q119 250 176 303q57 47 105 47h10q94 -10 94 -143q0 -49 -12 -115q55 104 128 194t116 101q12 2 29 2t39 -12t15 -45q-7 -32 -31 -52t-59 -20t-45 35q-63 -59 -127 -159t-94 -198q-6 -42 -6 -80
t11 -86q14 -61 82 -61t134 96t100 163t38 74l13 26t21 7t6 -23q-119 -258 -196 -324q-82 -66 -159 -66t-122 68t-30 174q-162 -313 -316 -314q-43 0 -73 31q-7 11 -3 23t16 15t24 -9q32 -30 99 3q66 32 150 162t127 267q20 109 20 160q-1 51 -41 51z" />
    <glyph glyph-name="y" unicode="y" horiz-adv-x="817" 
d="M-209 -606q119 0 254 122t238 261l45 76q-338 -88 -426 -127q-132 -57 -186 -163t3 -149q29 -20 72 -20zM154 127q0 -82 57 -82q39 0 108 82q145 170 322 535q23 43 80 43h110q-53 -37 -83 -93t-67 -153q-36 -96 -90 -256t-83 -240q193 57 295 203q45 63 129 225
q14 29 25 23t11 -16t-33 -80q-34 -69 -69 -127q-91 -151 -213 -217q-68 -36 -180 -76q-158 -287 -317 -422q-150 -123 -324 -123q-90 0 -139 38t-49 91t30 121q53 104 193 168q104 49 276 91t222 56q74 129 176 461q-119 -209 -199 -293t-162 -84q-111 0 -129 92
q-8 14 -4 43t5 41t24 64t45 90q-33 0 -19 33l37 71q70 133 115 226q20 43 80 43h125q-4 -4 -31 -23t-45 -51q-74 -127 -184 -363q-45 -96 -45 -141z" />
    <glyph glyph-name="z" unicode="z" horiz-adv-x="698" 
d="M-295 -571q31 -18 57 -19q98 0 216 75t217 189q98 115 149 252q-43 -14 -135 -41q-93 -27 -191 -57t-182 -80q-110 -63 -146 -176q-37 -113 15 -143zM-217 -635q-88 0 -134 53q-46 52 -46 108q0 143 215 260q84 47 289 112q204 65 255 79q37 119 37 181q0 106 -59 106
q-8 0 -16 -2q-98 -51 -112 -40q-14 12 -13 24q2 12 18 16q139 43 229 180q27 41 27 76t-29 68t-61 32q-102 0 -170 -116q-57 -96 -109 -205q-12 -29 -26 -19t2 41q109 213 121 234q92 168 252 168q72 0 108 -53q21 -29 21 -85q0 -55 -54 -137t-147 -137h4q133 0 137 -133
q0 -78 -22 -149q156 31 315 366q8 18 21 21q14 6 14 -15t-53 -117t-101 -159q-86 -123 -209 -148q-81 -219 -237 -375t-373 -221q-51 -14 -94 -14z" />
    <glyph glyph-name="braceleft" unicode="{" horiz-adv-x="755" 
d="M862 1487q23 0 23 -9q-1 -10 -11 -24t-22 -14q-150 0 -208 -52t-88 -176t-60 -257q-30 -134 -86 -201q-78 -96 -273 -131q164 -31 211 -111q35 -61 14 -188q-21 -128 -61 -287q-12 -63 -12 -119t26 -88q45 -53 185 -53q20 2 14 -22t-20 -23h-11q-201 0 -268 71
q-35 39 -35 121t11 140t34 151q23 92 30 128t7 91q0 100 -98 144q-45 18 -133 18q-14 0 -15 11q0 11 27 44q174 18 236 72q66 49 96 207q4 18 21 114t52 206t107 165q96 72 299 72h8z" />
    <glyph glyph-name="bar" unicode="|" horiz-adv-x="993" 
d="M541 -473h-88v2007h88v-2007z" />
    <glyph glyph-name="braceright" unicode="}" horiz-adv-x="993" 
d="M991 611q0 -11 -33 -44q-152 1 -248 -73t-153 -338q-23 -96 -71 -200t-121 -155q-100 -70 -302 -69h-10q-14 2 -14 10q0 35 31 35q150 0 217 55q88 70 147 309q23 91 66 189t100 151q88 78 266 113q-154 27 -196 111q-26 51 -8 152q18 102 43 171q37 119 53 174
q16 56 16 104t-16 70q-37 55 -185 56q-16 0 -16 10t29 37h10q211 0 264 -72q27 -35 27 -80q0 -133 -64 -295t-63 -264q0 -51 20 -78q39 -51 197 -67q14 -1 14 -12z" />
    <glyph glyph-name="asciitilde" unicode="~" horiz-adv-x="993" 
d="M737 848q-45 0 -136 40t-142 40t-88 -68q-3 -14 -25 -7t-22 11q86 154 188 154q47 0 133 -36t110 -37t31 -1q63 0 99 72q3 6 21 6t22 -10q-80 -164 -191 -164z" />
    <glyph glyph-name="nbspace" unicode="&#xa0;" horiz-adv-x="530" 
 />
    <glyph glyph-name="exclamdown" unicode="&#xa1;" horiz-adv-x="821" 
d="M700 688q35 0 54 -21q18 -22 18 -38q0 -55 -33 -82t-67 -27t-54 22q-18 22 -18 38t4 38t32 46t64 24zM-12 -610l-64 2l-10 4l-4 12q18 48 345 530t341 502l20 -2l-2 -14l-520 -991q-22 -43 -106 -43z" />
    <glyph glyph-name="cent" unicode="&#xa2;" horiz-adv-x="647" 
d="M670 1731q6 1 14 -9t8 -21t-11 -40t-58 -142q-48 -114 -76 -184q49 -14 78 -56t29 -95t-32 -91t-76 -38q-44 -1 -72 27t-28 69t27 68t59 27t54 -13q22 -12 26 -25q6 33 -12 61q-18 27 -58 27t-108 -46t-129 -128q-119 -162 -119 -316t113 -155q104 0 227 152q16 23 26 5
t-1 -32q-111 -154 -262 -160q-4 -10 -35 -79q-129 -303 -129 -416q0 -68 43 -76q29 -6 18 -25t-36 -12q-78 28 -78 134t121 378q35 76 40 96q-96 8 -135 78q-30 52 -30 96t8 102t46 150t90 152t126 106q74 45 139 46h19q82 203 141 346q16 39 33 39z" />
    <glyph glyph-name="sterling" unicode="&#xa3;" horiz-adv-x="1173" 
d="M129 164q-27 0 -45 -16t-18 -42q0 -57 64 -100t146 -43q84 0 156 41q-160 106 -218 133t-85 27zM596 504q0 20 6 24q57 29 135 29t123 -6q373 651 668 651q59 0 103 -30t44 -100t-80 -171q-80 -102 -165 -164q-10 -10 -22 -10t-13 8q0 8 12 17q240 199 240 338
q0 68 -88 68q-87 0 -189 -83q-179 -145 -268 -353q-37 -85 -86 -192q45 -6 85 -6q41 0 71 8t38 9q8 -1 8 -21t-6 -22q-43 -16 -90 -16t-129 7q-168 -322 -422 -466q63 -45 197 -101t196 -72q64 -16 137 -16t151 42t77 130q0 10 8 10t9 -14v-4q-10 -98 -90 -140t-178 -42
q-97 0 -184 19q-86 19 -234 71t-197 80q-88 -41 -169 -41t-163 39t-82 102t49 95q50 32 108 32t123 -29t93 -49t102 -76q80 66 132 148q52 81 68 107t63 108q46 82 51 88q-45 4 -89 4t-92 -10l-36 -12l-15 -7q-10 -1 -10 19z" />
    <glyph glyph-name="currency" unicode="&#xa4;" horiz-adv-x="1374" 
d="M659 381q82 0 150 62q68 61 68 151q-1 90 -61 149t-141 59t-147 -60q-66 -62 -66 -153t58 -149q57 -58 139 -59zM346 532q0 129 92 222l-213 331l316 -254q92 49 189 49t163 -49l446 267l-374 -350q27 -45 26 -103q0 -111 -92 -213l217 -336l-319 260q-87 -49 -183 -49
t-170 47l-442 -268l369 348q-25 47 -25 98z" />
    <glyph glyph-name="yen" unicode="&#xa5;" horiz-adv-x="1478" 
d="M172 909q0 -70 53 -166q0 -14 -14 -14q-4 0 -10 6q-53 72 -54 164t55 174t142 82q121 0 213 -106q166 -197 180 -482l41 64q0 15 18 33t43 64q26 46 56 92q31 46 56 85q26 39 85 114q190 241 323 241q52 0 92 -41t40 -89t-15 -47q-15 0 -16 15l4 24q0 43 -32 77
q-33 34 -76 34q-150 0 -451 -531q-12 -20 -16 -28h213q4 0 4 -8t-13 -22t-24 -15h-205l-108 -193h207q6 0 6 -8q-1 -8 -15 -22t-22 -15h-205q-176 -265 -311 -373t-275 -108q-39 0 -39 13t29 14q135 0 287 180q106 129 205 274h-465q-6 0 -6 8q0 9 14 23t22 14h465l11 17
q0 72 -15 176h-289q-6 0 -6 7t14 22t23 16h252q-23 130 -74 242t-106 162t-124 50t-118 -74q-49 -75 -49 -145z" />
    <glyph glyph-name="brokenbar" unicode="&#xa6;" horiz-adv-x="993" 
d="M637 442l-186 -915h-107l197 924zM877 1534l-193 -875l-98 11l184 864h107z" />
    <glyph glyph-name="section" unicode="&#xa7;" horiz-adv-x="1933" 
d="M471 537q0 -139 125 -246q68 -53 276 -143t258 -122q51 -32 82 -61l39 19q264 139 342 360q25 66 25 127q0 139 -125 246q-68 53 -309 157t-307 168l-39 -18q-264 -139 -342 -360q-25 -66 -25 -127zM610 -659q-386 0 -434 208q-4 20 -4 41q0 80 74 144q51 41 137 65
q37 10 41 -8q4 -27 -51 -33q-98 -12 -121 -98q-6 -23 -6 -43q0 -72 65 -135q93 -90 249 -90t333 63q92 33 160 90q104 90 104 181q0 121 -153 217q-56 35 -230 113t-274 140t-147 146q-46 84 -46 171t68 194q119 190 348 327q51 31 111 56q-100 149 -7 296q89 150 275 216
t376 65q387 0 435 -209q4 -20 4 -41q0 -80 -74 -143q-51 -41 -137 -66q-37 -10 -41 9q-4 27 51 32q98 12 121 99q6 23 6 43q0 72 -65 135q-94 90 -250 90t-332 -64q-92 -33 -160 -90q-104 -90 -104 -180q0 -121 153 -217q57 -35 231 -114t274 -141t146 -144q46 -84 46 -171
t-68 -194q-119 -190 -348 -328q-64 -39 -111 -57q94 -146 7 -297q-90 -147 -276 -213t-376 -65z" />
    <glyph glyph-name="dieresis" unicode="&#xa8;" horiz-adv-x="569" 
d="M213 951q0 -30 -18 -49q-19 -19 -49 -19t-49 18t-19 48t18 49t48 19t50 -18q19 -18 19 -48zM477 951q0 -30 -18 -49t-48 -19t-50 18q-19 18 -19 48t18 49t48 19t50 -18q19 -18 19 -48z" />
    <glyph glyph-name="copyright" unicode="&#xa9;" horiz-adv-x="1468" 
d="M578 743q104 141 231 141t127 -112q0 -51 -47 -96q-25 -20 -43 -20t-29 12q61 68 62 133q0 45 -41 45q-86 0 -186 -148t-101 -276q0 -59 26 -98t78 -39q119 0 217 147q12 16 24 18t13 -8q2 -12 -6 -26q-100 -162 -266 -162q-98 0 -141 49t-43 119t36 162q37 92 89 159z
M49 479q-1 283 241 479t524 195q282 0 447 -155t164 -355q0 -285 -254 -491q-227 -184 -509 -184t-448 152q-165 153 -165 359zM139 473q-1 -189 139 -333t386 -144t442 172q227 201 227 473q0 189 -140 335t-385 146t-441 -174q-228 -201 -228 -475z" />
    <glyph glyph-name="ordfeminine" unicode="&#xaa;" horiz-adv-x="765" 
d="M164 862q-23 0 -42 24t-20 62q0 96 88 203q68 80 158 80q47 0 80 -33q10 -10 6 -21t-16 -8q-12 37 -39 37q-86 0 -184 -157q-45 -76 -45 -116t26 -40q59 0 162 188q37 70 63 67q9 -1 25 -4t25 -1q-17 -16 -59 -95t-42 -118t15 -39h2q43 0 131 172q8 18 13 12t5 -10
t-4 -10q-96 -190 -160 -191q-31 0 -44 22t-13 47t10 62q-82 -133 -141 -133z" />
    <glyph glyph-name="guillemotleft" unicode="&#xab;" horiz-adv-x="923" 
d="M682 608q-32 -55 -180 -155t-152 -105l-2 -278l-10 -21l-14 -6q-10 0 -17 6q-29 74 -49 179t-29 139q8 5 211 133t226 129l14 -6zM977 608q-33 -51 -178 -153t-152 -107l-2 -278l-10 -21l-14 -6l-17 6q-23 41 -48 170q-26 129 -30 148q8 5 213 133t224 129l12 -6z" />
    <glyph glyph-name="logicalnot" unicode="&#xac;" horiz-adv-x="1654" 
d="M1210 29q-16 0 -28 14t-11 31l84 395h-1069q-41 0 -41 27q0 18 23 45t39 26h1163l-104 -493q-7 -45 -56 -45z" />
    <glyph glyph-name="uni00AD" unicode="&#xad;" horiz-adv-x="831" 
d="M301 453q0 43 35 43q133 0 450 -9q35 -2 43 -26q-4 -25 -34 -29q-160 0 -311 -17l-150 -18q-12 0 -23 20q-10 20 -10 36z" />
    <glyph glyph-name="registered" unicode="&#xae;" horiz-adv-x="1468" 
d="M1094 745q27 39 26 71q0 51 -69 76q-23 7 -76 15q-100 -168 -148 -268l99 10q109 14 168 96zM398 256q-148 0 -148 94q0 44 38 62t72 18t76 -14q14 -6 8 -10t-24 3t-50 7t-48 -26t-16 -45t20 -40q24 -20 68 -20q99 0 174 87t119 167t79 141q36 60 72 124t82 114
q-47 4 -126 4t-187 -23t-171 -75t-78 -111q-2 -14 -2 -39q0 -24 26 -52t73 -28t84 37t38 53t3 16q8 0 4 -28t-31 -51q-47 -49 -105 -49t-96 33q-37 34 -37 91q0 84 82 152t199 84t197 16t145 -10q23 23 30 23t1 -27q8 -2 39 -7t45 -9q139 -41 139 -125q0 -76 -110 -128
t-251 -53q25 -150 95 -254q43 -66 80 -65q78 0 147 158q10 16 15 13t1 -13q-61 -125 -94 -159t-90 -34q-161 0 -199 295q-4 33 -4 35q-79 -160 -151 -236q-85 -96 -233 -96zM139 473q-1 -189 139 -333t386 -144t442 172q227 201 227 473q0 189 -140 335t-385 146t-441 -174
q-228 -201 -228 -475zM49 479q-1 283 241 479t524 195q282 0 447 -155t164 -355q0 -285 -254 -491q-227 -184 -509 -184t-448 152q-165 153 -165 359z" />
    <glyph glyph-name="macron" unicode="&#xaf;" horiz-adv-x="993" 
d="M838 903l-25 -61h-438l26 61h437z" />
    <glyph glyph-name="degree" unicode="&#xb0;" horiz-adv-x="661" 
d="M426 1408q0 38 -27 66t-67 28t-67 -28t-27 -75t32 -69t66 -22q32 0 61 31t29 69zM465 1408q0 -54 -39 -92t-95 -38t-92 38t-36 92t39 93t92 39t92 -39t39 -93z" />
    <glyph glyph-name="plusminus" unicode="&#xb1;" horiz-adv-x="937" 
d="M881 92q0 -18 -35 -20q-313 0 -541 -27h-2q-12 -1 -22 19t-11 36q0 43 35 43l533 -16q35 0 43 -27v-8zM956 588q37 0 37 -28t-43 -28q-2 0 -272 -12q-6 -36 -26 -144t-21 -136q-4 -23 -49 -33q-12 -2 -23 -2q-29 0 -29 24q0 10 74 287q-49 -4 -154 -9t-137 -9
q-20 -2 -22 39q6 53 47 59l285 -6q11 38 35 146t36 151t43 43q23 0 12 -45t-59 -297h266z" />
    <glyph glyph-name="twosuperior" unicode="&#xb2;" horiz-adv-x="649" 
d="M0 492q-10 0 -10 7t8 23q6 4 99 80t120 103q326 289 326 442q0 41 -22 55t-50 6q-69 -18 -107 -64t-75 -124q-12 -29 -31 -20q-18 9 -12 28q35 98 112 172q78 74 177 74q59 0 97 -31t38 -81q0 -95 -174 -261q-111 -102 -263 -229l-18 -17q23 -23 67 -42t76 -19t80 29
q49 29 74 59t34 20q9 -8 -11 -43q-121 -156 -211 -155q-113 0 -207 63l-90 -69q-17 -6 -27 -6z" />
    <glyph glyph-name="threesuperior" unicode="&#xb3;" horiz-adv-x="610" 
d="M647 1186q0 -135 -244 -236q133 -20 134 -125q0 -121 -127 -224t-271 -103q-96 0 -125 75q-6 13 -6 25t27 2q10 -29 38 -49t58 -21q113 0 204 104t91 206q0 32 -17 54t-40 21t-82 -21q-58 -20 -60 3q-2 10 13 16q92 19 186 95t94 170q0 14 -17 23t-36 9q-76 0 -162 -98
q-10 -12 -20 -11t-6 25q123 152 251 152q51 0 84 -22t33 -70z" />
    <glyph glyph-name="acute" unicode="&#xb4;" horiz-adv-x="546" 
d="M125 846q-2 0 -7 3t-5 10t9 21t122 92q112 76 141 98t57 22t48 -10q22 -10 22 -26q0 -15 -6 -28q-10 -26 -184 -104t-197 -78z" />
    <glyph glyph-name="mu" unicode="&#xb5;" horiz-adv-x="663" 
d="M549 -16q-51 0 -79 32t-28 85q0 52 21 110q-51 -84 -121 -154q-70 -69 -138 -69t-98 57l-264 -577q-4 -6 -38 -6t-60 12q-8 8 -8 10l395 776q21 40 88 177q67 136 125 222h4q14 -10 47 -10t84 43l4 -4q-37 -41 -93 -144t-101 -175q-121 -217 -121 -303q0 -55 51 -56
q117 0 318 359q106 188 157 303h4q25 -14 62 -14t53 40l6 -2l-160 -309q-141 -262 -141 -342q0 -41 35 -41q51 0 115 70q92 104 161 260h13l4 -4q-156 -346 -297 -346z" />
    <glyph glyph-name="paragraph" unicode="&#xb6;" horiz-adv-x="825" 
d="M379 911q0 55 29 135q28 80 100 154t158 107t219 32h352l-37 -102h-41l-452 -1237h-138l453 1237h-100l-453 -1237h-137l272 743q-141 0 -196 76q-29 37 -29 92z" />
    <glyph glyph-name="periodcentered" unicode="&#xb7;" horiz-adv-x="534" 
d="M326 391q-35 0 -54 22q-18 22 -18 38q0 55 33 81t67 27q34 0 54 -21q18 -22 18 -38t-4 -38t-32 -46t-64 -25z" />
    <glyph glyph-name="cedilla" unicode="&#xb8;" horiz-adv-x="776" 
d="M668 -239q0 -81 -107 -152q-53 -35 -138 -35t-180 24t-96 70q1 14 11 14t32 -22q50 -51 188 -51t185 74q29 43 29 91t-47 79q-91 60 -201 6q-49 -25 -58 -25t-22 9q-12 9 -12 21t10 21t80 63t78 54t14 -16q-2 -2 -46 -32t-44 -40q40 6 104 6t142 -39t78 -120z" />
    <glyph glyph-name="onesuperior" unicode="&#xb9;" horiz-adv-x="503" 
d="M532 1264q12 0 13 -10q0 -9 -2 -23q-66 -119 -184 -355t-181 -352q-16 -24 -64 -24t-48 12l305 567q-21 -16 -77 -49t-81 -51q-37 -20 -40 -12t17 30l33 25q57 43 209 195q37 43 63 45q25 2 37 2z" />
    <glyph glyph-name="ordmasculine" unicode="&#xba;" horiz-adv-x="559" 
d="M346 1200q-28 0 -66 -37t-73 -109t-35 -115q0 -42 37 -42q29 0 59 25q-16 27 -16 51q4 43 36 43t31 -29q0 -2 -1 -6t-1 -6q63 101 63 163t-34 62zM336 1233q70 0 72 -96q0 -41 -25 -99t-84 -112q12 -25 47 -25q35 1 54 23q41 47 52 69q11 23 17 34t23 48q4 8 9 5t5 -7
t-2 -8q-53 -125 -94 -154q-82 -57 -129 -2q-45 -35 -86 -35h-5q-71 0 -71 94q0 40 25 102q26 62 82 112t106 51h4z" />
    <glyph glyph-name="guillemotright" unicode="&#xbb;" horiz-adv-x="923" 
d="M508 307l-420 -262l-14 -2q-8 0 -17 4l-2 8q0 19 47 57q139 111 192 147q52 35 73 50l20 15l2 278q2 2 5 9t5 10l17 8l18 -8q32 -83 50 -183t24 -131zM684 324l-2 135q0 139 12 162l17 8l16 -8q14 -13 46 -161t32 -153l-420 -262l-16 -2l-15 4v19q27 45 232 188
q82 58 98 70z" />
    <glyph glyph-name="onequarter" unicode="&#xbc;" horiz-adv-x="1273" 
d="M532 1264q12 0 13 -10q0 -9 -2 -23q-66 -119 -184 -355t-181 -352q-16 -24 -64 -24t-48 12l305 567q-21 -16 -77 -49t-81 -51q-37 -20 -40 -12t17 30l33 25q57 43 209 195q37 43 63 45q25 2 37 2zM1176 1266q40 0 38 -19q0 -8 -12 -23t-99 -124t-156 -195t-188 -234
t-349 -419q-231 -264 -279 -264q-6 0 -11 5t13 25q164 186 529 642q364 456 454 581q20 25 60 25zM1214 743q27 0 39 -12q-2 -29 -385 -356q-53 -43 -88 -88l248 6q25 51 78 153q29 31 78 36t45 -15q0 -6 -4 -12q0 -14 -78 -158h10q35 -6 38 -14t-5 -15q-8 -8 -41 -22h-31
l-119 -232q-10 -10 -42 -16t-50 -6t-37 6q0 4 60 116q59 112 67 126l-301 -7l9 39q47 57 116 125l84 88q133 152 176 211q29 47 133 47z" />
    <glyph glyph-name="onehalf" unicode="&#xbd;" horiz-adv-x="1273" 
d="M596 -20q-10 0 -10 7t8 23q6 4 99 80t120 103q326 289 326 442q0 81 -89 57t-165 -184q-12 -29 -31 -20q-18 9 -12 28q35 98 112 172q78 74 176 74q60 0 98 -31t38 -81q0 -97 -176 -261q-109 -102 -261 -229l-18 -17q23 -23 67 -42t76 -19t80 29q49 29 74 59t34 20
q9 -8 -12 -43q-121 -156 -210 -155q-113 0 -207 63l-90 -69q-17 -6 -27 -6zM530 1264q10 0 14 -3t-1 -30q-66 -119 -184 -355t-181 -352q-8 -12 -37 -19t-53 -5t-22 12l305 567q-21 -16 -77 -49t-81 -51q-37 -20 -40 -12t17 30l33 25q57 43 209 195q36 43 62 45t36 2z
M1097 1266q22 0 31 -2q37 -8 19 -32q-17 -24 -105 -132t-252 -314q-173 -218 -442 -534q-256 -293 -287 -262q-2 2 -2 8t88 106t453 556t455 581q20 25 42 25z" />
    <glyph glyph-name="threequarters" unicode="&#xbe;" horiz-adv-x="1273" 
d="M121 -4q0 8 12 22q164 186 529 642t454 581q20 25 60 25t38 -19q0 -8 -12 -23t-99 -124t-156 -195t-199 -248t-278 -334q-290 -335 -340 -335q-9 0 -9 8zM647 1186q0 -135 -244 -236q133 -20 134 -125q0 -121 -127 -224t-271 -103q-96 0 -125 75q-6 13 -6 25t27 2
q10 -29 38 -49t58 -21q113 0 204 104t91 206q0 32 -17 54t-40 21t-82 -21q-58 -20 -60 3q-2 10 13 16q92 19 186 95t94 170q0 14 -17 23t-36 9q-76 0 -162 -98q-10 -12 -20 -11t-6 25q123 152 251 152q51 0 84 -22t33 -70zM1214 743q27 0 39 -12q-2 -29 -385 -356
q-53 -43 -88 -88l248 6q25 51 78 153q29 31 78 36t45 -15q0 -6 -4 -12q0 -14 -78 -158h10q35 -6 38 -14t-5 -15q-8 -8 -41 -22h-31l-119 -232q-10 -10 -42 -16t-50 -6t-37 6q0 4 60 116q59 112 67 126l-301 -7l9 39q47 57 116 125l84 88q133 152 176 211q29 47 133 47z" />
    <glyph glyph-name="questiondown" unicode="&#xbf;" horiz-adv-x="811" 
d="M700 688q35 0 54 -21q18 -22 18 -38q0 -55 -33 -82t-67 -27t-54 22q-18 22 -18 38t4 38t32 46t64 24zM555 -412v11q-10 -39 -72 -74q-62 -28 -94 -8q-35 18 -35 69t45 86t90 35q70 0 93 -57q10 -20 10 -49t-14 -70q-29 -63 -147 -132q-119 -69 -235 -69t-169 92
q-14 27 -15 60q0 115 135 268q47 53 162 165t183 202t114 215q8 18 26 12t13 -27q-15 -71 -69 -163t-91 -142t-137 -173q-100 -122 -115 -140q-73 -95 -73 -163t69 -101q94 -35 207 21q53 26 86 64t33 68z" />
    <glyph glyph-name="Agrave" unicode="&#xc0;" horiz-adv-x="1458" 
d="M1536 1503q0 -18 -16 -18t-136 62t-131 69q-72 33 -71 84q0 16 11 28t31 13q20 0 166 -114t146 -124zM1593 1231q0 80 -67 124q-68 44 -178 44q-248 0 -449 -127t-387 -346q172 -53 395 -54q365 0 547 123q139 95 139 236zM1294 829q45 0 45 -55t-47 -108
q-145 -160 -205 -482q-12 -68 -12 -128t26 -93t58 -33q98 0 230 160q117 150 178 291q16 33 32 29t3 -37q-84 -186 -191 -328q-55 -76 -137 -126t-163 -50q-81 1 -122 65t-41 152t22 174t56 133q-207 -248 -440 -397q-149 -92 -321 -92q-34 0 -81 24q-141 58 -141 268
t137 484q80 156 180 264q-131 61 -192 131q-47 49 -47 121t29 92q20 27 36 6q8 -16 -2 -41t-10 -47q0 -48 60 -112t161 -109q195 211 438 337t508 126q154 0 243 -67t89 -181t-145 -227q-193 -147 -617 -148q-236 0 -430 64q-49 -45 -135 -180t-144 -281t-59 -252
q0 -23 2 -41q25 -170 172 -170q166 0 385 180q307 258 480 574q61 110 112 110z" />
    <glyph glyph-name="Aacute" unicode="&#xc1;" horiz-adv-x="1458" 
d="M1593 1231q0 80 -67 124q-68 44 -178 44q-248 0 -449 -127t-387 -346q172 -53 395 -54q365 0 547 123q139 95 139 236zM1294 829q45 0 45 -55t-47 -108q-145 -160 -205 -482q-12 -68 -12 -128t26 -93t58 -33q98 0 230 160q117 150 178 291q16 33 32 29t3 -37
q-84 -186 -191 -328q-55 -76 -137 -126t-163 -50q-81 1 -122 65t-41 152t22 174t56 133q-207 -248 -440 -397q-149 -92 -321 -92q-34 0 -81 24q-141 58 -141 268t137 484q80 156 180 264q-131 61 -192 131q-47 49 -47 121t29 92q20 27 36 6q8 -16 -2 -41t-10 -47
q0 -48 60 -112t161 -109q195 211 438 337t508 126q154 0 243 -67t89 -181t-145 -227q-193 -147 -617 -148q-236 0 -430 64q-49 -45 -135 -180t-144 -281t-59 -252q0 -23 2 -41q25 -170 172 -170q166 0 385 180q307 258 480 574q61 110 112 110zM1696 1741q25 0 44 -9
q19 -8 19 -22t-8 -30t-163 -88q-155 -71 -166 -70h-11q-14 8 -6 22q7 14 111 86t130 92t50 19z" />
    <glyph glyph-name="Acircumflex" unicode="&#xc2;" horiz-adv-x="1458" 
d="M1593 1231q0 80 -67 124q-68 44 -178 44q-248 0 -449 -127t-387 -346q172 -53 395 -54q365 0 547 123q139 95 139 236zM1294 829q45 0 45 -55t-47 -108q-145 -160 -205 -482q-12 -68 -12 -128t26 -93t58 -33q98 0 230 160q117 150 178 291q16 33 32 29t3 -37
q-84 -186 -191 -328q-55 -76 -137 -126t-163 -50q-81 1 -122 65t-41 152t22 174t56 133q-207 -248 -440 -397q-149 -92 -321 -92q-34 0 -81 24q-141 58 -141 268t137 484q80 156 180 264q-131 61 -192 131q-47 49 -47 121t29 92q20 27 36 6q8 -16 -2 -41t-10 -47
q0 -48 60 -112t161 -109q195 211 438 337t508 126q154 0 243 -67t89 -181t-145 -227q-193 -147 -617 -148q-236 0 -430 64q-49 -45 -135 -180t-144 -281t-59 -252q0 -23 2 -41q25 -170 172 -170q166 0 385 180q307 258 480 574q61 110 112 110zM1513 1741q18 0 21 -6
l74 -217q6 -12 -13 -13q-20 0 -28 13l-94 145q-244 -131 -271 -145q-20 -18 -49 -11q-10 4 -2 11l305 217q39 6 57 6z" />
    <glyph glyph-name="Atilde" unicode="&#xc3;" horiz-adv-x="1458" 
d="M1593 1231q0 80 -67 124q-68 44 -178 44q-248 0 -449 -127t-387 -346q172 -53 395 -54q365 0 547 123q139 95 139 236zM1294 829q45 0 45 -55t-47 -108q-145 -160 -205 -482q-12 -68 -12 -128t26 -93t58 -33q98 0 230 160q117 150 178 291q16 33 32 29t3 -37
q-84 -186 -191 -328q-55 -76 -137 -126t-163 -50q-81 1 -122 65t-41 152t22 174t56 133q-207 -248 -440 -397q-149 -92 -321 -92q-34 0 -81 24q-141 58 -141 268t137 484q80 156 180 264q-131 61 -192 131q-47 49 -47 121t29 92q20 27 36 6q8 -16 -2 -41t-10 -47
q0 -48 60 -112t161 -109q195 211 438 337t508 126q154 0 243 -67t89 -181t-145 -227q-193 -147 -617 -148q-236 0 -430 64q-49 -45 -135 -180t-144 -281t-59 -252q0 -23 2 -41q25 -170 172 -170q166 0 385 180q307 258 480 574q61 110 112 110zM1587 1567q-45 0 -136 40
t-142 40t-88 -68q-3 -14 -25 -7t-22 11q86 154 188 154q47 0 133 -36t110 -37t31 -1q63 0 99 72q3 6 21 6t22 -10q-80 -164 -191 -164z" />
    <glyph glyph-name="Adieresis" unicode="&#xc4;" horiz-adv-x="1458" 
d="M1593 1231q0 80 -67 124q-68 44 -178 44q-248 0 -449 -127t-387 -346q172 -53 395 -54q365 0 547 123q139 95 139 236zM1294 829q45 0 45 -55t-47 -108q-145 -160 -205 -482q-12 -68 -12 -128t26 -93t58 -33q98 0 230 160q117 150 178 291q16 33 32 29t3 -37
q-84 -186 -191 -328q-55 -76 -137 -126t-163 -50q-81 1 -122 65t-41 152t22 174t56 133q-207 -248 -440 -397q-149 -92 -321 -92q-34 0 -81 24q-141 58 -141 268t137 484q80 156 180 264q-131 61 -192 131q-47 49 -47 121t29 92q20 27 36 6q8 -16 -2 -41t-10 -47
q0 -48 60 -112t161 -109q195 211 438 337t508 126q154 0 243 -67t89 -181t-145 -227q-193 -147 -617 -148q-236 0 -430 64q-49 -45 -135 -180t-144 -281t-59 -252q0 -23 2 -41q25 -170 172 -170q166 0 385 180q307 258 480 574q61 110 112 110zM1450 1674q0 -30 -18 -49
t-48 -19t-50 18q-19 18 -19 48t18 49q19 19 49 19t49 -18t19 -48zM1714 1674q0 -30 -18 -49t-48 -19t-50 18q-19 18 -19 48t18 49q19 19 49 19t49 -18t19 -48z" />
    <glyph glyph-name="Aring" unicode="&#xc5;" horiz-adv-x="1458" 
d="M1593 1231q0 80 -67 124q-68 44 -178 44q-248 0 -449 -127t-387 -346q172 -53 395 -54q365 0 547 123q139 95 139 236zM1294 829q45 0 45 -55t-47 -108q-145 -160 -205 -482q-12 -68 -12 -128t26 -93t58 -33q98 0 230 160q117 150 178 291q16 33 32 29t3 -37
q-84 -186 -191 -328q-55 -76 -137 -126t-163 -50q-81 1 -122 65t-41 152t22 174t56 133q-207 -248 -440 -397q-149 -92 -321 -92q-34 0 -81 24q-141 58 -141 268t137 484q80 156 180 264q-131 61 -192 131q-47 49 -47 121t29 92q20 27 36 6q8 -16 -2 -41t-10 -47
q0 -48 60 -112t161 -109q195 211 438 337t508 126q154 0 243 -67t89 -181t-145 -227q-193 -147 -617 -148q-236 0 -430 64q-49 -45 -135 -180t-144 -281t-59 -252q0 -23 2 -41q25 -170 172 -170q166 0 385 180q307 258 480 574q61 110 112 110zM1747 1635q0 -46 -47 -82
q-46 -35 -104 -35t-90 28t-32 74q0 45 50 82q49 37 103 37t87 -29t33 -75zM1604 1552q27 0 46 24t22 56t-13 55q-16 21 -43 19t-47 -24q-21 -22 -23 -54t14 -54t44 -22z" />
    <glyph glyph-name="AE" unicode="&#xc6;" horiz-adv-x="2811" 
d="M1677 1346q-96 -106 -102 -211l-2 -9q104 95 104 220zM1428 1530q-150 0 -276 -41q-215 -70 -430 -285q-85 -84 -183 -200q154 -49 376 -50q97 0 233 12t271 64q-8 33 -8 51q3 207 234 365q-66 84 -217 84zM956 905q-272 0 -450 58q-207 -293 -285 -487t-78 -300
q0 -23 2 -41q25 -170 172 -170q166 0 385 180q156 131 306 311t222 318q73 137 130 137q47 0 47 -61t-51 -117l-10 -16q157 80 352 90q-180 59 -256 176q-214 -78 -486 -78zM1147 229q0 -252 242 -358q125 -55 333 -55t440 88q234 88 386 216t151 230q0 56 -59 70t-64 31
q-2 14 24 14t56 -16q113 -55 113 -148q0 -117 -154 -247q-153 -130 -405 -209t-520 -78q-391 0 -590 198q-113 113 -113 291q0 63 27 125q-72 -86 -161 -172t-147 -130t-128 -87q-143 -90 -313 -90q-34 0 -81 26q-147 61 -147 300t156 517q82 147 180 261q-137 66 -195 131
t-59 143q0 78 31 98q20 27 36 11q12 -17 1 -45t-11 -52q0 -55 60 -123t174 -120q481 535 999 534q195 0 291 -102q154 90 320 128t245 38q274 0 397 -99q82 -70 82 -156t-100 -172q-100 -87 -258 -122q-39 -8 -64 -8t-24 14q0 25 77 33q77 9 143 75q98 99 97 207
q0 39 -39 86q-68 88 -274 88q-125 0 -279 -44t-278 -142q16 -43 16 -84q0 -156 -182 -272q17 -68 75 -111t128 -61q70 -19 138 -33t109 -38q42 -24 37 -63q-8 -36 -88 -36l-233 2q-289 0 -438 -142q-160 -145 -160 -340z" />
    <glyph glyph-name="Ccedilla" unicode="&#xc7;" horiz-adv-x="1454" 
d="M1075 680q260 0 417 145t157 329t-160 288q-119 76 -293 76t-350 -101q-221 -128 -377 -366q145 -371 606 -371zM1004 -431q0 -81 -102 -149t-323 -15q-95 24 -96 71q1 14 11 14t32 -22q50 -52 188 -52t185 74q29 43 29 91t-47 79t-99 31t-102 -25q-49 -24 -58 -24t-22 9
q-12 9 -12 20t11 23t128 101q-135 11 -269 67t-221 177t-106 264q-8 61 -8 135q0 235 99 457q62 141 149 250q-35 137 -35 253t26 216q6 26 27 31q20 -1 12 -51t-8 -143t27 -237q164 211 385 308q170 74 356 73q53 0 111 -6q315 -35 426 -241q45 -86 45 -178t-43 -191
q-90 -197 -309 -291q-141 -61 -310 -61q-72 0 -145 10q-367 53 -508 348q-49 -69 -101 -233q-53 -164 -61 -252t-8 -148t8 -123q14 -113 86 -203t192 -127q120 -36 208 -36q285 0 485 119q121 72 189 162t147 251q12 27 25 19t-1 -39q-79 -158 -145 -250t-184 -176
q-229 -156 -482 -156h-18q-4 -3 -46 -31t-42 -41q40 7 104 7t142 -39t78 -120z" />
    <glyph glyph-name="Egrave" unicode="&#xc8;" horiz-adv-x="1847" 
d="M1634 313q0 47 -49 59t-51 25q-4 19 31 17t57 -15q92 -49 92 -127q0 -116 -159 -240t-401 -198t-452 -74q-211 0 -342 41q-231 72 -303 265q-16 49 -16 94q0 131 90 264q57 86 166 160t233 110t222 39q-104 37 -174 95t-70 128v13q14 157 184 283t356 174t318 49
q227 0 334 -91q68 -57 67 -120q0 -86 -104 -166t-252 -113q-37 -8 -59 -8t-23 12q0 23 66 30t122 46t92 101t36 112q0 51 -48 94q-65 55 -207 55t-295 -44t-282 -144q-156 -121 -156 -264q0 -57 36 -103t105 -67q69 -20 140 -35q156 -29 156 -82q0 -47 -88 -47l-220 2
q-270 0 -421 -131q-178 -152 -179 -352q0 -94 44 -173t158 -130t308 -51t408 81q214 82 372 205t158 221zM1362 1741q25 -1 156 -105t131 -116q1 -12 -13 -12t-124 56q-110 58 -117 62q-66 29 -66 72t33 43z" />
    <glyph glyph-name="Eacute" unicode="&#xc9;" horiz-adv-x="1847" 
d="M696 -201q194 0 408 82t372 205t158 221q0 47 -49 59t-51 25q-4 19 31 17t57 -15q92 -49 92 -127q0 -116 -159 -240t-401 -198t-452 -74q-211 0 -342 41q-231 72 -303 264q-16 49 -16 95q0 131 90 264q57 86 166 160t233 110t222 39q-100 37 -173 103t-73 141v12
q14 166 183 293t351 172t316 45q233 0 342 -94q68 -59 67 -125q0 -92 -105 -177t-255 -118q-37 -8 -61 -8t-21 12q7 25 69 32t119 50q115 82 131 213v14q0 51 -49 94q-63 58 -255 58t-396 -101q-282 -139 -284 -373q0 -40 35 -89q36 -49 105 -73t140 -38q156 -35 156 -88
q0 -47 -88 -47l-220 2q-270 0 -421 -131q-178 -152 -179 -352q0 -94 44 -173t158 -131t308 -51zM1770 1739q57 0 59 -30q0 -13 -7 -29q-8 -16 -154 -82q-146 -67 -158 -66h-11q-14 8 -8 18q5 10 53 44t101 72t77 55t48 18z" />
    <glyph glyph-name="Ecircumflex" unicode="&#xca;" horiz-adv-x="1847" 
d="M1206 1516q-20 0 -20 5t4 7l301 207q37 6 57 6t21 -6l71 -207q2 -2 2 -6t-17 -4t-26 10l-92 139q-242 -125 -261 -138q-20 -13 -40 -13zM1634 313q0 47 -49 59t-51 25q-4 19 31 17t57 -15q92 -49 92 -127q0 -116 -159 -240t-401 -198t-452 -74q-211 0 -342 41
q-231 72 -303 265q-16 49 -16 94q0 131 90 264q57 86 166 160t233 110t222 39q-104 37 -174 95t-70 128v13q14 157 184 283t356 174t318 49q227 0 334 -91q68 -57 67 -120q0 -86 -104 -166t-252 -113q-37 -8 -59 -8t-23 12q0 23 66 30t122 46t92 101t36 112q0 51 -48 94
q-65 55 -207 55t-295 -44t-282 -144q-156 -121 -156 -264q0 -57 36 -103t105 -67q69 -20 140 -35q156 -29 156 -82q0 -47 -88 -47l-220 2q-270 0 -421 -131q-178 -152 -179 -352q0 -94 44 -173t158 -130t308 -51t408 81q214 82 372 205t158 221z" />
    <glyph glyph-name="Edieresis" unicode="&#xcb;" horiz-adv-x="1847" 
d="M696 -190q194 0 408 82t372 204q158 123 158 221q0 47 -49 59t-51 25q-4 19 31 17t57 -15q92 -49 92 -127q0 -116 -159 -240t-401 -198t-452 -74q-211 0 -342 41q-231 72 -303 265q-16 49 -16 94q0 131 90 264q57 86 166 160t233 110t222 39q-104 37 -174 95t-70 129v12
q14 157 184 283t356 174t318 49q227 0 334 -90q68 -57 67 -121q0 -86 -104 -166t-252 -113q-37 -8 -59 -8t-23 12q0 23 66 30t122 46t92 101t36 112q0 51 -48 94q-65 56 -207 56t-295 -44t-282 -145q-156 -121 -156 -264q0 -57 36 -103t105 -66t140 -36q156 -29 156 -82
q0 -47 -88 -47l-220 2q-270 0 -421 -131q-178 -152 -179 -352q0 -94 44 -173t158 -130t308 -51zM1365 1606q-30 0 -49 18t-20 48q0 30 18 49t49 19q30 0 49 -18q20 -18 20 -48t-18 -49t-49 -19zM1629 1606q-30 0 -49 18t-19 48t18 49t48 19t49 -18q20 -18 20 -48t-18 -49
t-49 -19z" />
    <glyph glyph-name="Igrave" unicode="&#xcc;" horiz-adv-x="1855" 
d="M2521 1526q0 -16 -13 -16t-123 56q-110 58 -118 62q-63 35 -63 74t32 39q23 -1 154 -103t131 -112zM2251 1274q139 29 133 78q-4 24 -28 24t-105 -102zM2390 1442q70 0 70 -64q0 -80 -88 -112q-72 -29 -156 -43q-139 -258 -252 -660q-39 -139 -119 -310t-190 -314
q-408 -522 -1043 -523q-295 0 -469 129q-169 122 -172 359q0 80 42 190q43 110 137 194q94 85 149 89q20 0 25 -4q6 -10 -23 -25q-63 -27 -141 -119q-121 -145 -121 -325q0 -137 88 -236q111 -123 315 -168q88 -20 136 -20t97 1q50 1 132 21q170 44 326 140q157 96 267 208
t204 248q160 229 241 453q143 379 307 661q-326 -68 -520 -152t-301 -192q-137 -135 -176 -307q-12 -49 -12 -90q0 -86 47 -139t101 -53q55 1 117 25t108 81q68 84 67 199q0 57 -16 71q-4 6 4 19q20 31 39 0q59 -111 -12 -243t-201 -181q-66 -25 -141 -25q-74 0 -160 68
t-86 188q0 37 8 80q117 526 1167 705q19 39 67 96q48 56 82 68t56 12z" />
    <glyph glyph-name="Iacute" unicode="&#xcd;" horiz-adv-x="1855" 
d="M2001 1493q-2 0 -7 3t-5 10t8 20t122 92q113 78 142 100t57 21q28 0 48 -10q22 -9 22 -25t-6 -29q-10 -25 -184 -103t-197 -79zM2241 1337q139 29 133 78q-4 25 -28 25t-105 -103zM602 -520q-295 0 -469 127q-172 127 -172 360q0 80 42 190q42 111 136 195t150 88
q20 0 25 -7t-23 -21q-63 -27 -141 -121q-121 -143 -121 -324q0 -137 88 -235q111 -123 313 -168q90 -20 137 -20h97q50 1 133 22q169 43 325 139t267 208t204 247q160 231 242 454q143 379 307 662q-326 -68 -520 -152t-303 -190q-135 -137 -174 -309q-12 -49 -12 -90
q0 -85 47 -139t101 -54q55 0 117 25t109 82q66 84 66 198q0 57 -17 72q-4 6 5 18q20 31 38 0q27 -51 27 -111t-39 -132q-70 -131 -201 -181q-66 -25 -140 -25t-161 68q-86 68 -86 189q0 37 9 80q117 526 1167 704q19 39 67 96t82 69t56 11q68 0 69 -57q0 -61 -47 -92
t-110 -51l-86 -19q-139 -258 -252 -659q-39 -139 -119 -311t-190 -314q-408 -522 -1043 -522z" />
    <glyph glyph-name="Icircumflex" unicode="&#xce;" horiz-adv-x="1855" 
d="M2075 1510q0 5 4 8l305 217q37 6 57 6t21 -6l73 -217q2 -2 2 -8t-18 -5q-18 0 -25 13l-94 145q-243 -131 -270 -145q-14 -12 -34 -12t-21 4zM2241 1337q139 29 133 78q-4 25 -28 25t-105 -103zM602 -520q-295 0 -469 127q-172 127 -172 360q0 80 42 190q42 111 136 195
t150 88q20 0 25 -7t-23 -21q-63 -27 -141 -121q-121 -143 -121 -324q0 -137 88 -235q111 -123 313 -168q90 -20 137 -20h97q50 1 133 22q169 43 325 139t267 208t204 247q160 231 242 454q143 379 307 662q-326 -68 -520 -152t-303 -190q-135 -137 -174 -309
q-12 -49 -12 -90q0 -85 47 -139t101 -54q55 0 117 25t109 82q66 84 66 198q0 57 -17 72q-4 6 5 18q20 31 38 0q27 -51 27 -111t-39 -132q-70 -131 -201 -181q-66 -25 -140 -25t-161 68q-86 68 -86 189q0 37 9 80q117 526 1167 704q19 39 67 96t82 69t56 11q68 0 69 -57
q0 -61 -47 -92t-110 -51l-86 -19q-139 -258 -252 -659q-39 -139 -119 -311t-190 -314q-408 -522 -1043 -522z" />
    <glyph glyph-name="Idieresis" unicode="&#xcf;" horiz-adv-x="1855" 
d="M2262 1728q30 0 49 -18t19 -48t-18 -49t-48 -19t-49 18t-20 48q1 30 19 49t48 19zM2460 1660q0 30 18 49t48 19t49 -18t19 -48t-18 -49t-48 -19t-49 18t-19 48zM2241 1337q139 29 133 78q-4 25 -28 25t-105 -103zM602 -520q-295 0 -469 127q-172 127 -172 360
q0 80 42 190q42 111 136 195t150 88q20 0 25 -7t-23 -21q-63 -27 -141 -121q-121 -143 -121 -324q0 -137 88 -235q111 -123 313 -168q90 -20 137 -20h97q50 1 133 22q169 43 325 139t267 208t204 247q160 231 242 454q143 379 307 662q-326 -68 -520 -152t-303 -190
q-135 -137 -174 -309q-12 -49 -12 -90q0 -85 47 -139t101 -54q55 0 117 25t109 82q66 84 66 198q0 57 -17 72q-4 6 5 18q20 31 38 0q27 -51 27 -111t-39 -132q-70 -131 -201 -181q-66 -25 -140 -25t-161 68q-86 68 -86 189q0 37 9 80q117 526 1167 704q19 39 67 96t82 69
t56 11q68 0 69 -57q0 -61 -47 -92t-110 -51l-86 -19q-139 -258 -252 -659q-39 -139 -119 -311t-190 -314q-408 -522 -1043 -522z" />
    <glyph glyph-name="Eth" unicode="&#xd0;" horiz-adv-x="2103" 
d="M139 140q0 -36 17 -68q43 -88 176 -88q196 -1 366 122q-240 115 -303 138q-63 22 -123 22t-97 -45q-36 -45 -36 -81zM1391 -20q211 0 368 131q182 154 207 374q6 51 6 101q0 188 -74 354q-92 211 -272 352q-74 -113 -211 -341t-184 -304l102 -2q35 -2 43 -27
q-4 -25 -35 -28q-57 0 -151 -4q-219 -344 -373 -475q223 -100 504 -127q35 -4 70 -4zM1421 -78q-49 0 -98 6q-315 39 -555 146q-190 -154 -438 -154t-310 148q-14 34 -14 80t47 100q74 84 205 84q88 0 177 -32t317 -153q137 133 299 426l-168 -18q-15 -2 -27 23
q-12 24 -6 50t33 25q117 0 211 -2q197 386 274 492q82 123 162 215q-229 137 -488 137q-106 0 -217 -22q-317 -68 -483 -277q-102 -127 -102 -242q0 -156 149 -202q169 -45 275 55q90 90 96 168q2 18 24 13t17 -32q-20 -150 -158 -227q-84 -45 -168 -45l-106 18
q-156 53 -205 199q-20 55 -21 111q0 113 84 223q180 242 639 309q90 12 178 12q285 0 543 -135l51 60q28 25 102 75t113 52q16 0 10 -15q-7 -14 -38 -34t-53 -50l-97 -139q219 -145 334 -373q92 -182 92 -397q0 -266 -139 -432q-115 -139 -285 -201q-125 -45 -256 -45z" />
    <glyph glyph-name="Ntilde" unicode="&#xd1;" horiz-adv-x="2127" 
d="M2378 1741q16 0 16 -8q0 -137 -158 -138q-38 0 -112 33t-118 33t-73 -55q-4 -12 -32 -2q-4 4 -7 6q72 127 158 127q35 0 111 -31q75 -30 121 -30t75 59q3 6 19 6zM874 686q0 131 -137 131q-15 0 -35 -2t-25 5t3 16q18 24 122 24t136 -90q14 -35 14 -74q0 -88 -65 -200
q-111 -184 -305 -263q-100 -41 -222 -41t-222 84q-99 82 -130 234q-6 39 -6 84q0 123 66 286t219 312q291 287 614 354q146 29 273 12t198 -120q58 -80 58 -197t-25 -191t-33 -99t-30 -73t-28 -62t-62 -138q-56 -123 -52 -125l64 102q125 195 270 369q270 328 485 426
q121 57 211 57t150 -44t61 -150t-67 -259q-68 -152 -198 -390t-220 -433t-90 -346q0 -53 14 -96q29 -94 111 -94q45 1 93 23t73 22t25 -27t-40 -49q-39 -22 -63 -20q-328 0 -328 284q0 104 36 210t263 585q227 478 234 600q0 86 -101 86q-68 0 -153 -45q-322 -154 -613 -588
q-172 -256 -391 -727q-80 -172 -84 -180q-29 -59 -115 -59q-51 0 -55 32q-2 6 0 15q98 145 276 537q177 392 242 683q20 96 21 171q0 75 -21 128q-43 109 -145 125q-31 4 -86 4q-55 1 -165 -31t-247 -118q-309 -193 -448 -502q-76 -168 -76 -309q0 -72 18 -135
q68 -170 238 -179q211 0 369 177q126 141 126 278z" />
    <glyph glyph-name="Ograve" unicode="&#xd2;" horiz-adv-x="1605" 
d="M283 295q0 -283 170 -367q92 -43 183 -43t179 41q178 80 322 254q143 174 217 383q29 83 37 146q-342 -182 -721 -183q-184 0 -324 56q-63 -166 -63 -287zM1407 889q0 346 -221 512q-147 111 -344 110q-57 0 -117 -10q-250 -37 -408 -207q-133 -147 -133 -321t88 -250
q80 170 243 352q204 227 430 232q48 0 112 -39q14 -8 15 -16t-9 -13q-11 -4 -31 3t-68 7t-138 -49t-183 -153q-182 -207 -266 -394q129 -59 309 -59q80 0 170 12q293 37 547 174q4 56 4 109zM74 958q0 246 218 417t525 171t509 -171t202 -488v-41q205 135 266 258
q10 24 26 20t17 -14q0 -10 -12 -29q-121 -190 -305 -307q-8 -96 -52 -231t-150 -279q-104 -144 -245 -254q-225 -174 -465 -174t-350 182q-82 133 -82 296t60 325q-162 109 -162 319zM1499 1511q0 -18 -15 -18t-129 60t-126 67q-68 35 -68 78t35 43q25 0 164 -110t139 -120z
" />
    <glyph glyph-name="Oacute" unicode="&#xd3;" horiz-adv-x="1605" 
d="M1239 1493q-2 0 -7 3t-5 10t8 20t122 92q113 78 142 100t57 21t54 -13q27 -12 10 -51q-10 -25 -184 -103t-197 -79zM283 295q0 -283 170 -367q92 -43 183 -43t179 41q178 80 322 254q143 174 217 383q29 83 37 146q-342 -182 -721 -183q-184 0 -324 56q-63 -166 -63 -287
zM1407 889q0 346 -221 512q-147 111 -344 110q-57 0 -117 -10q-250 -37 -408 -207q-133 -147 -133 -321t88 -250q80 170 243 352q204 227 430 232q48 0 112 -39q14 -8 15 -16t-9 -13q-11 -4 -31 3t-68 7t-138 -49t-183 -153q-182 -207 -266 -394q129 -59 309 -59
q80 0 170 12q293 37 547 174q4 56 4 109zM74 958q0 246 218 417t525 171t509 -171t202 -488v-41q205 135 266 258q10 24 26 20t17 -14q0 -10 -12 -29q-121 -190 -305 -307q-8 -96 -52 -231t-150 -279q-104 -144 -245 -254q-225 -174 -465 -174t-350 182q-82 133 -82 296
t60 325q-162 109 -162 319z" />
    <glyph glyph-name="Ocircumflex" unicode="&#xd4;" horiz-adv-x="1605" 
d="M283 295q0 -283 170 -367q92 -43 183 -43t179 41q178 80 322 254q143 174 217 383q29 83 37 146q-342 -182 -721 -183q-184 0 -324 56q-63 -166 -63 -287zM1407 889q0 346 -221 512q-147 111 -344 110q-57 0 -117 -10q-250 -37 -408 -207q-133 -147 -133 -321t88 -250
q80 170 243 352q204 227 430 232q48 0 112 -39q14 -8 15 -16t-9 -13q-11 -4 -31 3t-68 7t-138 -49t-183 -153q-182 -207 -266 -394q129 -59 309 -59q80 0 170 12q293 37 547 174q4 56 4 109zM74 958q0 246 218 417t525 171t509 -171t202 -488v-41q205 135 266 258
q10 24 26 20t17 -14q0 -10 -12 -29q-121 -190 -305 -307q-8 -96 -52 -231t-150 -279q-104 -144 -245 -254q-225 -174 -465 -174t-350 182q-82 133 -82 296t60 325q-162 109 -162 319zM1348 1741q16 0 16 -4l61 -181q4 -8 -8 -8q-18 0 -26 8l-78 121q-201 -109 -223 -121
q-16 -14 -39 -8q-4 4 -2 8l251 181q32 4 48 4z" />
    <glyph glyph-name="Otilde" unicode="&#xd5;" horiz-adv-x="1605" 
d="M887 1602h-17q-12 4 -12 10q70 125 154 125q44 0 117 -30q72 -30 117 -30q46 0 75 60q2 6 10 6t21 -6l4 -4q-61 -135 -156 -136q-38 0 -112 33t-117 33t-74 -55q0 -6 -10 -6zM283 295q0 -283 170 -367q92 -43 183 -43t179 41q178 80 322 254q143 174 217 383
q29 83 37 146q-342 -182 -721 -183q-184 0 -324 56q-63 -166 -63 -287zM1407 889q0 346 -221 512q-147 111 -344 110q-57 0 -117 -10q-250 -37 -408 -207q-133 -147 -133 -321t88 -250q80 170 243 352q204 227 430 232q48 0 112 -39q14 -8 15 -16t-9 -13q-11 -4 -31 3t-68 7
t-138 -49t-183 -153q-182 -207 -266 -394q129 -59 309 -59q80 0 170 12q293 37 547 174q4 56 4 109zM74 958q0 246 218 417t525 171t509 -171t202 -488v-41q205 135 266 258q10 24 26 20t17 -14q0 -10 -12 -29q-121 -190 -305 -307q-8 -96 -52 -231t-150 -279
q-104 -144 -245 -254q-225 -174 -465 -174t-350 182q-82 133 -82 296t60 325q-162 109 -162 319z" />
    <glyph glyph-name="Odieresis" unicode="&#xd6;" horiz-adv-x="1605" 
d="M283 295q0 -283 170 -367q92 -43 183 -43t179 41q178 80 322 254q143 174 217 383q29 83 37 146q-342 -182 -721 -183q-184 0 -324 56q-63 -166 -63 -287zM1407 889q0 346 -221 512q-147 111 -344 110q-57 0 -117 -10q-250 -37 -408 -207q-133 -147 -133 -321t88 -250
q80 170 243 352q204 227 430 232q48 0 112 -39q14 -8 15 -16t-9 -13q-11 -4 -31 3t-68 7t-138 -49t-183 -153q-182 -207 -266 -394q129 -59 309 -59q80 0 170 12q293 37 547 174q4 56 4 109zM74 958q0 246 218 417t525 171t509 -171t202 -488v-41q205 135 266 258
q10 24 26 20t17 -14q0 -10 -12 -29q-121 -190 -305 -307q-8 -96 -52 -231t-150 -279q-104 -144 -245 -254q-225 -174 -465 -174t-350 182q-82 133 -82 296t60 325q-162 109 -162 319zM1115 1606q-30 0 -49 18t-19 48t18 49t48 19t49 -18q20 -18 20 -48t-18 -49t-49 -19z
M1379 1606q-30 0 -49 18t-19 48t18 49t48 19t49 -18q20 -18 20 -48t-18 -49t-49 -19z" />
    <glyph glyph-name="multiply" unicode="&#xd7;" horiz-adv-x="622" 
d="M532 584l-151 -164l88 -172q-2 -6 -17 -22t-22 -19l-86 174l-151 -164q-3 1 -13 19t-10 24l152 164l-89 172q1 6 17 22t22 19l86 -174l152 164q6 1 14 -17t8 -26z" />
    <glyph glyph-name="Oslash" unicode="&#xd8;" horiz-adv-x="1579" 
d="M311 311q0 -207 109 -305l313 559h-37q-186 0 -323 56q-62 -150 -62 -310zM1434 922q0 293 -156 456l-418 -737q299 33 570 178q4 54 4 103zM662 -76q90 0 178 41q180 82 323 256t217 381q29 82 37 146q-283 -150 -596 -177l-342 -604q93 -43 183 -43zM211 997
q0 -160 88 -235q80 170 243 352q204 227 430 232q48 0 111 -39q13 -9 15 -17t-8 -12t-30 3t-70 7q-48 0 -138 -49t-182 -154q-182 -207 -267 -393q123 -61 312 -61q29 0 57 2l449 799q-154 118 -369 118t-422 -141q-115 -77 -167 -191t-52 -221zM100 995q0 125 65 246
t191 201q233 145 477 145t418 -100l99 174l69 -33l-104 -184q240 -178 239 -520v-39q205 135 267 258q10 23 26 19t17 -13q0 -10 -13 -29q-121 -190 -305 -307q-8 -96 -52 -231q-44 -136 -148 -280t-244 -253q-220 -171 -460 -174q-81 0 -169 27l-24 10l-87 -154l-65 29
l88 160q-133 96 -172 295q-10 61 -10 127q0 145 59 309q-162 109 -162 317z" />
    <glyph glyph-name="Ugrave" unicode="&#xd9;" horiz-adv-x="1929" 
d="M2056 1483q0 -19 -16 -19t-144 68t-141 74q-76 37 -76 86t39 49q26 0 182 -123t156 -135zM983 146q0 193 232 706q105 231 138 358q32 127 31 228q0 150 -79 196q-96 51 -218 52q-217 0 -464 -144q-367 -215 -496 -543q-53 -137 -53 -251t39 -205q86 -209 299 -209
q250 0 399 254q82 135 82 239q0 154 -139 154q-33 0 -83 -11t-46 1q6 16 61 41t111 24q84 0 120 -61q67 -113 -5 -308q-72 -194 -261 -307q-139 -86 -266 -86t-225 76q-168 129 -168 392t201 515q162 203 416 343t472 141q115 0 213 -41q199 -86 199 -330q0 -182 -117 -452
q-68 -160 -130 -292t-103 -268t-41 -227q0 -172 115 -172q123 0 288 205l56 76q82 120 212 378t132 261q61 108 114 108q41 -20 41 -63t-51 -133q-170 -305 -223 -621q-14 -86 -14 -156q0 -141 75 -141h23q37 0 37 -16q0 -25 -45 -31h-25q-69 12 -105 72t-39 121t-3 141
t26 207q-279 -461 -538 -461q-86 0 -134 55q-61 73 -61 185z" />
    <glyph glyph-name="Uacute" unicode="&#xda;" horiz-adv-x="1929" 
d="M1683 1372q-2 0 -7 3t-5 10t4 13q5 6 59 48q54 41 117 85q63 43 93 65t56 22q28 0 50 -10t21 -26q0 -16 -7 -28q-10 -26 -184 -104t-197 -78zM983 146q0 193 232 706q105 231 138 358q32 127 31 228q0 150 -79 196q-96 51 -218 52q-217 0 -464 -144q-367 -215 -496 -543
q-53 -137 -53 -251t39 -205q86 -209 299 -209q250 0 399 254q82 135 82 239q0 154 -139 154q-33 0 -83 -11t-46 1q6 16 61 41t111 24q84 0 120 -61q67 -113 -5 -308q-72 -194 -261 -307q-139 -86 -266 -86t-225 76q-168 129 -168 392t201 515q162 203 416 343t472 141
q115 0 213 -41q199 -86 199 -330q0 -182 -117 -452q-68 -160 -130 -292t-103 -268t-41 -227q0 -172 115 -172q123 0 288 205l56 76q82 120 212 378t132 261q61 109 114 108q57 -29 35 -92t-59 -129q-156 -281 -209 -596q-14 -86 -14 -156q0 -141 75 -141h23q37 0 37 -16
q0 -25 -45 -31h-25q-69 12 -105 72t-39 121t-3 141t26 207q-279 -461 -538 -461q-86 0 -134 55q-61 73 -61 185z" />
    <glyph glyph-name="Ucircumflex" unicode="&#xdb;" horiz-adv-x="1929" 
d="M1651 1510q0 5 4 8l305 217q39 6 57 6t21 -6l73 -217q2 -2 3 -8q0 -5 -18 -5t-25 13l-95 145q-243 -131 -270 -145q-14 -12 -34 -12t-21 4zM983 146q0 193 232 706q105 231 138 358q32 127 31 228q0 150 -79 196q-96 51 -218 52q-217 0 -464 -144q-367 -215 -496 -543
q-53 -137 -53 -251t39 -205q86 -209 299 -209q250 0 399 254q82 135 82 239q0 154 -139 154q-33 0 -83 -11t-46 1q6 16 61 41t111 24q84 0 120 -61q67 -113 -5 -308q-72 -194 -261 -307q-139 -86 -266 -86t-225 76q-168 129 -168 392t201 515q162 203 416 343t472 141
q115 0 213 -41q199 -86 199 -330q0 -182 -117 -452q-68 -160 -130 -292t-103 -268t-41 -227q0 -172 115 -172q123 0 288 205l56 76q82 120 212 378t132 261q61 109 114 108q57 -29 35 -92t-59 -129q-156 -281 -209 -596q-14 -86 -14 -156q0 -141 75 -141h23q37 0 37 -16
q0 -25 -45 -31h-25q-69 12 -105 72t-39 121t-3 141t26 207q-279 -461 -538 -461q-86 0 -134 55q-61 73 -61 185z" />
    <glyph glyph-name="Udieresis" unicode="&#xdc;" horiz-adv-x="1929" 
d="M1707 1405q-30 0 -49 18t-20 48q0 29 18 49t49 20q30 0 49 -18q20 -18 20 -48t-18 -50t-49 -19zM1971 1405q-30 0 -49 18t-19 48q0 29 18 49t48 20t49 -18q20 -18 20 -48t-18 -50t-49 -19zM983 146q0 193 232 706q105 231 138 358q32 127 31 228q0 150 -79 196
q-96 51 -218 52q-217 0 -464 -144q-367 -215 -496 -543q-53 -137 -53 -251t39 -205q86 -209 299 -209q250 0 399 254q82 135 82 239q0 154 -139 154q-33 0 -83 -11t-46 1q6 16 61 41t111 24q84 0 120 -61q67 -113 -5 -308q-72 -194 -261 -307q-139 -86 -266 -86t-225 76
q-168 129 -168 392t201 515q162 203 416 343t472 141q115 0 213 -41q199 -86 199 -330q0 -182 -117 -452q-68 -160 -130 -292t-103 -268t-41 -227q0 -172 115 -172q123 0 288 205l56 76q82 120 212 378t132 261q61 108 114 108q41 -20 41 -63t-51 -133q-170 -305 -223 -621
q-14 -86 -14 -156q0 -141 75 -141h23q37 0 37 -16q0 -25 -45 -31h-25q-69 12 -105 72t-39 121t-3 141t26 207q-279 -461 -538 -461q-86 0 -134 55q-61 73 -61 185z" />
    <glyph glyph-name="Yacute" unicode="&#xdd;" horiz-adv-x="2060" 
d="M1835 1362q-2 0 -7 3t-5 10t8 20t122 92q113 77 142 99t57 22t54 -13q27 -13 10 -51q-10 -26 -184 -104t-197 -78zM547 -653q0 -16 8 -33q43 -70 198 -70q299 0 568 202q133 99 219 239q-537 0 -823 -166q-170 -98 -170 -172zM2013 989q37 0 37 -61q0 -62 -40 -236
t-139 -471t-204 -483q31 2 110 4q275 7 374 53q100 47 118 148q-4 27 3 29q6 2 16 -16t10 -48t-33 -85q-33 -54 -129 -94t-500 -44q-98 -147 -248 -260t-319 -177q-168 -64 -284 -63q-116 0 -195 27q-154 51 -154 155q0 135 248 238q317 131 885 131q201 492 280 792
q-186 -401 -415 -557q-121 -82 -234 -82q-113 -1 -175 61t-62 169q0 223 303 717q94 154 156 320t61 290q0 125 -81 178t-196 53q-45 0 -96 -10q-369 -70 -666 -383q-150 -158 -220 -330t-70 -299q0 -53 14 -98q41 -150 162 -205q61 -27 127 -26q227 0 387 254
q90 145 90 254q0 141 -127 141q-25 0 -59 -7t-37 7q-2 14 47 26t94 13q106 0 143 -90q16 -39 17 -84q0 -90 -64 -209q-125 -227 -366 -328q-74 -31 -136 -31q-199 0 -311 144q-98 120 -98 276t76 312q75 156 197 286q226 243 554 371q162 63 297 63t240 -41
q109 -49 153 -132t45 -175q0 -231 -169 -514q-328 -560 -328 -790q0 -47 31 -88t103 -41t169 71q117 82 233 269q195 311 293 637q6 33 37 51t45 18z" />
    <glyph glyph-name="Thorn" unicode="&#xde;" horiz-adv-x="688" 
d="M422 467q319 8 501 162q97 83 131 157t33 119q0 158 -135 240q-74 41 -215 74l-102 -279q-115 -293 -148 -340zM1198 913q0 -115 -94 -231q-125 -155 -379 -223q-131 -35 -276 -35q-23 0 -46 2l-153 -313q-52 -104 -111 -107h-29q-7 0 -39 6t-48 4q37 35 184 294t215 401
q152 319 244 635t90 395q8 -11 41 -17t41 -14q43 -39 43 -78t-19 -96l-110 -279q136 -23 248 -86t163 -153q35 -61 35 -105z" />
    <glyph glyph-name="germandbls" unicode="&#xdf;" horiz-adv-x="894" 
d="M436 109q0 -82 78 -82q25 0 41 8q-76 47 -82 153q-37 -36 -37 -79zM696 35q82 0 162 96q43 53 154 268q4 10 14 11q18 2 18 -15q0 -4 -9 -23t-27 -62t-40 -80q-22 -36 -42 -68t-41 -51l-43 -45q-34 -35 -96 -55t-134 1q-47 -20 -84 -20q-145 0 -176 114q-6 27 -6 65
t26 73t56 38q30 4 54 -12q22 -16 22 -53v-14q0 -51 24 -91t62 -59q90 70 90 219q0 50 -39 188t-39 173q0 86 57 141q29 29 81 76t96 98q43 51 62 118t20 108q0 147 -115 186q-35 12 -68 12q-69 0 -143 -66t-119 -192q-45 -128 -137 -406t-150 -442t-140 -344
q-83 -180 -178 -291t-232 -205t-273 -94q-174 0 -184 136v10q0 55 39 100t89 45q50 1 75 -27t24 -49q0 -61 -35 -93t-71 -32t-66 25q23 -59 119 -59q23 0 45 6q184 47 331 225q146 178 283 522q70 175 140 365t266 661q133 260 294 258q64 -1 146 -29t115 -85t33 -140
q0 -178 -187 -307q-33 -23 -59 -40q-110 -71 -113 -161q0 -36 23 -71q135 -215 135 -320q1 -60 -43 -126t-103 -107q27 -4 37 -4z" />
    <glyph glyph-name="agrave" unicode="&#xe0;" horiz-adv-x="716" 
d="M662 831q0 -18 -16 -18t-145 68q-128 68 -141 73q-76 37 -75 86q0 49 39 50q26 0 182 -124t156 -135zM541 89q0 -40 30 -40q39 0 110 88t153 256q8 18 18 21q16 6 16 -13q0 -10 -6 -24q-188 -381 -317 -381q-59 0 -96 57q-18 31 -19 82q0 51 21 125q-164 -264 -283 -264
q-33 0 -59 20q-61 43 -62 148q0 201 174 407q98 115 242 150q39 10 74 10q94 0 159 -65q20 -23 12 -43t-34 -17q-23 74 -105 74t-211 -139q-74 -82 -146 -204t-71 -202q0 -80 52 -80q123 0 321 377q39 76 66 104t67 27q8 0 42 -6t50 -2q-36 -37 -104 -167t-81 -194t-13 -105
z" />
    <glyph glyph-name="aacute" unicode="&#xe1;" horiz-adv-x="716" 
d="M461 807q-2 0 -7 3t-5 10t8 20t122 92q113 78 142 100t57 21t48 -11q22 -10 22 -25t-6 -28q-10 -25 -184 -103t-197 -79zM541 89q0 -40 30 -40q39 0 110 88t153 256q8 18 18 21q16 6 16 -13q0 -10 -6 -24q-188 -381 -317 -381q-59 0 -96 57q-18 31 -19 82q0 51 21 125
q-164 -264 -283 -264q-33 0 -59 20q-61 43 -62 148q0 201 174 407q98 115 242 150q39 10 74 10q94 0 159 -65q20 -23 12 -43t-34 -17q-23 74 -105 74t-211 -139q-74 -82 -146 -204t-71 -202q0 -80 52 -80q123 0 321 377q39 76 66 104t67 27q8 0 42 -6t50 -2
q-36 -37 -104 -167t-81 -194t-13 -105z" />
    <glyph glyph-name="acircumflex" unicode="&#xe2;" horiz-adv-x="716" 
d="M379 832q0 6 4 8l305 217q37 4 57 4t21 -4l74 -217q2 -2 2 -7t-18 -5t-25 12l-94 145q-244 -131 -271 -145q-14 -12 -34 -12q-20 -2 -21 4zM541 89q0 -40 30 -40q39 0 110 88t153 256q8 18 18 21q16 6 16 -13q0 -10 -6 -24q-188 -381 -317 -381q-59 0 -96 57
q-18 31 -19 82q0 51 21 125q-164 -264 -283 -264q-33 0 -59 20q-61 43 -62 148q0 201 174 407q98 115 242 150q39 10 74 10q94 0 159 -65q20 -23 12 -43t-34 -17q-23 74 -105 74t-211 -139q-74 -82 -146 -204t-71 -202q0 -80 52 -80q123 0 321 377q39 76 66 104t67 27
q8 0 42 -6t50 -2q-36 -37 -104 -167t-81 -194t-13 -105z" />
    <glyph glyph-name="atilde" unicode="&#xe3;" horiz-adv-x="716" 
d="M725 903q-45 0 -136 40t-143 40t-88 -68q-4 -14 -25 -7t-22 12q86 154 189 153q47 0 133 -36q85 -36 109 -37t32 -1q63 0 98 72q2 6 21 6t22 -10q-79 -164 -190 -164zM541 89q0 -40 30 -40q39 0 110 88t153 256q8 17 19 21t14 -6t-5 -31q-188 -381 -317 -381
q-59 0 -96 57q-18 31 -19 82q0 51 21 125q-164 -264 -283 -264q-33 0 -59 20q-61 43 -62 148q0 201 174 407q98 115 242 150q39 10 74 10q94 0 159 -65q20 -23 12 -43t-34 -17q-23 74 -105 74t-211 -139q-74 -82 -146 -204t-71 -202q0 -80 52 -80q123 0 321 377
q39 76 66 104t67 27q8 0 42 -6t50 -2q-36 -37 -104 -167t-81 -194t-13 -105z" />
    <glyph glyph-name="adieresis" unicode="&#xe4;" horiz-adv-x="716" 
d="M575 941q0 -30 -18 -49q-18 -20 -48 -20t-49 18t-20 49q0 30 18 49t49 19q30 0 49 -18t19 -48zM705 939q0 30 18 49t48 19t49 -18q20 -18 20 -48t-18 -49q-18 -20 -49 -20q-30 0 -49 18t-19 49zM541 89q0 -40 30 -40q39 0 110 88t153 256q8 18 18 21q16 6 16 -13
q0 -10 -6 -24q-188 -381 -317 -381q-59 0 -96 57q-18 31 -19 82q0 51 21 125q-164 -264 -283 -264q-33 0 -59 20q-61 43 -62 148q0 201 174 407q98 115 242 150q39 10 74 10q94 0 159 -65q20 -23 12 -43t-34 -17q-23 74 -105 74t-211 -139q-74 -82 -146 -204t-71 -202
q0 -80 52 -80q123 0 321 377q39 76 66 104t67 27q8 0 42 -6t50 -2q-36 -37 -104 -167t-81 -194t-13 -105z" />
    <glyph glyph-name="aring" unicode="&#xe5;" horiz-adv-x="716" 
d="M774 1012q0 -46 -47 -81q-47 -36 -104 -36t-89 29q-32 30 -32 74t49 81t103 37t87 -29t33 -75zM631 930q27 0 46 24t23 56q2 32 -14 54t-43 20t-47 -24t-22 -54t14 -54t43 -22zM541 89q0 -40 30 -40q39 0 110 88t153 256q8 18 18 21q16 6 16 -13q0 -10 -6 -24
q-188 -381 -317 -381q-59 0 -96 57q-18 31 -19 82q0 51 21 125q-164 -264 -283 -264q-33 0 -59 20q-61 43 -62 148q0 201 174 407q98 115 242 150q39 10 74 10q94 0 159 -65q20 -23 12 -43t-34 -17q-23 74 -105 74t-211 -139q-74 -82 -146 -204t-71 -202q0 -80 52 -80
q123 0 321 377q39 76 66 104t67 27q8 0 42 -6t50 -2q-36 -37 -104 -167t-81 -194t-13 -105z" />
    <glyph glyph-name="ae" unicode="&#xe6;" horiz-adv-x="892" 
d="M942 643q0 41 -33 41q-57 0 -174 -141q-33 -41 -76 -107l-43 -86q36 2 100 26t113 64q113 97 113 203zM578 680q-92 0 -220 -139q-74 -82 -146 -204t-71 -202q0 -80 52 -80q123 0 321 377q60 113 152 195q-25 53 -88 53zM565 186q0 -59 23 -105t80 -46q186 0 338 350
q14 33 34 29q8 -2 8 -10t-46 -108q-46 -99 -93 -161q-104 -143 -258 -143q-66 0 -121 39q-82 57 -81 180q0 25 2 49q-164 -264 -283 -264q-33 0 -59 20q-61 43 -62 148q0 201 174 407q98 115 242 150q39 10 74 10q94 0 159 -65l6 -9q102 74 179 74q45 0 82 -26
q35 -29 34 -66q0 -119 -147 -233q-45 -35 -126 -63t-124 -28q-35 -70 -35 -129z" />
    <glyph glyph-name="ccedilla" unicode="&#xe7;" horiz-adv-x="532" 
d="M184 191q0 -73 30 -117t92 -45t116 29q107 59 242 331q14 29 24 24t10 -22t-54 -114t-99 -158q-82 -113 -228 -125l5 -8q-2 -2 -46 -32t-45 -40q39 6 104 6t143 -39t77 -120q0 -81 -106 -152q-51 -35 -137 -35t-182 24q-95 24 -95 70q0 35 46 -12t184 -47t186 74
q29 43 28 91q0 48 -47 79q-91 60 -203 6q-49 -25 -57 -25t-20 9q-25 19 -1 45q23 26 136 104h-2q-115 0 -165 56t-50 138t44 188t101 185q119 162 274 162q76 0 110 -36q34 -37 34 -95t-58 -107q-48 -45 -81 -12q72 86 71 145q0 59 -49 60q-96 0 -219 -176q-39 -56 -76 -146
t-37 -163z" />
    <glyph glyph-name="egrave" unicode="&#xe8;" horiz-adv-x="503" 
d="M588 813q0 -18 -16 -18q-16 -1 -145 67q-128 68 -140 74q-76 39 -76 87t39 48q26 0 182 -123t156 -135zM551 643q0 41 -33 41q-57 0 -174 -141q-70 -86 -123 -193q35 0 102 25t115 65q113 97 113 203zM178 174q0 -139 98 -139q186 0 338 350q14 33 35 29q8 -2 8 -10
t-46 -108q-46 -99 -93 -161q-104 -143 -258 -143q-82 0 -139 53t-58 145q1 92 45 196t119 193q76 89 174 130q47 20 91 20t79 -24q35 -29 35 -64q0 -123 -147 -235q-45 -35 -127 -63t-125 -28q-29 -70 -29 -141z" />
    <glyph glyph-name="eacute" unicode="&#xe9;" horiz-adv-x="503" 
d="M426 807q-2 0 -7 3t-5 10t8 20t122 92q113 78 142 100q28 22 56 21q28 0 55 -13t10 -51q-10 -25 -184 -103t-197 -79zM551 643q0 41 -33 41q-57 0 -174 -141q-70 -86 -123 -193q35 0 102 25t115 65q113 97 113 203zM178 174q0 -139 98 -139q186 0 338 350q14 33 35 29
q12 -6 2 -31q-86 -186 -133 -248q-104 -143 -258 -143q-82 0 -139 53t-58 145q1 92 45 196t119 193q76 89 174 130q47 20 91 20t79 -24q35 -29 35 -64q0 -123 -147 -235q-45 -35 -127 -63t-125 -28q-29 -70 -29 -141z" />
    <glyph glyph-name="ecircumflex" unicode="&#xea;" horiz-adv-x="503" 
d="M289 832q0 6 4 8l305 217q37 4 57 4t21 -4l74 -217q2 -2 2 -7t-18 -5t-25 12l-95 145q-243 -131 -270 -145q-14 -12 -34 -12q-20 -2 -21 4zM551 643q0 41 -33 41q-57 0 -174 -141q-70 -86 -123 -193q35 0 102 25t115 65q113 97 113 203zM178 174q0 -139 98 -139
q186 0 338 350q14 33 35 29q12 -6 2 -31q-86 -186 -133 -248q-104 -143 -258 -143q-82 0 -139 53t-58 145q1 92 45 196t119 193q76 89 174 130q47 20 91 20t79 -24q35 -29 35 -64q0 -123 -147 -235q-45 -35 -127 -63t-125 -28q-29 -70 -29 -141z" />
    <glyph glyph-name="edieresis" unicode="&#xeb;" horiz-adv-x="503" 
d="M398 834q-30 0 -49 18t-19 48t18 49t48 19t49 -18t19 -48t-18 -49t-48 -19zM729 902q0 -30 -18 -49t-48 -19t-50 18q-19 18 -19 48t18 49t48 19t50 -18q19 -18 19 -48zM551 643q0 41 -33 41q-57 0 -174 -141q-70 -86 -123 -193q35 0 102 25t115 65q113 97 113 203z
M178 174q0 -139 98 -139q186 0 338 350q14 33 35 29q12 -6 2 -31q-86 -186 -133 -248q-104 -143 -258 -143q-82 0 -139 53t-58 145q1 92 45 196t119 193q76 89 174 130q47 20 91 20t79 -24q35 -29 35 -64q0 -123 -147 -235q-45 -35 -127 -63t-125 -28q-29 -70 -29 -141z" />
    <glyph glyph-name="igrave" unicode="&#xec;" horiz-adv-x="344" 
d="M487 836q0 -18 -16 -18t-144 67q-128 68 -141 73q-76 37 -75 86q0 49 39 50q27 0 182 -123t155 -135zM20 150q0 60 31 116l178 340q39 76 51 87t60 12h104q-4 -4 -20 -17q-37 -25 -55 -57q-158 -256 -213 -398q-37 -80 -37 -131q0 -57 65 -57l80 39q82 80 193 309
q16 31 28 19q17 -12 -43 -123q-62 -130 -117 -194q-85 -95 -177 -95q-58 0 -93 45t-35 105z" />
    <glyph glyph-name="iacute" unicode="&#xed;" horiz-adv-x="344" 
d="M393 850q-2 0 -7 3t-5 10t8 20t122 92q113 77 142 99t57 22t55 -13t9 -51q-10 -26 -184 -104t-197 -78zM20 150q0 60 31 116l178 340q39 76 51 87t60 12h104q-4 -4 -20 -17q-37 -25 -55 -57q-158 -256 -213 -398q-37 -80 -37 -131q0 -57 65 -57l80 39q82 80 193 309
q16 31 28 20q13 -11 -9 -55q-96 -198 -151 -263q-85 -95 -177 -95q-58 0 -93 45t-35 105z" />
    <glyph glyph-name="icircumflex" unicode="&#xee;" horiz-adv-x="344" 
d="M208 819q-20 0 -22 5q0 5 4 7l306 218q37 4 57 4t20 -4l74 -218q2 -2 2 -7t-17 -5t-26 12l-94 146q-243 -132 -270 -146q-14 -12 -34 -12zM20 150q0 60 31 116l178 340q39 76 51 87t60 12h104q-4 -4 -20 -17q-37 -25 -55 -57q-158 -256 -213 -398q-37 -80 -37 -131
q0 -57 65 -57l80 39q82 80 193 309q16 31 28 20q13 -11 -9 -55q-96 -198 -151 -263q-85 -95 -177 -95q-58 0 -93 45t-35 105z" />
    <glyph glyph-name="idieresis" unicode="&#xef;" horiz-adv-x="344" 
d="M354 880q0 -30 -18 -50t-48 -19q-30 0 -49 18q-19 19 -19 49t18 49t48 19t49 -18t19 -48zM618 880q0 -30 -18 -50t-48 -19q-30 0 -49 18q-19 19 -19 49t18 49t48 19t49 -18t19 -48zM20 150q0 60 31 116l178 340q39 76 51 87t60 12h104q-4 -4 -20 -17q-37 -25 -55 -57
q-158 -256 -213 -398q-37 -80 -37 -131q0 -57 65 -57l80 39q82 80 193 309q16 31 28 20q13 -11 -9 -55q-96 -198 -151 -263q-85 -95 -177 -95q-58 0 -93 45t-35 105z" />
    <glyph glyph-name="eth" unicode="&#xf0;" horiz-adv-x="794" 
d="M561 530q0 108 -72 109q-80 0 -165 -115q-160 -213 -160 -428q0 -82 57 -82q117 1 287 314q53 94 53 202zM329 1274q134 0 226 -96l160 86q33 18 51 -4q4 -6 4 -16t-35 -31q-35 -22 -139 -89q90 -133 90 -354q0 -297 -145 -545q-86 -143 -201 -202q-66 -33 -134 -33
t-101 60q-32 60 -31 132q0 207 172 367q117 111 233 110q53 1 82 -31t29 -85v-31q23 100 22 193q0 209 -92 366q-84 -58 -154 -113q-9 -6 -32 10t-30 39q-7 22 15 40l156 86q-78 92 -184 92l-74 -8q-23 0 -22 14q0 43 134 43z" />
    <glyph glyph-name="ntilde" unicode="&#xf1;" 
d="M705 838q-45 0 -137 40t-142 40q-51 0 -88 -68q-4 -14 -26 -7t-21 11q86 154 188 154q47 0 133 -36t110 -37t32 -1q63 0 98 72q2 6 20 6t23 -11q-79 -163 -190 -163zM483 94q0 -53 39 -53q104 0 281 354q12 29 27 21t1 -39q-109 -219 -183 -302t-150 -83q-74 0 -113 57
q-20 27 -20 73t20 112t113 212q23 37 22 59q0 21 -35 21t-133 -92q-147 -135 -284 -405q-12 -19 -28 -25t-60 -8q-45 -2 -60 -10q33 66 167 346t187 332q25 25 68 24q8 0 42 -6t50 -2q-76 -41 -248 -385q96 119 175 189t190 131q111 60 162 61q12 0 22 -4
q-252 -442 -252 -578z" />
    <glyph glyph-name="ograve" unicode="&#xf2;" 
d="M633 836q-1 -18 -17 -18t-144 67q-128 68 -140 73q-76 37 -76 86t39 50q27 0 183 -123t155 -135zM512 653q-55 1 -131 -73q-75 -74 -141 -211t-66 -231t72 -95q51 0 114 55q-33 47 -32 101q4 88 71 88q27 0 47 -22t11 -62q35 51 83 150t48 199t-76 101zM489 717
q150 0 150 -189q0 -86 -45 -184q-57 -133 -172 -242q27 -51 89 -51q61 0 117 59t91 122t58 113t27 59q4 8 20 10q15 2 16 -15q0 -6 -4 -14l-13 -29q-12 -29 -18 -41l-22 -44q-52 -111 -124 -183q-73 -72 -151 -72t-125 54q-94 -70 -174 -70q-150 0 -150 188q0 86 45 185
q61 143 173 243t212 101z" />
    <glyph glyph-name="oacute" unicode="&#xf3;" 
d="M524 856q-2 0 -7 3t-5 10t8 20t122 92q113 77 142 99t57 22t55 -13t9 -51q-10 -26 -184 -104t-197 -78zM512 653q-55 1 -131 -73q-75 -74 -141 -211t-66 -231t72 -95q51 0 114 55q-33 47 -32 101q4 88 71 88q27 0 47 -22t11 -62q35 51 83 150t48 199t-76 101zM489 717
q150 0 150 -189q0 -86 -45 -184q-57 -133 -172 -242q27 -51 89 -51q61 0 117 59t91 122t58 113t27 59q4 8 16 10q10 2 16 -6t0 -23l-13 -29q-12 -29 -18 -41l-22 -44q-52 -111 -124 -183q-73 -72 -151 -72t-125 54q-94 -70 -174 -70q-150 0 -150 188q0 86 45 185
q61 143 173 243t212 101z" />
    <glyph glyph-name="ocircumflex" unicode="&#xf4;" 
d="M324 832q0 6 4 8l305 217q39 4 57 4t21 -4l73 -217q2 -2 2 -7t-17 -5t-26 12l-94 145q-243 -131 -270 -145q-15 -12 -35 -12q-20 -2 -20 4zM512 653q-55 1 -131 -73q-75 -74 -141 -211t-66 -231t72 -95q51 0 114 55q-33 47 -32 101q4 88 71 88q27 0 47 -22t11 -62
q35 51 83 150t48 199t-76 101zM489 717q150 0 150 -189q0 -86 -45 -184q-57 -133 -172 -242q27 -51 89 -51q61 0 117 59t91 122t58 113t27 59q4 8 20 10q15 2 16 -15q0 -6 -4 -14l-13 -29q-12 -29 -18 -41l-22 -44q-52 -111 -124 -183q-73 -72 -151 -72t-125 54
q-94 -70 -174 -70q-150 0 -150 188q0 86 45 185q61 143 173 243t212 101z" />
    <glyph glyph-name="otilde" unicode="&#xf5;" 
d="M696 883q-45 0 -136 40t-142 40t-88 -68q-4 -14 -26 -7t-21 11q86 154 188 154q47 0 133 -36t110 -37t31 -1q63 0 99 72q2 6 20 6t23 -10q-80 -164 -191 -164zM512 653q-55 1 -131 -73q-75 -74 -141 -211t-66 -231t72 -95q51 0 114 55q-33 47 -32 101q4 88 71 88
q27 0 47 -22t11 -62q35 51 83 150t48 199t-76 101zM489 717q150 0 150 -189q0 -86 -45 -184q-57 -133 -172 -242q27 -51 89 -51q61 0 117 59t91 122t58 113t27 59q4 8 16 10q10 2 16 -6t0 -23l-13 -29q-12 -29 -18 -41l-22 -44q-52 -111 -124 -183q-73 -72 -151 -72t-125 54
q-94 -70 -174 -70q-150 0 -150 188q0 86 45 185q61 143 173 243t212 101z" />
    <glyph glyph-name="odieresis" unicode="&#xf6;" 
d="M466 1003q30 0 49 -18t19 -48t-18 -49q-18 -20 -48 -20t-49 18t-20 49q1 30 19 49t48 19zM664 935q0 30 18 49t48 19t49 -18t19 -48t-18 -49q-18 -20 -48 -20t-49 18t-19 49zM512 653q-55 1 -131 -73q-75 -74 -141 -211t-66 -231t72 -95q51 0 114 55q-33 47 -32 101
q4 88 71 88q27 0 47 -22t11 -62q35 51 83 150t48 199t-76 101zM489 717q150 0 150 -189q0 -86 -45 -184q-57 -133 -172 -242q27 -51 89 -51q61 0 117 59t91 122t58 113t27 59q4 8 20 10q15 2 16 -15q0 -6 -4 -14l-13 -29q-12 -29 -18 -41l-22 -44q-52 -111 -124 -183
q-73 -72 -151 -72t-125 54q-94 -70 -174 -70q-150 0 -150 188q0 86 45 185q61 143 173 243t212 101z" />
    <glyph glyph-name="divide" unicode="&#xf7;" horiz-adv-x="821" 
d="M842 305l-4 -2h-705l-2 2v37l2 2h705l4 -2v-37zM418 -29q-35 0 -56 25q-20 26 -14 60t35 59t63 25t56 -25q20 -25 15 -60t-35 -59t-64 -25zM506 430q-35 0 -55 25q-19 25 -15 59t34 60q30 24 65 24t55 -25t14 -59t-34 -60q-28 -24 -64 -24z" />
    <glyph glyph-name="oslash" unicode="&#xf8;" 
d="M328 199v22l-101 -176h15q51 0 118 53q-32 48 -32 101zM586 567q0 39 -25 66l-203 -359q14 12 41 12t47 -21q20 -22 11 -62q129 190 129 364zM512 651q-59 0 -135 -76q-77 -76 -141 -214q-101 -217 -43 -295l331 585h-12zM209 0h-6l-64 -111l-37 17l58 100
q-100 31 -101 178q0 90 45 189q62 143 174 243t211 101q35 0 64 -15l51 91l39 -19l-55 -94q49 -47 49 -142t-50 -211t-165 -225q27 -51 89 -51q61 0 117 59t91 122t58 113t27 59q4 8 20 10q15 2 16 -15q0 -6 -4 -14l-13 -29q-12 -29 -18 -41l-22 -44q-52 -111 -124 -183
q-73 -72 -151 -72t-125 54q-94 -70 -174 -70z" />
    <glyph glyph-name="ugrave" unicode="&#xf9;" horiz-adv-x="731" 
d="M668 842q0 -18 -16 -18t-145 67q-128 68 -140 74q-76 39 -76 87t39 48q26 0 182 -123t156 -135zM554 2q-115 0 -118 145q0 47 21 117q-150 -262 -277 -262q-111 0 -129 92q-6 11 -6 25q0 88 76 213q-33 0 -19 33l37 71q70 133 115 226q20 43 80 43h125q-74 -53 -149 -206
q-76 -153 -116 -240t-40 -132q0 -82 57 -82q116 0 414 617q23 43 80 43h110q-45 -35 -71 -72t-70 -131q-123 -246 -137 -326q-6 -29 -7 -53q0 -66 45 -70q111 0 273 342q12 29 24 23t13 -18t-60 -129q-60 -116 -127 -193q-67 -76 -144 -76z" />
    <glyph glyph-name="uacute" unicode="&#xfa;" horiz-adv-x="731" 
d="M508 831q-2 -1 -7 3t-5 11t9 20t121 91q113 78 142 100q49 37 105 11q22 -9 22 -25t-6 -28q-10 -25 -184 -104t-197 -79zM554 2q-115 0 -118 145q0 47 21 117q-150 -262 -277 -262q-111 0 -129 92q-6 11 -6 25q0 88 76 213q-33 0 -19 33l37 71q70 133 115 226
q20 43 80 43h125q-74 -53 -149 -206q-76 -153 -116 -240t-40 -132q0 -82 57 -82q116 0 414 617q23 43 80 43h110q-45 -35 -71 -72t-70 -131q-123 -246 -137 -326q-6 -29 -7 -53q0 -66 45 -70q111 0 273 342q12 29 28 21t-7 -54q-96 -198 -167 -279t-148 -81z" />
    <glyph glyph-name="ucircumflex" unicode="&#xfb;" horiz-adv-x="731" 
d="M394 850q-20 0 -21 5q0 5 4 7l305 217q39 6 57 6t21 -6l74 -217q2 -2 2 -7t-18 -5t-25 12l-95 146q-243 -132 -270 -146q-14 -12 -34 -12zM554 2q-115 0 -118 145q0 47 21 117q-150 -262 -277 -262q-111 0 -129 92q-6 11 -6 25q0 88 76 213q-33 0 -19 33l37 71
q70 133 115 226q20 43 80 43h125q-74 -53 -149 -206q-76 -153 -116 -240t-40 -132q0 -82 57 -82q116 0 414 617q23 43 80 43h110q-45 -35 -71 -72t-70 -131q-123 -246 -137 -326q-6 -29 -7 -53q0 -66 45 -70q111 0 273 342q12 29 24 23t13 -18t-60 -129q-60 -116 -127 -193
q-67 -76 -144 -76z" />
    <glyph glyph-name="udieresis" unicode="&#xfc;" horiz-adv-x="731" 
d="M815 978q0 -30 -18 -49t-48 -19q-29 0 -49 18t-20 48t18 49t48 19t50 -18q19 -18 19 -48zM416 976q0 30 18 49t48 19t49 -18t19 -48t-18 -49t-48 -19t-49 18t-19 48zM554 2q-115 0 -118 145q0 47 21 117q-150 -262 -277 -262q-111 0 -129 92q-6 11 -6 25q0 88 76 213
q-33 0 -19 33l37 71q70 133 115 226q20 43 80 43h125q-74 -53 -149 -206q-76 -153 -116 -240t-40 -132q0 -82 57 -82q116 0 414 617q23 43 80 43h110q-45 -35 -71 -72t-70 -131q-123 -246 -137 -326q-6 -29 -7 -53q0 -66 45 -70q111 0 273 342q12 29 24 23t13 -18t-60 -129
q-60 -116 -127 -193q-67 -76 -144 -76z" />
    <glyph glyph-name="yacute" unicode="&#xfd;" horiz-adv-x="817" 
d="M541 846q-2 0 -7 3t-6 10q0 7 9 20t122 92q113 77 142 99t57 22t48 -10q22 -10 22 -26q0 -15 -6 -28q-10 -26 -184 -104t-197 -78zM-209 -606q119 0 254 122t238 261l45 76q-338 -88 -426 -127q-132 -57 -186 -163t3 -149q29 -20 72 -20zM154 127q0 -82 57 -82
q39 0 108 82q145 170 322 535q23 43 80 43h110q-53 -37 -83 -93t-67 -153q-36 -96 -90 -256t-83 -240q193 57 295 203q45 63 129 225q14 29 25 23t11 -16t-33 -80q-34 -69 -69 -127q-91 -151 -213 -217q-68 -36 -180 -76q-158 -287 -317 -422q-150 -123 -324 -123
q-90 0 -139 38t-49 91t30 121q53 104 193 168q104 49 276 91t222 56q74 129 176 461q-119 -209 -199 -293t-162 -84q-111 0 -129 92q-8 14 -4 43t5 41t24 64t45 90q-33 0 -19 33l37 71q70 133 115 226q20 43 80 43h125q-4 -4 -31 -23t-45 -51q-74 -127 -184 -363
q-45 -96 -45 -141z" />
    <glyph glyph-name="thorn" unicode="&#xfe;" horiz-adv-x="788" 
d="M645 717q14 0 27 -4q102 -27 102 -160q0 -90 -47 -199t-130 -209q-124 -149 -305 -149q-58 0 -128 37l-238 -488q-53 -106 -110 -106h-30q-7 0 -39 6t-48 4q37 35 184 294t215 400q152 319 259 684q108 365 106 445q8 -12 41 -18t41 -13q43 -39 43 -78t-19 -96l-258 -694
q129 211 203 277t131 67zM676 573q0 33 -13 61t-42 28q-72 0 -167 -134t-274 -465q27 -27 74 -27t133 73q137 115 229 284q60 110 60 180z" />
    <glyph glyph-name="ydieresis" unicode="&#xff;" horiz-adv-x="817" 
d="M512 951q0 -30 -18 -49t-48 -19t-50 18q-19 18 -19 48t18 49q19 19 49 19t49 -18t19 -48zM776 951q0 -30 -18 -49t-48 -19t-50 18q-19 18 -19 48t18 49q19 19 49 19t49 -18t19 -48zM-209 -606q119 0 254 122t238 261l45 76q-338 -88 -426 -127q-132 -57 -186 -163t3 -149
q29 -20 72 -20zM154 127q0 -82 57 -82q39 0 108 82q145 170 322 535q23 43 80 43h110q-53 -37 -83 -93t-67 -153q-36 -96 -90 -256t-83 -240q193 57 295 203q45 63 129 225q14 29 25 23t11 -16t-33 -80q-34 -69 -69 -127q-91 -151 -213 -217q-68 -36 -180 -76
q-158 -287 -317 -422q-150 -123 -324 -123q-90 0 -139 38t-49 91t30 121q53 104 193 168q104 49 276 91t222 56q74 129 176 461q-119 -209 -199 -293t-162 -84q-111 0 -129 92q-8 14 -4 43t5 41t24 64t45 90q-33 0 -19 33l37 71q70 133 115 226q20 43 80 43h125
q-4 -4 -31 -23t-45 -51q-74 -127 -184 -363q-45 -96 -45 -141z" />
    <glyph glyph-name="Amacron" unicode="&#x100;" horiz-adv-x="1458" 
d="M1769 1741l-24 -62h-438l26 62h436zM1677 1348q0 88 -72 135q-73 47 -200 47q-357 0 -683 -326q-85 -84 -183 -200q154 -49 376 -50q420 0 613 136q149 104 149 258zM1360 911q47 0 47 -61t-51 -117q-90 -100 -166 -252q-115 -229 -115 -413q0 -72 26 -105t58 -33
q98 0 230 160q117 150 178 291q16 33 32 29t3 -37q-84 -186 -191 -328q-55 -76 -137 -126t-163 -50q-81 1 -122 65t-41 152t22 174t56 133q-207 -248 -440 -397q-149 -92 -321 -92q-34 0 -81 24q-147 61 -147 300t156 517q82 147 180 261q-137 66 -195 131t-59 143
q0 78 31 98q20 27 36 11q12 -17 1 -45t-11 -52q0 -55 60 -123t174 -120q481 535 999 534q162 0 257 -73q95 -72 95 -192t-139 -237q-70 -61 -199 -106q-197 -70 -468 -70t-449 58q-207 -293 -285 -487t-78 -300q0 -23 2 -41q25 -170 172 -170q166 0 385 180q156 131 306 311
t222 318q73 137 130 137z" />
    <glyph glyph-name="amacron" unicode="&#x101;" horiz-adv-x="716" 
d="M881 946l-25 -61h-438l26 61h437zM541 89q0 -40 30 -40q39 0 110 88t153 256q8 17 19 21t14 -6t-5 -31q-188 -381 -317 -381q-59 0 -96 57q-18 31 -19 82q0 51 21 125q-164 -264 -283 -264q-33 0 -59 20q-61 43 -62 148q0 201 174 407q98 115 242 150q39 10 74 10
q94 0 159 -65q20 -23 12 -43t-34 -17q-23 74 -105 74t-211 -139q-74 -82 -146 -204t-71 -202q0 -80 52 -80q123 0 321 377q39 76 66 104t67 27q8 0 42 -6t50 -2q-36 -37 -104 -167t-81 -194t-13 -105z" />
    <glyph glyph-name="Abreve" unicode="&#x102;" horiz-adv-x="1458" 
d="M1593 1231q0 80 -67 124q-68 44 -178 44q-248 0 -449 -127t-387 -346q172 -53 395 -54q365 0 547 123q139 95 139 236zM1294 829q45 0 45 -55t-47 -108q-145 -160 -205 -482q-12 -68 -12 -128t26 -93t58 -33q98 0 230 160q117 150 178 291q16 33 32 29t3 -37
q-84 -186 -191 -328q-55 -76 -137 -126t-163 -50q-81 1 -122 65t-41 152t22 174t56 133q-207 -248 -440 -397q-149 -92 -321 -92q-34 0 -81 24q-141 58 -141 268t137 484q80 156 180 264q-131 61 -192 131q-47 49 -47 121t29 92q20 27 36 6q8 -16 -2 -41t-10 -47
q0 -48 60 -112t161 -109q195 211 438 337t508 126q154 0 243 -67t89 -181t-145 -227q-193 -147 -617 -148q-236 0 -430 64q-49 -45 -135 -180t-144 -281t-59 -252q0 -23 2 -41q25 -170 172 -170q166 0 385 180q307 258 480 574q61 110 112 110zM1778 1720q0 -61 -111 -133
q-76 -47 -156 -47t-135 29q-70 35 -69 121q0 51 34 51q9 1 15 -13t15 -34t22 -33q53 -51 125 -51q115 0 165 50q18 17 44 51t47 20q4 -5 4 -11z" />
    <glyph glyph-name="abreve" unicode="&#x103;" horiz-adv-x="716" 
d="M944 1081q0 -61 -113 -133q-73 -47 -153 -47t-142 32t-63 118q0 51 35 51q8 0 23 -33t28 -47q53 -51 125 -51q116 0 166 50q18 17 44 51t46 20q4 -5 4 -11zM541 89q0 -40 30 -40q39 0 110 88t153 256q8 17 19 21t14 -6t-5 -31q-188 -381 -317 -381q-59 0 -96 57
q-18 31 -19 82q0 51 21 125q-164 -264 -283 -264q-33 0 -59 20q-61 43 -62 148q0 201 174 407q98 115 242 150q39 10 74 10q94 0 159 -65q20 -23 12 -43t-34 -17q-23 74 -105 74t-211 -139q-74 -82 -146 -204t-71 -202q0 -80 52 -80q123 0 321 377q39 76 66 104t67 27
q8 0 42 -6t50 -2q-36 -37 -104 -167t-81 -194t-13 -105z" />
    <glyph glyph-name="Aogonek" unicode="&#x104;" horiz-adv-x="1458" 
d="M1677 1348q0 88 -72 135q-73 47 -200 47q-357 0 -683 -326q-85 -84 -183 -200q154 -49 376 -50q420 0 613 136q149 104 149 258zM1360 911q47 0 47 -61t-51 -117q-90 -100 -166 -252q-115 -229 -115 -413q0 -72 26 -105t58 -33q98 0 230 160q117 150 178 291q16 33 32 29
t3 -37q-84 -186 -191 -328q-29 -41 -80 -84v-14q-90 -72 -166 -170q-77 -98 -77 -165t59 -67q43 0 104 62q26 11 21 -8q-8 -37 -66 -76t-112 -39q-109 0 -109 86q0 66 65 154t148 161q-45 -16 -88 -16q-80 1 -121 65t-41 152t22 174t56 133q-207 -248 -440 -397
q-149 -92 -321 -92q-34 0 -81 24q-147 61 -147 300t156 517q82 147 180 261q-137 66 -195 131t-59 143q0 78 31 98q20 27 36 11q12 -17 1 -45t-11 -52q0 -55 60 -123t174 -120q481 535 999 534q162 0 257 -73q95 -72 95 -192t-139 -237q-70 -61 -199 -106q-197 -70 -468 -70
t-449 58q-207 -293 -285 -487t-78 -300q0 -23 2 -41q25 -170 172 -170q166 0 385 180q156 131 306 311t222 318q73 137 130 137z" />
    <glyph glyph-name="aogonek" unicode="&#x105;" horiz-adv-x="716" 
d="M430 159q0 34 21 101q-164 -264 -283 -264q-33 0 -59 20q-61 43 -62 148q0 201 174 407q98 115 242 150q39 10 74 10q94 0 159 -65q20 -23 12 -43t-34 -17q-23 74 -105 74t-211 -139q-74 -82 -146 -204t-71 -202q0 -80 52 -80q123 0 321 377q39 76 66 104t67 27
q8 0 42 -6t50 -2q-36 -37 -104 -167t-81 -194t-13 -105q0 -40 30 -40q39 0 110 88t153 256q8 18 18 21q16 6 16 -13q0 -10 -6 -24q-133 -272 -235 -348q-86 -72 -154 -164t-69 -157t59 -64q43 0 104 61q26 11 21 -8q-8 -37 -66 -76t-112 -39q-109 0 -109 86q0 68 71 162
t158 168q-100 10 -100 161z" />
    <glyph glyph-name="Cacute" unicode="&#x106;" horiz-adv-x="1454" 
d="M1332 1538q-16 0 -15 12q0 4 3 10t95 72q92 65 121 87t51 22q57 0 58 -35q-1 -8 -5 -18q-8 -20 -150 -85t-158 -65zM1075 801q268 0 432 133q125 104 125 231q0 162 -178 242q-112 47 -272 47t-354 -89t-347 -275q143 -289 594 -289zM1079 760q-467 0 -637 278
q-24 -27 -68 -131t-79 -264t-35 -306t71 -270t202 -164t219 -40q285 0 485 119q121 72 189 162t147 251q12 27 25 19t-1 -39q-79 -158 -145 -250t-180 -172q-229 -160 -496 -160q-160 1 -306 63t-231 192t-100 284q-6 57 -6 135t21 208q20 130 85 267t148 221
q-35 105 -35 197t27 170q4 12 15 19q12 7 20 0t1 -41t-7 -106t26 -183q160 164 377 239q166 57 344 58q55 0 111 -7q324 -29 424 -200q81 -138 -23 -297q-103 -160 -352 -224q-111 -28 -236 -28z" />
    <glyph glyph-name="cacute" unicode="&#x107;" horiz-adv-x="532" 
d="M498 858q-2 0 -8 3q-5 3 -5 10t8 20t122 91t143 100q28 22 56 22t50 -10t21 -26q0 -16 -6 -28q-10 -26 -184 -104t-197 -78zM184 191q0 -73 30 -117t92 -45t116 29q107 59 242 331q14 29 28 23t0 -37q-49 -101 -77 -153t-78 -116q-92 -115 -252 -114q-115 0 -165 56
t-50 138t44 188t101 185q119 162 274 162q76 0 110 -36q34 -37 34 -95t-58 -107q-48 -45 -81 -12q72 86 71 145q0 59 -49 60q-96 0 -219 -176q-39 -56 -76 -146t-37 -163z" />
    <glyph glyph-name="Ccircumflex" unicode="&#x108;" horiz-adv-x="1454" 
d="M1075 801q268 0 432 133q125 104 125 231q0 162 -178 242q-112 47 -272 47t-354 -89t-347 -275q143 -289 594 -289zM1079 760q-467 0 -637 278q-24 -27 -68 -131t-79 -264t-35 -306t71 -270t202 -164t219 -40q285 0 485 119q121 72 189 162t147 251q12 27 25 19t-1 -39
q-79 -158 -145 -250t-180 -172q-229 -160 -496 -160q-160 1 -306 63t-231 192t-100 284q-6 57 -6 135t21 208q20 130 85 267t148 221q-35 105 -35 197t27 170q8 23 27 22q18 0 10 -39t-8 -111t26 -183q160 164 377 239q166 57 344 58q55 0 111 -7q324 -29 424 -200
q81 -138 -23 -297q-103 -160 -352 -224q-111 -28 -236 -28zM1524 1741q16 0 18 -4l68 -197q4 -12 -11 -12q-18 0 -26 12l-86 131q-203 -96 -227 -108q-18 -18 -46 -11q-4 6 -2 11l261 174q35 4 51 4z" />
    <glyph glyph-name="ccircumflex" unicode="&#x109;" horiz-adv-x="532" 
d="M279 815q-20 0 -21 5q0 5 4 7l305 217q75 8 78 0l74 -217q2 -2 2 -7q1 -5 -17 -5t-26 12l-94 146q-244 -132 -271 -146q-14 -12 -34 -12zM184 191q0 -73 30 -117t92 -45t116 29q107 59 242 331q14 29 28 23t0 -37q-49 -101 -77 -153t-78 -116q-92 -115 -252 -114
q-115 0 -165 56t-50 138t44 188t101 185q119 162 274 162q76 0 110 -36q34 -37 34 -95t-58 -107q-48 -45 -81 -12q72 86 71 145q0 59 -49 60q-96 0 -219 -176q-39 -56 -76 -146t-37 -163z" />
    <glyph glyph-name="Cdotaccent" unicode="&#x10a;" horiz-adv-x="1454" 
d="M1075 801q268 0 432 133q125 104 125 231q0 162 -178 242q-112 47 -272 47t-354 -89t-347 -275q143 -289 594 -289zM1079 760q-467 0 -637 278q-24 -27 -68 -131t-79 -264t-35 -306t71 -270t202 -164t219 -40q285 0 485 119q121 72 189 162t147 251q12 27 25 19t-1 -39
q-79 -158 -145 -250t-180 -172q-229 -160 -496 -160q-160 1 -306 63t-231 192t-100 284q-6 57 -6 135t21 208q20 130 85 267t148 221q-35 105 -35 197t27 170q8 23 27 22q18 0 10 -39t-8 -111t26 -183q160 164 377 239q166 57 344 58q55 0 111 -7q324 -29 424 -200
q81 -138 -23 -297q-103 -160 -352 -224q-111 -28 -236 -28zM1495 1741q49 0 49 -62q0 -31 -31 -63t-73 -31q-42 0 -41 41q-1 35 31 75t65 40z" />
    <glyph glyph-name="cdotaccent" unicode="&#x10b;" horiz-adv-x="532" 
d="M608 1001q49 0 49 -63q-1 -28 -31 -60t-72 -32t-42 41q0 35 32 75t64 39zM184 191q0 -73 30 -117t92 -45t116 29q107 59 242 331q14 29 24 24t10 -21t-56 -119t-105 -167q-92 -115 -252 -114q-115 0 -165 56t-50 138t44 188t101 185q119 162 274 162q76 0 110 -36
q34 -37 34 -95t-58 -107q-48 -45 -81 -12q72 86 71 145q0 59 -49 60q-96 0 -219 -176q-39 -56 -76 -146t-37 -163z" />
    <glyph glyph-name="Ccaron" unicode="&#x10c;" horiz-adv-x="1454" 
d="M1055 741q268 0 432 133q125 104 125 232q0 162 -178 242q-111 47 -272 47q-161 1 -354 -89t-347 -276q143 -289 594 -289zM1059 700q-467 0 -637 279q-25 -27 -67 -125q-41 -98 -71 -242t-30 -285t74 -263t204 -162t220 -39q285 0 485 119q121 72 189 162t147 251
q12 27 25 19t-1 -39q-79 -158 -145 -250t-180 -172q-229 -160 -496 -160q-160 1 -306 63t-233 186t-106 269q-8 63 -8 137q0 239 97 441q62 131 147 215q-35 106 -35 198t26 168q8 23 26 23t11 -39q-8 -39 -8 -111t27 -184q160 164 377 238q166 59 344 59q55 0 110 -6
q324 -29 424 -201q37 -63 37 -135t-53 -153q-109 -168 -359 -232q-110 -29 -235 -29zM1334 1503q-18 0 -21 6l-74 217q-6 12 12 13h12q11 0 17 -13l94 -145q244 131 271 145q14 12 34 12t21 -4q0 -5 -4 -8l-305 -217q-39 -6 -57 -6z" />
    <glyph glyph-name="ccaron" unicode="&#x10d;" horiz-adv-x="532" 
d="M913 1155q20 0 21 -5q0 -5 -4 -7l-305 -217q-39 -4 -57 -4t-21 4l-74 217q-2 2 -2 7t18 5t25 -12l94 -146q244 132 271 146q14 12 34 12zM184 191q0 -73 30 -117t92 -45t116 29q107 59 242 331q14 29 28 23t0 -37q-49 -101 -77 -153t-78 -116q-92 -115 -252 -114
q-115 0 -165 56t-50 138t44 188t101 185q119 162 274 162q76 0 110 -36q34 -37 34 -95t-58 -107q-48 -45 -81 -12q72 86 71 145q0 59 -49 60q-96 0 -219 -176q-39 -56 -76 -146t-37 -163z" />
    <glyph glyph-name="Dcaron" unicode="&#x10e;" horiz-adv-x="2103" 
d="M2090 1741q20 0 19 -5q0 -5 -4 -7l-305 -201q-39 -4 -57 -4t-21 4l-73 201q-2 2 -2 6t17 4t26 -10l94 -136q243 124 270 136q16 12 36 12zM269 238q-60 0 -95 -42t-35 -75t17 -64q45 -80 178 -80q196 0 364 113q-219 100 -294 124t-135 24zM817 94q203 -113 481 -112
q326 0 521 170q154 137 153 383q0 174 -74 325q-92 195 -272 326q-57 -84 -227 -343q-171 -259 -313 -455t-269 -294zM1362 -70q-346 0 -594 131q-188 -143 -437 -143t-311 137q-14 31 -14 75t49 93q76 76 203 76q86 0 186 -33t308 -137q179 158 382 538q204 381 396 580
q-231 127 -490 127q-104 0 -215 -20q-324 -63 -489 -262q-96 -115 -96 -218q0 -145 149 -188q51 -12 90 -12q112 0 195 74q82 74 86 145q2 16 24 12t17 -28q-20 -137 -158 -209q-81 -43 -151 -43t-123 16q-158 51 -207 188q-18 49 -19 99q0 106 88 211q180 219 635 280
q92 12 183 13q281 0 538 -125q80 86 148 130q67 44 99 44t36 -8q4 -7 -1 -13t-14 -6q-35 0 -90 -68t-90 -126q219 -135 334 -347q92 -168 92 -366q0 -291 -180 -445q-154 -129 -360 -157q-99 -15 -199 -15z" />
    <glyph glyph-name="dcaron" unicode="&#x10f;" horiz-adv-x="1341" 
d="M1358 1174q0 -90 -62 -150t-145 -88q-8 -4 -14 -4t-7 10q0 10 17 16q61 20 104 66t52 113q-27 -21 -60 -21t-53 25t-15 59t34 60q30 24 68 24q37 0 59 -32t22 -78zM574 684q-48 0 -134 -72q-138 -115 -212 -254t-74 -211q0 -33 13 -59t42 -27q70 -1 172 143t268 453
q-27 27 -75 27zM549 119q0 -66 53 -66q96 0 256 322q6 12 11 24q5 13 17 17t15 -5q4 -9 -4 -30q-164 -381 -332 -381q-55 0 -88 49t-33 97t11 90q-119 -197 -205 -224q-24 -10 -48 -10t-46 6q-100 27 -101 160q0 90 46 200t130 210q125 149 305 149q58 0 130 -37
q139 262 237 486q29 68 56 87q28 19 52 19h28q5 0 39 -5t52 -3q-47 -43 -277 -470t-284 -587q-20 -59 -20 -98z" />
    <glyph glyph-name="Dcroat" unicode="&#x110;" horiz-adv-x="2103" 
d="M139 140q0 -36 17 -68q43 -88 176 -88q196 -1 366 122q-240 115 -303 138q-63 22 -123 22t-97 -45q-36 -45 -36 -81zM1303 -12q324 0 516 184q154 150 153 414q0 188 -74 354q-92 211 -272 352q-74 -113 -211 -341t-184 -304l102 -2q35 -2 43 -27q-4 -25 -35 -28
q-57 0 -151 -4q-219 -344 -373 -475q207 -123 486 -123zM330 -80q-248 0 -310 148q-14 34 -14 80t47 100q74 84 205 84q88 0 177 -32t317 -153q137 133 299 426l-168 -18q-15 -2 -27 23q-12 24 -6 50t33 25q117 0 211 -2q197 386 274 492q82 123 162 215q-229 137 -488 137
q-106 0 -217 -22q-317 -68 -483 -277q-102 -127 -102 -242q0 -156 149 -202q169 -45 275 55q90 90 96 168q2 18 24 13t17 -32q-20 -150 -158 -227q-84 -45 -168 -45l-106 18q-156 53 -205 199q-20 55 -21 111q0 113 84 223q180 242 639 309q90 12 178 12q285 0 543 -135
q80 93 148 141q67 48 99 48t36 -9t-1 -15t-14 -5q-35 0 -90 -74t-90 -137q219 -145 334 -373q92 -182 92 -397q0 -266 -127 -424q-104 -129 -268 -187t-338 -59q-352 1 -600 144q-190 -154 -438 -154z" />
    <glyph glyph-name="dcroat" unicode="&#x111;" horiz-adv-x="751" 
d="M574 684q-48 0 -134 -72q-138 -115 -212 -254t-74 -211q0 -33 13 -59t42 -27q70 -1 172 143t268 453q-27 27 -75 27zM549 119q0 -66 53 -66q96 0 256 322q6 12 11 24q5 13 17 17t15 -5q4 -9 -4 -30q-164 -381 -332 -381q-55 0 -88 49t-33 97t11 90q-119 -197 -205 -224
q-24 -10 -48 -10t-46 6q-100 27 -101 160q0 90 46 200t130 210q125 149 305 149q58 0 130 -37q47 90 133 262l-127 -14q-14 -2 -26 23t-7 51q6 26 33 24q96 0 166 -2l65 142q29 68 56 87q28 19 52 19h28q5 0 39 -5t52 -3q-35 -33 -153 -242q86 -4 145 -4q35 -2 43 -27
q-4 -25 -35 -28q-102 0 -190 -6q-391 -703 -391 -848z" />
    <glyph glyph-name="Emacron" unicode="&#x112;" horiz-adv-x="1794" 
d="M702 -170q194 0 408 82q215 82 373 205t157 221q0 47 -49 58t-51 26q-4 18 31 16t57 -14q92 -49 92 -127q0 -115 -158 -240t-401 -199t-453 -73q-210 0 -341 41q-231 72 -301 264q-18 49 -19 94q0 132 90 265q57 85 166 159t233 110t222 40q-100 36 -173 102t-73 141
q0 127 106 236q190 195 553 256q100 16 170 16q252 0 361 -94q68 -59 67 -125q0 -92 -105 -177t-255 -118q-37 -8 -61 -8t-21 12q7 25 69 32t120 50q115 82 131 213v15q0 51 -50 94q-63 57 -211 57q-341 0 -569 -174q-154 -117 -153 -266q0 -59 35 -109q36 -49 105 -73
t138 -39q158 -33 158 -86q0 -47 -88 -47l-219 2q-270 0 -422 -131q-178 -152 -178 -359t201 -297q114 -51 308 -51zM1755 1741l-24 -62h-439l27 62h436z" />
    <glyph glyph-name="emacron" unicode="&#x113;" horiz-adv-x="503" 
d="M756 979l-25 -61h-438l26 61h437zM551 643q0 41 -33 41q-57 0 -174 -141q-70 -86 -123 -193q35 0 102 25t115 65q113 97 113 203zM178 174q0 -139 98 -139q186 0 338 350q14 33 35 29q12 -6 2 -31q-86 -186 -133 -248q-104 -143 -258 -143q-82 0 -139 53t-58 145
q1 92 45 196t119 193q76 89 174 130q47 20 91 20t79 -24q35 -29 35 -64q0 -123 -147 -235q-45 -35 -127 -63t-125 -28q-29 -70 -29 -141z" />
    <glyph glyph-name="Edotaccent" unicode="&#x116;" horiz-adv-x="1794" 
d="M1565 1741q49 0 49 -62q0 -31 -31 -63t-73 -31q-42 0 -42 41q0 35 32 75t65 40zM702 -168q194 0 408 82q215 82 373 205t157 221q0 47 -49 58t-51 26q-4 18 31 16t57 -14q92 -49 92 -127q0 -115 -158 -240t-401 -199t-453 -73q-210 0 -341 41q-231 72 -301 264
q-18 49 -19 94q0 132 90 265q57 85 166 159t233 110t222 40q-100 36 -173 102t-73 142q0 127 106 235q190 195 553 256q100 16 170 16q252 0 361 -94q68 -59 67 -125q0 -92 -105 -177t-255 -118q-37 -8 -61 -8t-21 12q7 25 69 32t120 48q115 84 131 217v13q0 51 -50 94
q-63 57 -211 57q-339 0 -569 -172q-154 -119 -153 -268q0 -59 35 -109q36 -49 105 -73t138 -37q158 -35 158 -88q0 -47 -88 -47l-219 2q-270 0 -422 -131q-178 -152 -178 -359t201 -297q114 -51 308 -51z" />
    <glyph glyph-name="edotaccent" unicode="&#x117;" horiz-adv-x="503" 
d="M602 1049q49 0 49 -62q-1 -31 -31 -63t-72 -31q-42 0 -42 41q0 35 32 75t64 40zM551 643q0 41 -33 41q-57 0 -174 -141q-70 -86 -123 -193q35 0 102 25t115 65q113 97 113 203zM178 174q0 -139 98 -139q186 0 338 350q14 33 35 29q8 -2 8 -10t-46 -108q-46 -99 -93 -161
q-104 -143 -258 -143q-82 0 -139 53t-58 145q1 92 45 196t119 193q76 89 174 130q47 20 91 20t79 -24q35 -29 35 -64q0 -123 -147 -235q-45 -35 -127 -63t-125 -28q-29 -70 -29 -141z" />
    <glyph glyph-name="Eogonek" unicode="&#x118;" horiz-adv-x="1794" 
d="M1636 440q0 46 -49 58t-51 26q-4 18 31 16t57 -14q92 -49 92 -127q0 -115 -152 -235t-368 -191q-217 -72 -451 -84q-91 -72 -165 -169q-74 -98 -75 -164t58 -66q43 0 105 61q14 5 18 3t2 -11q-8 -37 -65 -75t-115 -39q-106 0 -106 83q0 84 96 198t192 177h-26
q-170 0 -302 41q-231 72 -301 265q-18 49 -18 94q0 131 90 264q57 86 166 160q109 73 233 109t222 40q-102 37 -174 103t-72 141v12q14 166 186 298t360 182t326 51q43 0 84 -5q170 -20 244 -84t74 -131q0 -92 -106 -177t-255 -117q-85 -18 -82 4q7 25 69 31t120 49
q115 84 131 217v12q0 51 -49 94q-60 57 -206 57t-302 -46q-156 -47 -300 -163t-143 -266q0 -59 36 -108t105 -73t138 -40q158 -33 158 -86q0 -47 -88 -47l-220 2q-270 0 -421 -131q-178 -152 -179 -352q0 -94 44 -173t158 -130q114 -52 308 -52t408 82t372 205t158 221z" />
    <glyph glyph-name="eogonek" unicode="&#x119;" horiz-adv-x="503" 
d="M551 643q0 41 -33 41q-57 0 -174 -141q-70 -86 -123 -193q35 0 102 25t115 65q113 97 113 203zM178 174q0 -139 98 -139q186 0 338 350q14 33 35 29q8 -2 8 -10t-5 -19q-5 -10 -22 -48q-82 -184 -138 -238t-86 -70q-84 -70 -150 -160t-67 -155t59 -64q43 0 104 61
q26 11 21 -8q-7 -37 -65 -76t-115 -39q-106 0 -107 86q0 68 68 158t153 164q-29 -4 -47 -4q-82 0 -139 53t-58 145q1 92 45 196t119 193q76 89 174 130q47 20 91 20t79 -24q35 -29 35 -64q0 -123 -147 -235q-45 -35 -127 -63t-125 -28q-29 -70 -29 -141z" />
    <glyph glyph-name="Ecaron" unicode="&#x11a;" horiz-adv-x="1794" 
d="M1440 1548q-18 0 -19 4l-67 168q-4 8 4 10q8 1 17 1t16 -11l86 -112q220 100 245 112q12 10 30 10t20 -4q0 -4 -3 -6l-278 -168q-33 -4 -51 -4zM696 -201q194 0 408 82t372 205t158 221q0 47 -49 59t-51 25q-4 19 31 17t57 -15q92 -49 92 -127q0 -116 -159 -240
t-401 -198t-452 -74q-211 0 -342 41q-231 72 -303 264q-16 49 -16 95q0 131 90 264q57 86 166 160t233 110t222 39q-100 37 -173 103t-73 141v12q14 166 183 293t351 172t316 45q233 0 342 -94q68 -59 67 -125q0 -92 -105 -177t-255 -118q-37 -8 -61 -8t-21 12q7 25 69 32
t119 50q115 82 131 213v14q0 51 -49 94q-63 58 -255 58t-396 -101q-282 -139 -284 -373q0 -40 35 -89q36 -49 105 -73t140 -38q156 -35 156 -88q0 -47 -88 -47l-220 2q-270 0 -421 -131q-178 -152 -179 -352q0 -94 44 -173t158 -131t308 -51z" />
    <glyph glyph-name="ecaron" unicode="&#x11b;" horiz-adv-x="503" 
d="M874 1112q20 0 21 -5q0 -5 -4 -7l-305 -217q-38 -6 -58 -6t-20 6l-74 217q-2 2 -2 7t18 5t25 -12l94 -146q244 132 271 146q14 12 34 12zM551 643q0 41 -33 41q-57 0 -174 -141q-70 -86 -123 -193q35 0 102 25t115 65q113 97 113 203zM178 174q0 -139 98 -139
q186 0 338 350q14 33 35 29q12 -6 2 -31q-86 -186 -133 -248q-104 -143 -258 -143q-82 0 -139 53t-58 145q1 92 45 196t119 193q76 89 174 130q47 20 91 20t79 -24q35 -29 35 -64q0 -123 -147 -235q-45 -35 -127 -63t-125 -28q-29 -70 -29 -141z" />
    <glyph glyph-name="Gcircumflex" unicode="&#x11c;" horiz-adv-x="1486" 
d="M23 -670q0 -57 98 -78q33 -8 72 -8q145 0 368 105q283 129 449 366q-215 -6 -377 -32q-233 -35 -445 -170q-165 -107 -165 -183zM1161 1456q-160 0 -346 -100q-272 -147 -412 -445q88 -71 200 -99q111 -28 179 -28t109 4q322 35 491 213q104 109 105 216q0 193 -252 233
q-35 6 -74 6zM147 1208q0 143 113 277q23 27 33 16q6 -8 -10 -31q-80 -112 -80 -238t94 -243q10 25 39 74q139 240 399 360q199 92 381 93q57 0 111 -9q240 -39 313 -200q27 -57 27 -133t-66 -170q-127 -188 -420 -250q-115 -25 -237 -25t-248 35q-127 35 -215 98
q-104 -229 -105 -422q0 -287 203 -352q70 -18 143 -18t183 28t227 107q117 78 148 149q82 190 176 191q47 0 63 -53q8 -20 4 -46q-20 -160 -88 -316t-190 -359q246 -2 448 -54q43 -10 43 -28q0 -23 -59 -8q-141 37 -408 36h-53q-125 -180 -333 -318t-403 -190t-312 -10
q-150 55 -150 146q0 27 14 57q55 123 291 227q178 80 376 109t443 33q152 256 207 503l8 35q-98 -94 -222 -167t-216 -101q-252 -82 -409 -21q-127 43 -190 167q-62 124 -62 284q-1 221 108 461q-119 133 -119 276zM1459 1741q15 0 16 -4l59 -174q4 -8 -8 -11q-18 -2 -25 11
l-76 116q-195 -106 -215 -116q-16 -14 -39 -9q-4 4 -2 9l244 174q31 4 46 4z" />
    <glyph glyph-name="gcircumflex" unicode="&#x11d;" horiz-adv-x="802" 
d="M678 1020q18 0 20 -6l74 -217q2 -2 2 -7q0 -6 -17 -6t-26 13l-94 145q-243 -131 -270 -145q-15 -13 -35 -13t-21 6q0 5 4 7l306 217q39 6 57 6zM-174 -528q0 -78 100 -78q59 0 134 35t124 71q84 68 185 201q76 106 116 207l-71 -25q-319 -111 -451 -196
q-96 -63 -127 -162q-10 -30 -10 -53zM698 325q0 -124 -43 -282q160 116 228 275q31 69 37 81q6 11 20 15t14 -13q0 -10 -6 -24q-90 -186 -150 -269t-165 -133q-49 -139 -143 -276t-234 -242q-142 -104 -281 -104q-193 0 -192 158q0 131 178 235q152 88 324 144t221 77
q53 156 53 340q0 37 -4 55q-57 -117 -158 -239q-119 -147 -235 -115q-106 45 -107 176q0 176 176 387q96 115 226 146q35 10 69 10q92 0 181 -61q33 -27 33 -45q0 -17 -13 -35q-12 -18 -26 -5q-13 13 -17 25q-27 76 -86 76q-109 0 -244 -152q-76 -86 -138 -196t-60 -177
q0 -91 69 -96q47 0 118 65t131 164t77 154q16 56 40 70q25 14 53 16t38 11q16 -92 16 -216z" />
    <glyph glyph-name="Gbreve" unicode="&#x11e;" horiz-adv-x="1486" 
d="M23 -670q0 -57 98 -78q33 -8 72 -8q145 0 368 105q283 129 449 366q-215 -6 -377 -32q-233 -35 -445 -170q-165 -107 -165 -183zM1141 1481q-158 0 -338 -111q-260 -162 -400 -459q88 -71 200 -99t179 -28q391 0 586 222q96 109 96 217q0 31 -8 61q-39 158 -254 193
q-30 4 -61 4zM147 1208q0 143 113 277q23 27 33 16q6 -8 -10 -31q-80 -112 -80 -238t94 -243q10 25 39 74q143 246 389 377q190 102 369 102q51 0 100 -8q238 -39 319 -205q31 -65 31 -143t-53 -168q-113 -193 -391 -260q-121 -29 -249 -29t-255 35t-215 98
q-104 -229 -105 -422q0 -287 203 -352q70 -18 143 -18t183 28t227 107q117 78 148 149q82 190 176 191q47 0 63 -53q8 -20 4 -46q-20 -160 -88 -316t-190 -359q246 -2 448 -54q43 -10 43 -28q0 -23 -59 -8q-141 37 -408 36h-53q-125 -180 -333 -318t-403 -190t-312 -10
q-150 55 -150 146q0 27 14 57q55 123 291 227q178 80 376 109t443 33q152 256 207 503l8 35q-98 -94 -222 -167t-216 -101q-252 -82 -409 -21q-127 43 -190 167q-62 124 -62 284q-1 221 108 461q-119 133 -119 276zM1360 1579q-49 0 -98 25t-50 96q0 41 27 41q10 0 18 -25
t23 -39q43 -41 110 -41q68 0 98 20t64 66q16 20 28 14q11 -7 9 -16q-67 -141 -229 -141z" />
    <glyph glyph-name="gbreve" unicode="&#x11f;" horiz-adv-x="802" 
d="M889 1102q0 -61 -111 -133q-76 -47 -156 -47t-142 32q-63 32 -62 117q0 51 35 51q8 0 14 -13t15 -33t22 -34q53 -51 144 -51t147 50q17 17 43 51t47 20q4 -4 4 -10zM-174 -528q0 -78 100 -78q59 0 134 35t124 71q84 68 185 201q76 106 116 207l-71 -25
q-319 -111 -451 -196q-96 -63 -127 -162q-10 -30 -10 -53zM698 325q0 -124 -43 -282q160 116 228 275q31 69 37 81q6 11 20 15t14 -13q0 -10 -6 -24q-90 -186 -150 -269t-165 -133q-49 -139 -143 -276t-234 -242q-142 -104 -281 -104q-193 0 -192 158q0 131 178 235
q152 88 324 144t221 77q53 156 53 340q0 37 -4 55q-57 -117 -158 -239q-119 -147 -235 -115q-106 45 -107 176q0 176 176 387q96 115 226 146q35 10 69 10q92 0 181 -61q33 -27 33 -45q0 -17 -13 -35q-12 -18 -26 -5q-13 13 -17 25q-27 76 -86 76q-109 0 -244 -152
q-76 -86 -138 -196t-60 -177q0 -91 69 -96q47 0 118 65t131 164t77 154q16 56 40 70q25 14 53 16t38 11q16 -92 16 -216z" />
    <glyph glyph-name="Gdotaccent" unicode="&#x120;" horiz-adv-x="1486" 
d="M1325 1741q39 0 39 -51q0 -25 -25 -50t-58 -24q-34 0 -34 33q-1 27 25 59t53 33zM23 -670q0 -57 98 -78q33 -8 72 -8q145 0 368 105q283 129 449 366q-215 -6 -377 -32q-233 -35 -445 -170q-165 -107 -165 -183zM1141 1481q-158 0 -338 -111q-260 -162 -400 -459
q88 -71 200 -99t179 -28q391 0 586 222q96 109 96 217q0 31 -8 61q-39 158 -254 193q-30 4 -61 4zM147 1208q0 143 113 277q23 27 33 16q6 -8 -10 -31q-80 -112 -80 -238t94 -243q10 25 39 74q143 246 389 377q190 102 369 102q51 0 100 -8q238 -39 319 -205q31 -65 31 -143
t-53 -168q-113 -193 -391 -260q-121 -29 -249 -29t-255 35t-215 98q-104 -229 -105 -422q0 -287 203 -352q70 -18 143 -18t183 28t227 107q117 78 148 149q82 190 176 191q47 0 63 -53q8 -20 4 -46q-20 -160 -88 -316t-190 -359q246 -2 448 -54q43 -10 43 -28q0 -23 -59 -8
q-141 37 -408 36h-53q-125 -180 -333 -318t-403 -190t-312 -10q-150 55 -150 146q0 27 14 57q55 123 291 227q178 80 376 109t443 33q152 256 207 503l8 35q-98 -94 -222 -167t-216 -101q-252 -82 -409 -21q-127 43 -190 167q-62 124 -62 284q-1 221 108 461
q-119 133 -119 276z" />
    <glyph glyph-name="gdotaccent" unicode="&#x121;" horiz-adv-x="802" 
d="M678 1073q49 0 49 -61q0 -31 -31 -63q-30 -31 -72 -31t-42 38t31 77q32 40 65 40zM-174 -528q0 -78 100 -78q59 0 134 35t124 71q84 68 185 201q76 106 116 207l-71 -25q-319 -111 -451 -196q-96 -63 -127 -162q-10 -30 -10 -53zM698 325q0 -124 -43 -282
q160 116 228 275q31 69 37 81q6 11 20 15t14 -13q0 -10 -6 -24q-90 -186 -150 -269t-165 -133q-49 -139 -143 -276t-234 -242q-142 -104 -281 -104q-193 0 -192 158q0 131 178 235q152 88 324 144t221 77q53 156 53 340q0 37 -4 55q-57 -117 -158 -239q-119 -147 -235 -115
q-106 45 -107 176q0 176 176 387q96 115 226 146q35 10 69 10q92 0 181 -61q33 -27 33 -45q0 -17 -13 -35q-12 -18 -26 -5q-13 13 -17 25q-27 76 -86 76q-109 0 -244 -152q-76 -86 -138 -196t-60 -177q0 -91 69 -96q47 0 118 65t131 164t77 154q16 56 40 70q25 14 53 16
t38 11q16 -92 16 -216z" />
    <glyph glyph-name="Gcommaaccent" unicode="&#x122;" horiz-adv-x="1144" 
d="M23 -516q0 -57 98 -78q33 -8 72 -8q145 0 368 102q283 131 449 369q-215 -6 -377 -33q-233 -35 -445 -170q-165 -106 -165 -182zM1141 1634q-158 0 -338 -110q-260 -162 -400 -459q88 -71 200 -99t179 -28q391 0 586 221q96 109 96 217q0 31 -8 62q-39 158 -254 192
q-30 4 -61 4zM147 1362q0 144 113 276q23 27 33 17q6 -8 -10 -31q-80 -112 -80 -238t94 -243q10 25 39 74q143 246 389 376q190 102 369 103q51 0 100 -8q238 -39 319 -205q31 -66 31 -144t-53 -168q-113 -193 -380 -257t-515 4q-127 35 -215 98q-104 -229 -105 -422
q0 -287 203 -352q145 -41 290 -1q146 39 263 117t148 150q82 190 176 190q47 0 63 -53q8 -20 4 -45q-20 -160 -88 -316t-190 -360q246 -2 448 -53q43 -10 43 -31t-59 -6q-141 37 -408 37h-53q-125 -180 -333 -318t-404 -192q-109 -27 -185 -27t-126 19q-150 55 -150 145
q0 27 14 58q55 123 291 227q178 81 376 109t443 32q152 256 207 504l8 35q-98 -94 -222 -167q-123 -72 -243 -110q-224 -70 -382 -12q-127 43 -190 167q-62 124 -62 284q-1 220 108 460q-119 133 -119 277zM725 -557q66 0 66 -68q-1 -67 -49 -115t-105 -67q-4 -2 -8 -2t-6 7
t12 11q100 31 113 127q-23 -14 -46 -14q-22 0 -36 18t-12 43q2 26 24 43t47 17z" />
    <glyph glyph-name="gcommaaccent" unicode="&#x123;" horiz-adv-x="802" 
d="M539 971q0 82 60 141t132 84q6 2 12 2t7 -8q0 -10 -17 -14q-127 -43 -139 -160q28 18 56 18t45 -22t13 -55q-4 -31 -30 -53q-27 -22 -62 -22t-56 26t-21 63zM-174 -528q0 -78 100 -78q59 0 134 35t124 71q84 68 185 201q76 106 116 207l-71 -25q-319 -111 -451 -196
q-96 -63 -127 -162q-10 -30 -10 -53zM698 325q0 -124 -43 -282q160 116 228 275q31 69 37 81q6 11 20 15t14 -13q0 -10 -6 -24q-90 -186 -150 -269t-165 -133q-49 -139 -143 -276t-234 -242q-142 -104 -281 -104q-193 0 -192 158q0 131 178 235q152 88 324 144t221 77
q53 156 53 340q0 37 -4 55q-57 -117 -158 -239q-119 -147 -235 -115q-106 45 -107 176q0 176 176 387q96 115 226 146q35 10 69 10q92 0 181 -61q33 -27 33 -45q0 -17 -13 -35q-12 -18 -26 -5q-13 13 -17 25q-27 76 -86 76q-109 0 -244 -152q-76 -86 -138 -196t-60 -177
q0 -91 69 -96q47 0 118 65t131 164t77 154q16 56 40 70q25 14 53 16t38 11q16 -92 16 -216z" />
    <glyph glyph-name="Hcircumflex" unicode="&#x124;" horiz-adv-x="2828" 
d="M2286 1581q-25 0 -103 -100q133 20 131 71q-2 23 -22 27q-2 2 -6 2zM2802 1741q16 0 16 -4l55 -168q4 -10 -10 -9t-20 9l-74 112q-186 -100 -207 -112q-18 -16 -33 -10q-14 6 -8 10l236 168q29 4 45 4zM3124 1563q24 -1 24 -7t-27 -19t-91 -107t-163 -289
q-98 -195 -172 -412q125 0 159 12t41 4t-20 -26q-68 -47 -198 -55q-2 -4 -33 -99q-102 -317 -102 -444q0 -72 26 -101q46 -53 117 -4q117 86 256 371q15 35 31 29t0 -43q-76 -162 -126 -238q-50 -75 -124 -147t-163 -72t-126 78q-18 38 -18 68t2 101t31 169q28 98 41 140
t40 114t29 78q-88 0 -694 26q-125 -373 -394 -667q-131 -145 -305 -244q-233 -129 -491 -129q-109 0 -242 32t-252 120t-169 241q-50 152 -3 336q25 94 110 176t140 84q20 0 24 -5q9 -10 -20 -24q-61 -27 -137 -131t-76 -262q0 -246 238 -367q143 -72 336 -71q84 0 157 16
q694 156 977 899q-53 0 -103 -24t-66 -23q-16 0 -17 12q0 35 49 67t86 36h80q131 328 299 663q-53 -6 -151 -14q-338 -27 -484 -75t-231 -128q-117 -111 -166 -270q-21 -66 -21 -140t53 -143q53 -70 142 -69q174 0 248 200q53 143 21 190q-13 19 7 23q14 2 25 -16
q56 -119 -17 -248q-105 -190 -303 -190q-57 0 -114 24q-109 47 -160 160q-33 68 -33 129q0 163 96 301q57 82 143 132t186 88q99 38 291 58q191 19 314 25t183 13q23 39 68 95q46 56 79 65t51 10q76 0 76 -65q0 -66 -84 -108t-158 -42q-55 -106 -156 -380t-108 -288
q154 0 396 -18t298 -17q41 119 141 340q99 221 175 335t142 138t90 23z" />
    <glyph glyph-name="hcircumflex" unicode="&#x125;" horiz-adv-x="679" 
d="M462 1358q-20 0 -22 5q0 5 4 7l306 217q37 6 57 6t20 -6l74 -217q2 -2 2 -7t-18 -5t-25 12l-94 146q-243 -132 -270 -146q-14 -12 -34 -12zM481 92q0 -57 41 -57q96 0 273 360q14 29 28 20t0 -40q-137 -283 -229 -346q-48 -37 -110 -37t-103 57q-18 27 -19 73
q0 46 20 112t114 212q23 37 22 59q0 21 -35 21t-133 -92q-147 -135 -287 -405q-14 -31 -75 -31q-55 -4 -70 -12q389 809 563 1128q71 129 125 129q26 0 58 -5q33 -5 49 -3q-61 -63 -220 -351t-305 -585q96 121 173 189t188 127q111 60 162 61q12 0 22 -4
q-252 -443 -252 -580z" />
    <glyph glyph-name="Hbar" unicode="&#x126;" horiz-adv-x="2828" 
d="M2286 1581q-25 0 -103 -100q133 20 131 71q-2 23 -22 27q-2 2 -6 2zM2576 727q41 121 146 354h-721l-119 -319q154 0 396 -18t298 -17zM2312 1645q76 0 76 -65q0 -66 -84 -108t-158 -42q-47 -92 -114 -267h729q160 336 262 371q78 29 97 29q18 0 26 -3q8 -4 -6 -12
l-21 -12q-25 -12 -95 -116t-147 -257h328l-18 -82h-348q-82 -176 -144 -352q125 0 159 12t41 4t-20 -26q-68 -47 -198 -55q-2 -4 -33 -99q-102 -317 -102 -444q0 -72 26 -101q46 -53 117 -4q117 86 256 371q15 35 31 29t0 -43q-76 -162 -126 -238q-50 -75 -124 -147
t-163 -72t-126 78q-18 38 -18 68t2 101t31 169q28 98 41 140t40 114t29 78q-88 0 -694 26q-125 -373 -394 -667q-131 -145 -305 -244q-233 -129 -491 -129q-109 0 -242 32t-252 120t-169 241q-50 152 -3 336q25 94 110 176t140 84q20 0 24 -5q9 -10 -20 -24
q-61 -27 -137 -131t-76 -262q0 -246 238 -367q143 -72 336 -71q84 0 157 16q694 156 977 899q-53 0 -103 -24t-66 -23q-16 0 -17 12q0 35 49 67t86 36h80q70 174 135 319h-405l20 82h424q86 186 125 262q-53 -6 -151 -14q-338 -27 -484 -75t-231 -128q-117 -111 -166 -270
q-21 -66 -21 -140t53 -143q53 -70 142 -69q174 0 248 200q53 143 21 190q-13 19 7 23q14 2 25 -16q56 -119 -17 -248q-105 -190 -303 -190q-57 0 -114 24q-109 47 -160 160q-33 68 -33 129q0 163 96 301q57 82 143 132t186 88q99 38 291 58q191 19 314 25t183 13
q23 39 68 95q46 56 79 66t51 9z" />
    <glyph glyph-name="hbar" unicode="&#x127;" horiz-adv-x="679" 
d="M481 92q0 -57 41 -57q96 0 273 360q14 29 25 23t11 -20t-47 -102q-47 -89 -92 -161q-94 -143 -200 -143q-70 0 -111 57q-18 27 -19 73q0 46 21 112t113 212q23 37 22 59q0 21 -35 21t-133 -92q-147 -135 -287 -405q-14 -31 -75 -31q-55 -4 -70 -12q338 705 494 999h-158
l27 41h151l49 88q71 129 125 129q26 0 58 -5q33 -5 49 -3q-39 -39 -140 -209h138l-25 -41h-137q-170 -297 -361 -686q96 121 173 189t188 127q111 60 162 61q12 0 22 -4q-252 -442 -252 -580z" />
    <glyph glyph-name="Itilde" unicode="&#x128;" horiz-adv-x="1902" 
d="M2468 1583q-41 0 -116 33t-120 33t-73 -56q-3 -12 -21 -5t-20 9q72 127 159 127q43 0 118 -30t120 -31q45 0 78 59q4 13 30 2l5 -4q-66 -137 -160 -137zM2241 1337q139 29 133 78q-4 25 -28 25t-105 -103zM602 -520q-295 0 -469 127q-172 127 -172 360q0 80 42 190
q42 111 136 195t150 88q20 0 25 -7t-23 -21q-63 -27 -141 -121q-121 -143 -121 -324q0 -137 88 -235q111 -123 313 -168q90 -20 137 -20h97q50 1 133 22q169 43 325 139t267 208t204 247q160 231 242 454q143 379 307 662q-326 -68 -520 -152t-303 -190q-135 -137 -174 -309
q-12 -49 -12 -90q0 -85 47 -139t101 -54q55 0 117 25t109 82q66 84 66 198q0 57 -17 72q-4 6 5 18q20 31 38 0q27 -51 27 -111t-39 -132q-70 -131 -201 -181q-66 -25 -140 -25t-161 68q-86 68 -86 189q0 37 9 80q117 526 1167 704q19 39 67 96t82 69t56 11q68 0 69 -57
q0 -61 -47 -92t-110 -51l-86 -19q-139 -258 -252 -659q-39 -139 -119 -311t-190 -314q-408 -522 -1043 -522z" />
    <glyph glyph-name="itilde" unicode="&#x129;" horiz-adv-x="356" 
d="M541 823q-41 0 -116 33t-120 33t-74 -55q-4 -12 -21 -6t-20 10q72 127 160 127q43 0 118 -31t120 -31t78 60q2 6 10 6t20 -4l4 -4q-65 -138 -159 -138zM20 150q0 60 31 116l178 340q39 76 51 87t60 12h104q-4 -4 -20 -17q-37 -25 -55 -57q-158 -256 -213 -398
q-37 -80 -37 -131q0 -57 65 -57l80 39q82 80 193 309q16 31 28 20q13 -11 -9 -55q-96 -198 -151 -263q-85 -95 -177 -95q-58 0 -93 45t-35 105z" />
    <glyph glyph-name="Imacron" unicode="&#x12a;" horiz-adv-x="1902" 
d="M2591 1692l-25 -62h-438l26 62h437zM2241 1337q139 29 133 78q-4 25 -28 25t-105 -103zM602 -520q-295 0 -469 127q-172 127 -172 360q0 80 42 190q42 111 136 195t150 88q20 0 25 -7t-23 -21q-63 -27 -141 -121q-121 -143 -121 -324q0 -137 88 -235q111 -123 313 -168
q90 -20 137 -20h97q50 1 133 22q169 43 325 139t267 208t204 247q160 231 242 454q143 379 307 662q-326 -68 -520 -152t-303 -190q-135 -137 -174 -309q-12 -49 -12 -90q0 -85 47 -139t101 -54q55 0 117 25t109 82q66 84 66 198q0 57 -17 72q-4 6 5 18q20 31 38 0
q27 -51 27 -111t-39 -132q-70 -131 -201 -181q-66 -25 -140 -25t-161 68q-86 68 -86 189q0 37 9 80q117 526 1167 704q19 39 67 96t82 69t56 11q68 0 69 -57q0 -61 -47 -92t-110 -51l-86 -19q-139 -258 -252 -659q-39 -139 -119 -311t-190 -314q-408 -522 -1043 -522z" />
    <glyph glyph-name="imacron" unicode="&#x12b;" horiz-adv-x="356" 
d="M649 915l-22 -55h-406l25 55h403zM20 150q0 60 31 116l178 340q39 76 51 87t60 12h104q-4 -4 -20 -17q-37 -25 -55 -57q-158 -256 -213 -398q-37 -80 -37 -131q0 -57 65 -57l80 39q82 80 193 309q16 31 28 20q13 -11 -9 -55q-96 -198 -151 -263q-85 -95 -177 -95
q-58 0 -93 45t-35 105z" />
    <glyph glyph-name="Iogonek" unicode="&#x12e;" horiz-adv-x="1902" 
d="M2241 1337q139 29 133 78q-4 25 -28 25t-105 -103zM492 -819q-106 0 -107 84q0 72 77 170t169 172q-348 4 -520 190q-100 111 -101 266q0 106 47 234q37 94 131 179t150 89q20 0 24 -4q6 -10 -22 -24q-63 -27 -141 -119q-121 -145 -121 -326q0 -137 88 -235
q111 -123 313 -168q90 -21 137 -21q48 0 98 1t132 22q170 43 326 139t266 208q111 112 204 249q160 229 244 455t142 333t85 152q28 45 29 49q-326 -68 -520 -152t-303 -190q-135 -137 -174 -309q-12 -49 -12 -90q0 -85 47 -139t101 -54q55 0 117 25t109 82q66 84 66 198
q0 57 -17 72q-4 6 5 18q20 31 38 0q27 -51 27 -111t-39 -132q-70 -131 -201 -181q-66 -25 -140 -25t-161 68q-86 68 -86 189q0 37 9 80q117 526 1167 704q19 39 67 96t82 69t56 11q68 0 69 -57q0 -61 -47 -92t-110 -51l-86 -19q-98 -182 -199 -516q-129 -418 -399 -733
q-137 -160 -322 -268q-258 -152 -598 -162q-80 -74 -139 -158t-61 -146t59 -63q43 0 104 62q25 11 21 -9q-6 -35 -64 -73t-116 -39z" />
    <glyph glyph-name="iogonek" unicode="&#x12f;" horiz-adv-x="356" 
d="M334 772q-35 0 -53 23t-19 39q0 16 3 36t32 45t63 25t55 -21q19 -22 19 -38t-4 -38q-4 -23 -32 -47t-64 -24zM197 45q39 0 82 39q76 76 192 309q14 31 29 19q4 -4 4 -14t-44 -105q-44 -96 -87 -151q-93 -118 -158 -136q-86 -74 -156 -166q-71 -92 -71 -158t59 -65
q43 0 105 61q14 6 18 4t2 -12q-8 -37 -66 -76t-114 -38q-106 0 -106 82t88 190q89 108 182 172q-61 6 -89 50t-28 98t27 118l131 334q4 12 4 32t-25 54l113 2q47 0 55 -17t-12 -55l-164 -383q-34 -76 -34 -132t63 -56z" />
    <glyph glyph-name="Idotaccent" unicode="&#x130;" horiz-adv-x="1902" 
d="M2271 1741q49 0 49 -62q0 -31 -30 -63t-73 -31q-42 0 -42 41q-1 35 31 75t65 40zM2241 1339q139 29 133 78q-4 25 -28 25t-105 -103zM602 -518q-295 0 -469 129q-172 124 -172 358q0 80 42 190q42 111 136 195t150 88q20 0 24 -4q6 -10 -22 -24q-63 -27 -141 -119
q-121 -145 -121 -326q0 -137 88 -235q111 -123 313 -168q90 -20 137 -20h97q50 1 133 22q169 43 325 139t267 208t204 249q160 229 242 452q143 379 307 662q-326 -68 -520 -152q-403 -174 -477 -499q-12 -49 -12 -90q0 -85 47 -139t101 -54q55 0 117 25t109 82
q66 84 66 198q0 57 -17 72q-4 6 5 18q20 31 38 0q27 -51 27 -111t-39 -132q-70 -131 -201 -181q-66 -25 -140 -25t-161 68q-86 68 -86 189q0 37 9 80q117 526 1167 704q19 39 67 96t82 69t56 11q68 0 69 -57q0 -61 -47 -92t-110 -51l-86 -19q-139 -258 -252 -659
q-39 -139 -119 -311t-190 -314q-408 -522 -1043 -522z" />
    <glyph glyph-name="dotlessi" unicode="&#x131;" horiz-adv-x="356" 
d="M20 150q0 60 31 116l178 340q39 76 51 87t60 12h104q-4 -4 -20 -17q-37 -25 -55 -57q-158 -256 -213 -398q-37 -80 -37 -131q0 -57 65 -57l80 39q82 80 193 309q16 31 28 19q17 -12 -43 -123q-62 -130 -117 -194q-85 -95 -177 -95q-58 0 -93 45t-35 105z" />
    <glyph glyph-name="Jcircumflex" unicode="&#x134;" horiz-adv-x="2043" 
d="M2253 1510q0 5 4 8l305 217q39 6 57 6t21 -6l74 -217q2 -2 2 -8t-18 -5q-18 0 -25 13l-95 145q-243 -131 -270 -145q-14 -12 -34 -12t-21 4zM2515 1423q-4 31 -33 23q-6 -2 -15 -9t-19 -15t-31 -31t-41 -43q141 24 139 75zM541 -819q-170 0 -312 47q-221 74 -303 244
q-37 76 -37 180t56 246q39 94 137 176t154 84q25 2 24 -8q-2 -8 -27 -21q-65 -27 -145 -117t-106 -181t-25 -140q0 -150 80 -240q125 -145 335 -185q116 -22 199 -22q82 0 146 17q387 86 692 444q217 254 410 672q47 100 82 180q203 455 376 731q-285 -47 -579 -205
q-150 -80 -256 -202q-137 -156 -137 -334q0 -95 46 -149t97 -54q50 0 112 23t111 79q78 88 78 205q0 49 -14 66q-25 16 -4 31q23 12 47 -15q20 -45 20 -105t-45 -139q-76 -129 -209 -176q-61 -20 -135 -20q-73 1 -157 69t-85 199q0 166 119 320q90 115 212 191
q330 204 814 269q25 41 74 97t82 64q33 9 53 9q72 0 72 -59q-2 -54 -45 -84t-121 -55l-88 -17q-158 -272 -303 -733q-56 -174 -156 -400q-205 -460 -428 -656q-119 -103 -246 -164q-336 -162 -665 -162z" />
    <glyph glyph-name="jcircumflex" unicode="&#x135;" horiz-adv-x="362" 
d="M428 1020q18 0 21 -6l73 -217q2 -2 2 -7q0 -6 -17 -6t-26 13l-94 145q-243 -131 -270 -145q-15 -13 -35 -13t-21 6q0 5 5 7l305 217q39 6 57 6zM-762 -526q0 -37 29 -59t69 -21q119 0 256 123q193 172 281 336q-340 -90 -424 -127q-133 -57 -188 -170q-23 -45 -23 -82z
M217 632q0 20 -27 54l113 2q47 0 55 -17t-12 -55l-164 -383q-51 -121 -127 -270q80 31 117 47t89 60t90 99q38 56 128 226q15 29 29 21t0 -39q-59 -123 -94 -182q-90 -151 -213 -220q-68 -37 -181 -77q-158 -287 -319 -422q-61 -51 -145 -87t-176 -36t-140 38q-49 38 -49 91
t31 121q53 104 192 168q104 49 276 91t222 56q51 88 60 108t149 306q-33 0 -19 33l109 235q6 12 6 32z" />
    <glyph glyph-name="Kcommaaccent" unicode="&#x136;" horiz-adv-x="2443" 
d="M1683 -436q0 -82 -60 -142t-132 -84q-6 -2 -12 -2t-6 10t16 13q127 43 139 160q-28 -19 -56 -19t-45 23t-13 55t30 52q27 22 62 22t56 -26t21 -62zM2329 1565q0 23 -19 22q-22 0 -46 -19t-81 -87q59 8 90 24q56 27 56 60zM2392 1564q0 -26 -39 -61q-66 -59 -207 -73
q-117 -211 -268 -678q-55 -170 -148 -362q-94 -192 -200 -334q-106 -144 -282 -254q-243 -152 -555 -152q-87 0 -189 22q-375 86 -484 369q-33 86 -32 171q0 85 23 175q24 90 103 161t130 77q27 4 26 -13q0 -10 -12 -16q-49 -22 -129 -120t-80 -264t103 -269
q125 -131 294 -164q117 -23 193 -23t133 17q168 39 314 122t246 176q99 93 191 223q91 130 143 228t185 400t234 503q-31 -3 -237 -21t-357 -61q-281 -78 -399 -299q-89 -165 -42 -307q46 -141 179 -141q168 0 235 174q33 84 33 139t-4 78t6 23q16 -4 29 -27q18 -43 18 -101
t-39 -134q-61 -129 -172 -170q-68 -25 -127 -25q-102 0 -184 74q-111 98 -111 256q0 223 209 374q193 143 557 183q111 12 253 21t182 14q22 39 68 95t80 65t66 9t48 -26q16 -28 16 -54zM1841 573q61 0 227 84q435 220 821 591q230 222 380 450q27 39 45 39q6 0 13 -6
q7 -7 7 -21t-14 -39q-234 -387 -658 -728t-708 -413q-4 -6 -4 -25t4 -65t40 -173q36 -128 83 -236q139 -319 366 -320q131 -1 251 55t173 160q13 29 31 29t-4 -45q-56 -113 -194 -200t-283 -87t-275 107q-225 184 -303 581q-20 117 -20 186q0 70 16 76h6z" />
    <glyph glyph-name="kcommaaccent" unicode="&#x137;" horiz-adv-x="706" 
d="M268 -225q0 -81 -60 -141t-132 -85q-6 -2 -12 -2q-6 -1 -7 9q0 10 17 14q127 43 139 160q-27 -18 -55 -18t-46 22t-14 54t31 54t61 21q34 1 56 -25t22 -63zM690 709q90 0 90 -76q0 -105 -128 -196q-89 -62 -195 -72q-25 -57 -25 -105t10 -88q25 -98 93 -121q14 -4 28 -4
q57 0 135 72q63 70 166 280q14 27 22 18t9 -17q0 -8 -31 -81q-31 -72 -86 -157q-117 -176 -258 -176q-86 0 -133 49q-68 70 -68 182q0 57 31 117t72 63h12q72 -1 140 55t69 101q0 55 -55 55q-82 0 -190 -93t-179 -196q-31 -59 -50 -149t-19 -125t12 -45h-129q-31 0 -16 54
t42 118t67 146q40 83 58 126q-168 -317 -217 -364q-20 -18 -20 12q0 6 4 14q72 94 286 512t300 547q70 100 135 101h12q2 0 36 -6t50 -3q-76 -57 -209 -263t-211 -360t-104 -235q250 310 444 310z" />
    <glyph glyph-name="kgreenlandic" unicode="&#x138;" horiz-adv-x="706" 
d="M692 711q57 0 78 -37q6 -18 6 -41t-20 -47t-42 -25q-22 0 -34 2q-4 37 -57 43q-90 12 -217 -84q-82 -231 -9 -381q45 -92 120 -92t141 70t167 280q15 27 23 18t8 -17t-31 -81q-31 -72 -88 -157q-115 -176 -256 -176q-90 0 -151 51t-75 127q-13 76 -13 121t8 77
q-60 -78 -80 -116t-100 -217q-12 -27 -30 -29t-60 -4q-41 -2 -56 -10q262 563 300 641q38 79 69 107t74 28h6l49 -8l-19 -37q-42 -80 -167 -330q258 324 456 324z" />
    <glyph glyph-name="Lacute" unicode="&#x139;" horiz-adv-x="1527" 
d="M1708 1501q-2 0 -7 3t-5 9t8 18t260 187q53 37 100 13q25 -9 25 -25t-6 -29q-10 -23 -181 -99t-194 -77zM552 86q-106 0 -220 -31q-236 -61 -277 -174q-8 -20 -8 -39q0 -53 58 -87t141 -34t196 54q171 81 316 288q-100 23 -206 23zM1790 1272q-2 72 -72 71
q-102 0 -252 -182q-113 -137 -227 -358q-92 -170 -176 -344q184 41 351 163t272 297q104 175 104 353zM1876 1264q0 -120 -62 -262t-182 -266t-278 -215t-320 -118q-57 -117 -135 -260q406 -100 672 -305q135 -104 182 -256q25 -78 25 -133t-22 -93t-62 -58t-41 2
q0 10 23 60q24 50 24 118t-29 150q-59 165 -322 279q-137 60 -239 86t-272 58q-174 -244 -363 -334q-113 -55 -200 -55t-154 35q-117 57 -117 174t164 212t461 95q106 0 192 -16q39 51 127 233h-22q-129 0 -240 43t-176 115q-86 98 -86 219q0 63 32 137t141 150
q110 76 277 115q28 6 46 6t22 -10q8 -20 -72 -31q-79 -10 -153 -58q-133 -86 -185 -260q-12 -41 -12 -79t14 -91t62 -109q47 -56 128 -79t141 -23t112 6l172 424q188 467 430 570q139 62 236 -19q53 -45 59 -106q2 -24 2 -51z" />
    <glyph glyph-name="lacute" unicode="&#x13a;" horiz-adv-x="434" 
d="M627 1432q-2 0 -7 3t-6 10q0 7 8 20t122 91t143 100q49 37 105 11q22 -9 22 -25t-6 -28q-10 -26 -184 -104t-197 -78zM651 1160q0 40 -14 40q-19 0 -77 -81t-156 -291t-158 -367q105 106 207 268t150 276q48 115 48 155zM172 159q0 -44 20 -82t66 -38q74 0 144 99
t147 253q16 29 31 23q10 -8 4 -22t-26 -57t-28 -61q-10 -18 -38 -70t-70 -99q-98 -109 -205 -109q-63 0 -105 34t-42 109q0 129 49 260q47 170 134 371q148 343 243 440q64 68 124 73t76 -66q2 -12 2 -31q0 -70 -49 -176q-176 -391 -420 -615q-2 -8 -18 -56q-15 -48 -27 -92
t-12 -88z" />
    <glyph glyph-name="Lcommaaccent" unicode="&#x13b;" horiz-adv-x="1527" 
d="M834 -285q0 -82 -60 -141t-133 -84q-6 -2 -12 -2t-6 9t16 14q127 43 139 159q-28 -18 -56 -18t-45 22t-13 55q4 31 30 53t62 22q34 0 56 -26t22 -63zM31 -59q0 -53 58 -87t141 -34t196 53q170 82 315 289q-211 49 -437 -10q-225 -59 -265 -172q-8 -20 -8 -39zM1876 1538
q0 78 -72 78q-104 0 -238 -164t-251 -393q-96 -166 -180 -340q287 63 514 305t227 514zM1962 1536q0 -174 -116 -364t-320 -331q-204 -140 -420 -177q-125 -252 -180 -353l-43 -69q406 -100 671 -305q135 -104 183 -254t3 -229q-22 -38 -50 -52t-41 -14q-12 0 -13 10
q0 10 24 60t23 118q0 182 -135 300q-78 69 -216 129t-239 86t-272 59q-174 -244 -370 -339t-347 -16q-117 57 -116 174q0 117 164 212t460 95q106 0 193 -16q92 143 215 395h-23q-129 0 -239 43t-176 117q-86 96 -86 217q0 63 31 137q32 74 142 150t277 115q27 6 45 6
q19 0 23 -10q9 -20 -72 -31q-80 -10 -156 -60q-131 -84 -182 -258q-12 -41 -12 -79q0 -111 76 -200q47 -56 128 -79t141 -23t112 7l174 421q193 481 440 586q59 27 121 27t116 -45t60 -109q2 -26 2 -51z" />
    <glyph glyph-name="lcommaaccent" unicode="&#x13c;" horiz-adv-x="434" 
d="M246 -195q0 -82 -60 -141t-133 -84q-6 -2 -12 -2t-6 9t16 14q127 43 139 159q-28 -18 -56 -18t-45 22t-13 55q4 31 30 53t62 22q34 0 56 -26t22 -63zM651 1160q0 40 -14 40q-19 0 -77 -81t-156 -291t-158 -367q105 106 207 268t150 276q48 115 48 155zM172 159
q0 -44 20 -82t66 -38q74 0 144 99t147 253q16 29 31 23q10 -8 4 -22t-26 -57t-28 -61q-10 -18 -38 -70t-70 -99q-98 -109 -205 -109q-63 0 -105 34t-42 109q0 129 49 260q47 170 134 371q148 343 243 440q70 74 137 74q47 0 63 -67q2 -12 2 -31q0 -70 -49 -176
q-176 -391 -420 -615q-2 -8 -18 -56q-15 -48 -27 -92t-12 -88z" />
    <glyph glyph-name="Lcaron" unicode="&#x13d;" horiz-adv-x="1527" 
d="M31 -59q0 -53 58 -87t141 -34t196 53q170 82 315 289q-211 49 -437 -10q-225 -59 -265 -172q-8 -20 -8 -39zM1692 1262q0 74 -64 73q-100 0 -244 -190q-96 -125 -190 -311q-63 -102 -147 -277q281 61 463 259t182 446zM1769 1253q-1 -248 -211 -472t-540 -279
q-18 -39 -38 -83t-97 -177q406 -100 671 -305q135 -104 183 -254t3 -229q-22 -38 -50 -52t-41 -14q-12 0 -13 10q0 10 24 60t23 118q0 182 -135 300q-78 69 -216 129t-239 86t-272 59q-174 -244 -370 -339t-347 -16q-117 57 -116 174q0 117 164 212t460 95q106 0 193 -16
q62 96 127 234h-23q-129 0 -239 43t-176 114q-86 98 -86 219q0 64 32 138t141 150q110 76 277 114q27 6 45 6q19 0 23 -10q9 -20 -72 -31q-80 -10 -154 -57q-133 -86 -184 -260q-12 -41 -12 -79q0 -111 76 -201q47 -56 144 -84t237 -11l151 352q216 546 504 551
q55 0 101 -43t49 -84t3 -68zM1819 1741q59 0 59 -73t-45 -116t-104 -61q-12 -6 -15 3q-2 9 12 13q100 31 113 127q-20 -14 -44 -14t-38 17t-11 43q2 26 24 44t49 17z" />
    <glyph glyph-name="lcaron" unicode="&#x13e;" horiz-adv-x="757" 
d="M995 1143q0 -91 -62 -151t-145 -87q-8 -4 -14 -4t-6 10t16 17q61 20 105 66q43 46 51 112q-28 -20 -60 -20t-53 24q-20 26 -15 60t35 59q29 25 67 25t60 -33q21 -33 21 -78zM651 1160q0 40 -14 40q-19 0 -77 -81t-156 -291t-158 -367q105 106 207 268t150 276
q48 115 48 155zM172 159q0 -44 20 -82t66 -38q74 0 144 99t147 253q16 29 31 23q10 -8 4 -22t-26 -57t-28 -61q-10 -18 -38 -70t-70 -99q-98 -109 -205 -109q-63 0 -105 34t-42 109q0 129 49 260q47 170 134 371q148 343 243 440q70 74 137 74q47 0 63 -67q2 -12 2 -31
q0 -70 -49 -176q-176 -391 -420 -615q-2 -8 -18 -56q-15 -48 -27 -92t-12 -88z" />
    <glyph glyph-name="Ldotaccent" unicode="&#x13f;" horiz-adv-x="1818" 
d="M31 -59q0 -53 58 -87t141 -34t196 53q170 82 315 289q-211 49 -437 -10q-225 -59 -265 -172q-8 -20 -8 -39zM1876 1554q0 78 -72 78q-104 0 -238 -164t-240 -369q-108 -206 -191 -380q285 63 513 312t228 523zM1962 1556q0 -178 -116 -372t-320 -339q-204 -144 -420 -181
q-125 -252 -180 -353l-43 -69q406 -100 671 -305q135 -104 183 -254t3 -229q-22 -38 -50 -52t-41 -14q-12 0 -13 10q0 10 24 60t23 118q0 182 -135 300q-78 69 -216 129t-239 86t-272 59q-174 -244 -370 -339t-347 -16q-117 57 -116 174q0 117 164 212t460 95q106 0 193 -16
q92 143 215 395h-23q-129 0 -239 43t-176 117q-86 96 -86 217q0 63 31 137q32 74 142 150t277 115q27 6 45 6q19 0 23 -10q9 -20 -72 -31q-80 -10 -156 -60q-131 -84 -182 -258q-12 -41 -12 -79q0 -111 76 -200q47 -56 128 -79t141 -23t112 7l174 438q180 463 430 569
q66 27 128 27q63 0 119 -40t60 -97q2 -25 2 -48zM1356 418q-35 0 -56 24q-20 25 -14 60q4 36 34 60t64 24t56 -25q20 -25 14 -59t-34 -60q-28 -24 -64 -24z" />
    <glyph glyph-name="Lslash" unicode="&#x141;" horiz-adv-x="1527" 
d="M31 -57q0 -53 58 -87t141 -34t196 53q170 82 315 289q-211 49 -437 -10q-225 -59 -265 -172q-8 -20 -8 -39zM1876 1556q0 78 -72 78q-104 0 -238 -164t-240 -369q-108 -206 -191 -380q285 63 513 312t228 523zM997 657q-129 0 -239 43t-176 115q-86 98 -86 219
q0 63 31 137q32 74 142 150t277 115q27 6 45 6q19 0 23 -10q9 -20 -72 -31q-80 -10 -156 -58q-131 -86 -182 -260q-12 -41 -12 -79q0 -112 76 -200q47 -56 128 -79t141 -23t112 7l174 438q193 475 442 571q59 23 121 23t114 -42q54 -42 59 -85t5 -78q0 -166 -113 -355
t-320 -334q-208 -144 -425 -181l-74 -154q123 0 295 -4q35 -2 43 -27q-4 -25 -35 -28q-129 0 -340 -11l-69 -129l-43 -69q406 -100 671 -305q135 -104 182 -254t4 -229q-22 -38 -50 -52t-41 -14q-12 0 -13 10q0 10 24 60t23 118q0 182 -135 300q-78 69 -216 129t-239 86
t-272 59q-174 -244 -370 -339t-347 -16q-117 57 -116 174q0 117 164 212t460 96q106 0 193 -17q49 78 102 176q-193 -10 -284 -20q-14 -2 -27 22q-12 24 -6 50t33 26l325 -2q25 43 72 143h-23z" />
    <glyph glyph-name="lslash" unicode="&#x142;" horiz-adv-x="434" 
d="M651 1159q0 41 -14 41q-20 0 -68 -67q-123 -174 -315 -648q12 2 22 9q205 222 342 546q33 78 33 119zM172 159q0 -44 20 -82t66 -38q74 0 144 99t147 253q16 29 31 23q10 -8 4 -22t-26 -57t-28 -61q-10 -18 -38 -70t-70 -99q-98 -109 -200 -109q-58 0 -91 16
q-51 27 -63 121q-2 10 -2 51t45 189l-95 -43q-10 -6 -12 6t-2 33t29 30l98 39q111 367 301 684q96 162 203 162q47 0 63 -67q2 -12 2 -31q0 -70 -49 -176q-131 -297 -299 -490l135 49q20 8 23 -8q-2 -18 -25 -31l-196 -79q-18 -18 -58 -56q-2 -8 -18 -56q-15 -48 -27 -92
t-12 -88z" />
    <glyph glyph-name="Nacute" unicode="&#x143;" horiz-adv-x="2127" 
d="M1968 1511q-16 0 -16 15q0 4 6 14t114 85q107 75 145 102t83 4q22 -11 22 -25t-8 -30t-169 -91q-161 -74 -177 -74zM2159 1268q0 80 -93 80q-61 0 -141 -41q-391 -190 -713 -787q-168 -311 -297 -602q-25 -53 -90 -53t-67 33q-2 4 0 10q92 135 257 499t224 633
q20 90 21 148q0 158 -89 217q-53 35 -127 35q-178 0 -401 -142q-291 -180 -420 -473q-68 -154 -67 -280q0 -70 20 -131q53 -158 217 -158q199 0 346 168q115 129 115 247t-109 128q-25 2 -49 -1t-26 4q-4 7 2 15q16 23 114 23t129 -88q10 -31 11 -66q0 -86 -68 -194
q-111 -180 -303 -244q-82 -29 -186 -29t-198 78q-93 78 -122 219q-6 35 -6 76q0 116 61 266t203 289q268 264 574 330q82 18 144 18t105 -8q118 -15 178 -101t60 -202t-45 -240q-15 -35 -29 -79q-15 -44 -90 -195l-49 -117q2 2 27 41q113 193 284 397q248 303 459 399t328 9
q55 -41 55 -139t-63 -240t-185 -364q-122 -220 -204 -401t-82 -323q0 -49 14 -90q27 -84 100 -84q43 0 88 20t68 21q22 -1 22 -25t-36 -44t-60 -21q-305 0 -305 258q0 97 33 197t247 550t214 554z" />
    <glyph glyph-name="nacute" unicode="&#x144;" 
d="M541 846q-2 0 -7 3t-6 10q0 7 9 20t122 92q113 77 142 99t57 22t48 -10q22 -10 22 -26q0 -15 -6 -28q-10 -26 -184 -104t-197 -78zM483 94q0 -53 39 -53q104 0 281 354q12 29 27 21t1 -39q-109 -219 -183 -302t-150 -83q-74 0 -113 57q-20 27 -20 73t20 112t113 212
q23 37 22 59q0 21 -35 21t-133 -92q-147 -135 -284 -405q-12 -19 -28 -25t-60 -8q-45 -2 -60 -10q33 66 167 346t187 332q25 25 68 24q8 0 42 -6t50 -2q-76 -41 -248 -385q96 119 175 189t190 131q111 60 162 61q12 0 22 -4q-252 -442 -252 -578z" />
    <glyph glyph-name="Ncommaaccent" unicode="&#x145;" horiz-adv-x="2127" 
d="M1565 -285q-1 -82 -61 -141t-132 -84q-6 -2 -12 -2t-6 9t16 14q127 43 139 159q-27 -18 -55 -18t-46 22q-17 22 -13 55q5 31 31 53t61 22t57 -26t21 -63zM866 743q0 131 -137 131q-15 0 -35 -2t-25 6t3 15q18 25 122 25t136 -91q14 -35 14 -73q0 -88 -65 -201
q-111 -184 -306 -262q-100 -41 -222 -41t-221 83t-130 234q-6 39 -6 84q0 123 65 286q66 163 220 312q291 287 614 355q90 18 158 18t114 -6q127 -18 199 -121q57 -80 57 -197q-1 -118 -25 -192t-32 -98t-30 -72q-22 -50 -28 -64t-62 -136t-52 -126l63 103q125 193 271 368
q270 328 493 431t354 9q60 -45 60 -151t-68 -259q-67 -153 -197 -391t-220 -432t-90 -345q0 -53 14 -97q29 -94 110 -94q46 0 94 23q98 46 97 -4q0 -27 -39 -49t-63 -21q-328 0 -328 285q0 104 36 210t266 591q230 484 230 593q0 86 -100 86q-68 0 -154 -45
q-322 -154 -612 -587q-172 -256 -391 -728q-80 -172 -84 -180q-29 -59 -115 -59q-51 0 -55 33q-2 6 0 14q98 146 275 538q260 577 264 854q0 75 -21 128q-43 109 -145 125q-31 4 -86 4t-165 -32t-247 -118q-309 -193 -449 -502q-76 -168 -75 -309q0 -72 18 -135
q68 -170 238 -178q211 0 368 176q127 141 127 278z" />
    <glyph glyph-name="ncommaaccent" unicode="&#x146;" 
d="M313 -201q0 -82 -60 -141t-132 -84q-6 -2 -12 -2t-7 8q0 10 17 14q127 43 139 160q-28 -18 -56 -18t-45 22t-14 55q4 31 31 53t62 22t56 -26t21 -63zM483 94q0 -53 39 -53q104 0 281 354q12 29 24 23q23 -11 4 -41q-109 -219 -183 -302t-150 -83q-74 0 -113 57
q-20 27 -20 73t20 112t113 212q23 37 22 59q0 21 -35 21t-133 -92q-147 -135 -284 -405q-12 -19 -28 -25t-60 -8q-45 -2 -60 -10q33 66 167 346t187 332q25 25 68 24q8 0 42 -6t50 -2q-76 -41 -248 -385q96 119 175 189t190 131q111 60 162 61q12 0 22 -4
q-252 -442 -252 -578z" />
    <glyph glyph-name="Ncaron" unicode="&#x147;" horiz-adv-x="2127" 
d="M2159 1268q0 80 -93 80q-61 0 -141 -41q-391 -190 -713 -787q-168 -311 -297 -602q-25 -53 -90 -53t-67 33q-2 4 0 10q92 135 257 499t224 633q20 90 21 148q0 158 -89 217q-53 35 -127 35q-178 0 -401 -142q-291 -180 -420 -473q-68 -154 -67 -280q0 -70 20 -131
q53 -158 217 -158q199 0 346 168q115 129 115 247t-109 128q-25 2 -49 -1t-26 4q-4 7 2 15q16 23 114 23t129 -88q10 -31 11 -66q0 -86 -68 -194q-111 -180 -303 -244q-82 -29 -186 -29t-198 78q-93 78 -122 219q-6 35 -6 76q0 116 61 266t203 289q268 264 574 330
q82 18 144 18t105 -8q118 -15 178 -101t60 -202t-45 -240q-15 -35 -29 -79q-15 -44 -90 -195l-49 -117q2 2 27 41q113 193 284 397q248 303 459 399t328 9q55 -41 55 -139t-63 -240t-185 -364q-122 -220 -204 -401t-82 -323q0 -49 14 -90q27 -84 100 -84q43 0 88 20t68 21
q22 -1 22 -25t-36 -44t-60 -21q-305 0 -305 258q0 97 33 197t247 550t214 554zM2062 1495q-18 0 -20 6l-74 217q-6 12 12 13h12q11 0 17 -13l94 -145q244 131 271 145q14 12 34 12t21 -5q0 -5 -4 -7l-305 -217q-40 -6 -58 -6z" />
    <glyph glyph-name="ncaron" unicode="&#x148;" 
d="M944 1112q20 0 21 -5q0 -5 -4 -7l-306 -217q-37 -6 -57 -6t-20 6l-74 217q-2 2 -2 7t18 5t25 -12l94 -146q243 132 270 146q15 12 35 12zM483 94q0 -53 39 -53q104 0 281 354q12 29 27 21t1 -39q-109 -219 -183 -302t-150 -83q-74 0 -113 57q-20 27 -20 73t20 112
t113 212q23 37 22 59q0 21 -35 21t-133 -92q-147 -135 -284 -405q-12 -19 -28 -25t-60 -8q-45 -2 -60 -10q33 66 167 346t187 332q25 25 68 24q8 0 42 -6t50 -2q-76 -41 -248 -385q96 119 175 189t190 131q111 60 162 61q12 0 22 -4q-252 -442 -252 -578z" />
    <glyph glyph-name="Eng" unicode="&#x14a;" horiz-adv-x="2127" 
d="M2193 1329q0 137 -114 137q-66 0 -146 -45q-416 -211 -712 -964q-68 -168 -126 -338t-67 -193q-20 -59 -108 -59q-53 0 -60 35q-2 6 0 12q82 145 228 594t147 746q0 69 -29 153q-53 158 -241 158t-412 -152q-285 -190 -389 -500q-43 -131 -43 -241t39 -203
q82 -176 260 -180q209 0 346 174q96 123 96 246q0 145 -123 163q-14 2 -31 2q-18 0 -36 -2t-24 6t-1 15q17 25 121 25t150 -93q55 -112 -26 -282t-259 -248q-100 -45 -224 -45t-234 83t-159 234q-20 68 -20 157t33 206q49 170 183 320t284 237q233 135 460 135q49 0 99 -6
q129 -18 214 -122t85 -270q0 -168 -72 -370q-6 -14 -21 -61t-37 -109t-22 -74q0 -6 25 49l26 54q109 203 228 368q231 328 441 431t351 8q82 -55 82 -189q0 -203 -181 -737t-300 -770q-289 -561 -696 -631q-76 -12 -169 -12t-194 35q-162 55 -237 198q-45 86 -46 175
q0 207 104 319q62 68 102 69q40 2 1 -24q-43 -20 -92 -96q-67 -97 -67 -233t75 -226q102 -115 238 -143q95 -23 155 -23t105 14q176 45 328 185q109 100 239 344q82 150 160 367t144 404q65 186 117 416t52 367z" />
    <glyph glyph-name="eng" unicode="&#x14b;" 
d="M-408 -444q-50 -98 7 -141q29 -22 69 -21q119 0 256 123q193 172 281 336q-340 -90 -424 -127q-134 -57 -189 -170zM483 94q0 -53 39 -53q104 0 281 354q12 29 24 23q23 -11 4 -41q-109 -219 -183 -302t-154 -83q-49 0 -84 26q-53 -98 -162 -294q-250 -371 -531 -371
q-96 0 -145 38t-49 91t31 121q53 104 192 168q104 49 276 91t222 56q51 88 65 119l58 117q10 53 24 99t107 193q23 37 22 59q0 21 -35 21t-133 -92q-147 -135 -284 -405q-12 -19 -28 -25t-60 -8q-45 -2 -60 -10q33 66 167 346t187 332q25 25 68 24q8 0 42 -6t50 -2
q-76 -41 -248 -385q96 119 175 189t190 131q111 60 162 61q12 0 22 -4q-252 -442 -252 -578z" />
    <glyph glyph-name="Omacron" unicode="&#x14c;" horiz-adv-x="1579" 
d="M1370 1741l-24 -62h-439l27 62h436zM662 -76q92 0 178 39q180 82 323 256t217 383q29 83 37 146q-342 -182 -721 -183q-184 0 -323 56q-63 -166 -64 -287q0 -283 170 -367q91 -43 183 -43zM1434 928q0 346 -222 512q-147 111 -344 110q-57 0 -116 -10q-250 -37 -408 -207
q-133 -147 -133 -321t88 -250q80 170 243 352q204 227 430 232q48 0 111 -39q13 -9 15 -17t-8 -12t-30 3t-70 7q-48 0 -138 -49t-182 -154q-182 -207 -267 -393q129 -59 310 -59q372 0 717 186q4 56 4 109zM100 997q0 246 218 417t526 171t509 -171q202 -171 201 -488v-41
q205 135 267 258q10 23 26 19t17 -13q0 -10 -13 -29q-121 -190 -305 -307q-8 -96 -52 -231q-44 -136 -148 -280t-244 -253q-227 -174 -467 -174t-352 182q-80 133 -80 296t59 325q-162 109 -162 319z" />
    <glyph glyph-name="omacron" unicode="&#x14d;" 
d="M786 903l-24 -61h-438l26 61h436zM512 653q-55 1 -131 -73q-75 -74 -141 -211t-66 -231t72 -95q51 0 114 55q-33 47 -32 101q4 88 71 88q27 0 47 -22t11 -62q35 51 83 150t48 199t-76 101zM489 717q150 0 150 -189q0 -86 -45 -184q-57 -133 -172 -242q27 -51 89 -51
q61 0 117 59t91 122t58 113t27 59q4 8 20 10q15 2 16 -15q0 -6 -4 -14l-13 -29q-12 -29 -18 -41l-22 -44q-52 -111 -124 -183q-73 -72 -151 -72t-125 54q-94 -70 -174 -70q-150 0 -150 188q0 86 45 185q61 143 173 243t212 101z" />
    <glyph glyph-name="Ohungarumlaut" unicode="&#x150;" horiz-adv-x="1579" 
d="M1468 1694q27 0 27 -23t-47 -131t-53 -110q-5 -2 -13 -2t-8 14l33 188q12 51 49 62q6 2 12 2zM666 461q-184 0 -324 55q-63 -166 -63 -287q0 -283 170 -366q92 -43 183 -43t179 41q178 80 322 254q143 174 217 383q28 82 36 145q-342 -182 -720 -182zM1403 823
q0 346 -221 512q-147 111 -344 111q-57 0 -117 -10q-250 -37 -408 -207q-133 -147 -133 -321t88 -251q80 170 243 352q208 232 430 232q48 0 112 -39q14 -8 15 -16t-9 -12q-11 -4 -31 3t-68 7t-139 -49q-90 -49 -182 -154q-182 -207 -266 -393q129 -59 309 -60q80 0 170 13
q293 37 547 174q4 55 4 108zM70 893q0 246 218 417t525 171t509 -171t202 -489v-41q205 135 266 258q10 23 26 20q16 -4 17 -14q0 -10 -12 -28q-121 -190 -305 -307q-8 -95 -52 -231t-150 -280q-104 -144 -245 -253q-225 -174 -465 -174t-350 182q-82 133 -82 296t59 324
q-161 108 -161 320zM1300 1718q0 -22 -47 -130t-57 -113q-12 -2 -15 6t5 50t17 89t9 57q12 51 50 62q8 2 12 2q26 0 26 -23z" />
    <glyph glyph-name="ohungarumlaut" unicode="&#x151;" 
d="M662 854q-14 0 -15 13q1 36 21 128t22 103q10 78 78 78q14 0 27 -23q7 -17 -55 -155t-69 -141t-9 -3zM422 854q-14 0 -14 16l41 228q15 78 81 78q14 0 22 -20t-52 -158t-68 -141t-10 -3zM512 653q-55 1 -131 -73q-75 -74 -141 -211t-66 -231t72 -95q51 0 114 55
q-33 47 -32 101q4 88 71 88q27 0 47 -22t11 -62q35 51 83 150t48 199t-76 101zM489 717q150 0 150 -189q0 -86 -45 -184q-57 -133 -172 -242q27 -51 89 -51q61 0 117 59t91 122t58 113t27 59q4 8 20 10q15 2 16 -15q0 -6 -4 -14l-13 -29q-12 -29 -18 -41l-22 -44
q-52 -111 -124 -183q-73 -72 -151 -72t-125 54q-94 -70 -174 -70q-150 0 -150 188q0 86 45 185q61 143 173 243t212 101z" />
    <glyph glyph-name="OE" unicode="&#x152;" horiz-adv-x="3057" 
d="M1942 807q-147 51 -228 141q-70 -74 -168 -135q-2 -59 -22 -131q195 113 418 125zM670 -78q100 0 211 62q209 111 362 344q31 123 115 219q47 107 59 201q-342 -182 -721 -183q-184 0 -323 56q-63 -166 -64 -287q0 -283 170 -367q91 -45 191 -45zM1434 928
q0 346 -222 512q-147 111 -344 110q-57 0 -116 -10q-250 -37 -408 -207q-133 -147 -133 -321t88 -250q80 170 243 352q204 227 430 232q48 0 111 -39q13 -9 15 -17t-8 -12t-30 3t-70 7q-48 0 -138 -49t-182 -154q-182 -207 -267 -393q129 -59 310 -59q372 0 717 186
q4 56 4 109zM100 997q0 246 218 417t526 171t509 -171q202 -171 201 -488v-41q74 51 134 98q-31 45 -31 98q0 175 172 317t369 195t339 54q49 0 95 -5q182 -20 270 -91t88 -157t-100 -173q-100 -88 -258 -123q-39 -8 -63 -8t-25 10q-6 27 64 35t129 53q58 45 89 108
q31 62 31 124q-1 62 -67 118t-222 55q-156 0 -316 -48t-289 -160q-130 -112 -144 -244l2 2q9 23 31 19t-1 -42l-32 -47q10 -74 66 -122t128 -68q72 -19 143 -35q72 -16 116 -40t40 -63q-8 -36 -88 -36l-235 2q-289 1 -444 -143t-154 -339q0 -252 239 -358q127 -55 336 -55
t441 88t384 215t152 231q0 56 -59 70t-63 31q-3 16 27 13t54 -15q111 -55 111 -148q0 -117 -154 -247q-153 -130 -405 -209t-540 -79t-467 116t-208 292q-168 -176 -371 -256q-111 -45 -210 -45t-185 29q-117 36 -193 162t-77 289q0 163 59 325q-162 109 -162 319z" />
    <glyph glyph-name="oe" unicode="&#x153;" horiz-adv-x="925" 
d="M244 43q51 0 121 63t127 156q23 113 86 217q8 45 8 78q0 96 -74 96q-55 1 -131 -73q-75 -74 -141 -211t-66 -231t70 -95zM973 643q0 41 -33 41q-57 0 -174 -141q-53 -61 -125 -193q37 0 103 25t116 65q113 97 113 203zM600 174q0 -139 98 -139q186 0 338 350q14 33 35 29
q6 -2 6 -10t-4 -21q-86 -188 -133 -250q-106 -141 -260 -141q-78 0 -134 49t-61 135q-150 -176 -278 -176q-147 0 -148 188q0 86 45 185q62 143 174 243t211 101q68 0 105 -42t43 -112q78 102 186 148q45 18 88 18t82 -24q35 -29 35 -64q0 -123 -149 -235q-45 -35 -126 -63
t-124 -28q-29 -70 -29 -141z" />
    <glyph glyph-name="Racute" unicode="&#x154;" horiz-adv-x="2097" 
d="M1710 1511q-16 0 -16 13q0 6 4 14t114 85t134 97q26 20 52 20t42 -9q35 -14 18 -52q-10 -23 -170 -95q-162 -72 -178 -73zM1296 715q44 0 217 24q221 29 375 172q109 106 109 205q0 129 -172 182q-39 10 -187 37q-23 -39 -162 -264t-202 -356h22zM383 -125
q-254 0 -311 141q-14 33 -15 76q0 43 47 94q72 74 191 74q82 0 176 -33q31 -12 16 -24q-10 -4 -28 0q-151 60 -231 -23q-44 -47 -44 -85t11 -64q37 -96 180 -97q82 0 168 36q87 36 155 92t147 160t128 186q64 107 257 452t318 486q-106 10 -213 10q-247 0 -485 -50
t-379 -167q-176 -145 -176 -312q0 -80 56 -141t164 -61q107 0 185 83t81 121t14 35q12 -4 12 -28q-12 -88 -74 -154q-104 -111 -254 -111q-115 0 -197 76t-81 203q0 190 183 340t482 192q211 31 391 31t334 -22q49 55 68 55q12 0 10 -23l-8 -41q164 -31 188 -36
q285 -82 285 -256q0 -119 -149 -232q-235 -174 -631 -192q27 -158 86 -314q102 -270 221 -368q39 -35 99 -35t140 81q81 81 173 275q18 29 31 27t1 -27q-109 -246 -195 -341q-86 -96 -198 -96q-111 0 -213 109t-171 310t-95 356q-59 -119 -94 -185t-102 -163
q-67 -98 -138 -178q-127 -135 -261 -189t-255 -53z" />
    <glyph glyph-name="racute" unicode="&#x155;" horiz-adv-x="532" 
d="M412 1024q-2 0 -8 3q-5 3 -5 10t8 20t122 91t143 100q28 22 56 22t50 -10t21 -26q0 -16 -6 -28q-10 -26 -184 -104t-197 -78zM391 821q0 -92 -117 -174q41 -2 110 -2t173 10q4 -7 4 -33q0 -40 -76 -186q-76 -147 -104 -227q-51 -156 16 -156q86 0 254 342q15 27 27 19
t-2 -39q-45 -91 -76 -149q-30 -58 -102 -143t-148 -85t-106 96q-6 18 -6 56q0 78 98 247q51 87 57 103t6 30q0 63 -163 68l-25 -66q-129 -338 -248 -452q-20 -18 -20 12q0 6 4 14q115 152 198 359q84 207 117 393q12 63 57 64q45 0 66 -58q6 -18 6 -43z" />
    <glyph glyph-name="Rcommaaccent" unicode="&#x156;" horiz-adv-x="2097" 
d="M1157 -221q0 -82 -60 -141t-132 -84q-6 -2 -13 -3q-6 -1 -6 9t17 14q127 43 139 160q-28 -18 -56 -18t-46 22q-17 22 -13 54t31 54q28 22 62 21q34 1 56 -25t21 -63zM2128 1257q0 140 -186 197q-49 14 -201 39q-37 -63 -180 -297t-213 -371q45 7 132 15t126 12
q233 29 397 182q125 114 125 223zM1822 -84q-120 0 -231 116t-185 330t-101 386q-66 -131 -103 -200q-36 -69 -108 -175t-150 -193q-242 -260 -532 -260t-359 150q-16 35 -16 81t47 99q76 84 209 84q90 0 190 -35q27 -11 21 -23t-53 6t-114 19q-67 0 -115 -51t-48 -107
q0 -25 10 -53q41 -106 201 -106t289 100q74 56 133 116t146 187t162 259t162 289t128 228q131 223 240 342q-115 10 -230 11q-262 0 -521 -54t-411 -180q-190 -158 -190 -336q0 -86 61 -152t177 -67q116 0 200 90t88 144q2 27 12 26q16 0 15 -31q-14 -98 -80 -165
q-115 -119 -274 -119q-121 0 -210 82t-89 219q-1 203 197 363t519 208q229 33 423 33t358 -23q53 57 73 58q13 0 13 -20t-11 -48q152 -25 203 -39q307 -90 307 -278q0 -121 -149 -240q-249 -192 -692 -215q66 -362 227 -610q55 -84 101 -122t110 -38q147 0 338 381
q16 31 32 31t3 -31q-119 -267 -211 -367t-212 -100z" />
    <glyph glyph-name="rcommaaccent" unicode="&#x157;" horiz-adv-x="532" 
d="M213 -182q0 -82 -60 -142t-133 -84q-6 -2 -12 -2t-6 10t16 13q127 43 140 160q-27 -19 -56 -19t-46 23t-13 55t31 52q28 22 62 22t56 -26t21 -62zM391 821q0 -92 -117 -174q41 -2 110 -2t173 10q4 -7 4 -33q0 -40 -76 -186q-76 -147 -104 -227q-51 -156 16 -156
q86 0 254 342q13 27 23 21t10 -17t-84 -174q-30 -57 -102 -142t-148 -85t-106 96q-6 18 -6 56q0 78 98 247q51 87 57 103t6 30q0 63 -163 68l-25 -66q-129 -338 -248 -452q-20 -18 -20 12q0 6 4 14q115 152 198 359q84 207 117 393q12 63 57 64q45 0 66 -58q6 -18 6 -43z
" />
    <glyph glyph-name="Rcaron" unicode="&#x158;" horiz-adv-x="2097" 
d="M1296 715q44 0 217 24q221 29 375 172q109 106 109 205q0 129 -172 182q-39 10 -187 37q-23 -39 -162 -264t-202 -356h22zM383 -125q-254 0 -311 141q-14 33 -15 76q0 43 47 94q72 74 191 74q82 0 176 -33q31 -12 16 -24q-10 -4 -28 0q-151 60 -231 -23q-44 -47 -44 -85
t11 -64q37 -96 180 -97q82 0 168 36q87 36 155 92t147 160t128 186q64 107 257 452t318 486q-106 10 -213 10q-247 0 -485 -50t-379 -167q-176 -145 -176 -312q0 -80 56 -141t164 -61q107 0 185 83t81 121t14 35q12 -4 12 -28q-12 -88 -74 -154q-104 -111 -254 -111
q-115 0 -197 76t-81 203q0 190 183 340t482 192q211 31 391 31t334 -22q49 55 68 55q12 0 10 -23l-8 -41q164 -31 188 -36q285 -82 285 -256q0 -119 -149 -232q-235 -174 -631 -192q27 -158 86 -314q102 -270 221 -368q39 -35 99 -35t140 81q81 81 173 275q18 29 31 27
t1 -27q-109 -246 -195 -341q-86 -96 -198 -96q-111 0 -213 109t-171 310t-95 356q-59 -119 -94 -185t-102 -163q-67 -98 -138 -178q-127 -135 -261 -189t-255 -53zM1839 1503q-20 0 -20 6l-74 217q-6 12 12 13h11q11 0 18 -13l94 -145q243 131 270 145q14 12 34 12t22 -4
q0 -5 -4 -8l-306 -217q-37 -6 -57 -6z" />
    <glyph glyph-name="rcaron" unicode="&#x159;" horiz-adv-x="532" 
d="M852 1300q20 0 20 -5t-4 -7l-305 -217q-39 -6 -57 -6t-21 6l-73 217q-2 2 -2 7t18 5t25 -12l94 -145q243 131 270 145q15 12 35 12zM391 821q0 -92 -117 -174q41 -2 110 -2t173 10q4 -7 4 -33q0 -40 -76 -186q-76 -147 -104 -227q-51 -156 16 -156q86 0 254 342
q15 27 27 19t-2 -39q-45 -91 -76 -149q-30 -58 -102 -143t-148 -85t-106 96q-6 18 -6 56q0 78 98 247q51 87 57 103t6 30q0 63 -163 68l-25 -66q-129 -338 -248 -452q-20 -18 -20 12q0 6 4 14q115 152 198 359q84 207 117 393q12 63 57 64q45 0 66 -58q6 -18 6 -43z" />
    <glyph glyph-name="Sacute" unicode="&#x15a;" horiz-adv-x="1845" 
d="M1508 1538q-14 0 -13 14q0 4 4 11t100 75q97 68 119 84t45 17q57 0 58 -35q0 -8 -4 -16q-11 -20 -153 -85t-156 -65zM1804 1225q0 70 -65 131q-89 86 -237 86t-294 -52t-210 -124q-65 -72 -64 -148q0 -119 143 -207q53 -33 220 -107t245 -124q209 -129 209 -315
q0 -152 -164 -326q-96 -103 -251 -195t-386 -127q-118 -20 -228 -20q-362 0 -572 180q-164 141 -164 361q0 139 101 307t249 237q31 12 46 8t-26 -38q-88 -70 -141 -154q-115 -180 -115 -391q0 -139 78 -244q161 -215 599 -215q77 0 209 28t255 91q260 137 332 350
q20 63 20 119q0 139 -125 242q-63 51 -264 137t-268 131q-150 98 -150 235q0 109 88 204t234 149q168 57 350 57t283 -47q106 -53 131 -154q4 -23 4 -41q0 -78 -61 -128t-121 -65t-60 5q-2 23 49 29q121 13 121 135z" />
    <glyph glyph-name="sacute" unicode="&#x15b;" horiz-adv-x="524" 
d="M346 934q-2 0 -7 3t-5 10t8 20t122 92q113 77 142 99t57 22t55 -13t9 -51q-10 -26 -184 -104t-197 -78zM68 109q0 -82 77 -82q25 0 41 8q-76 47 -82 153q-36 -36 -36 -79zM311 279q0 63 -14 174t-14 149t2 53q-156 -311 -193 -379q43 0 43 -61q0 -121 86 -162
q90 70 90 226zM328 35q82 0 161 96q43 53 154 268q4 9 14 11q31 5 3 -55q-92 -200 -144 -244l-43 -45q-35 -35 -97 -55t-132 1q-47 -20 -84 -20q-145 0 -176 114q-6 27 -7 65q0 38 26 73t54 37q105 199 183 365t186 167q28 0 56 -13q28 -14 21 -30t-30 -6t-39 10t-28 -6
q-70 -33 -70 -141q0 -57 16 -95t50 -111q34 -74 34 -142q0 -67 -43 -133t-102 -107q27 -4 37 -4z" />
    <glyph glyph-name="Scircumflex" unicode="&#x15c;" horiz-adv-x="1845" 
d="M1707 1741q15 0 15 -4l60 -174q4 -7 -3 -9t-17 -2t-13 11l-76 116q-195 -106 -215 -116q-12 -11 -27 -11t-16 4q0 4 2 7l244 174q31 4 46 4zM1767 1235q0 72 -63 131q-86 82 -223 82t-299 -59q-84 -33 -144 -86q-94 -86 -94 -173q0 -117 137 -204q51 -33 208 -108
t248 -133t132 -135q41 -76 41 -156t-59 -179q-102 -170 -316 -303q-125 -78 -272 -116t-283 -38q-403 0 -583 224q-100 125 -101 273q0 148 92 308t226 225q29 12 43 8t-25 -36q-84 -70 -127 -146q-104 -168 -104 -352t106 -293q159 -157 439 -157t485 110q240 131 309 330
q23 59 23 117q0 127 -113 227q-62 51 -250 135t-252 129q-139 98 -139 232q0 108 83 202q82 94 228 148t318 55q346 0 391 -199q4 -20 4 -41q0 -74 -66 -133q-53 -41 -106 -56t-55 5q0 23 47 29q90 10 108 94q6 21 6 39z" />
    <glyph glyph-name="scircumflex" unicode="&#x15d;" horiz-adv-x="524" 
d="M68 109q0 -82 77 -82q25 0 41 8q-76 47 -82 153q-36 -36 -36 -79zM311 279q0 63 -14 174t-14 149t2 53q-156 -311 -193 -379q43 0 43 -61q0 -121 86 -162q90 70 90 226zM328 35q82 0 161 96q43 53 154 268q4 10 14 11q18 2 19 -15q0 -4 -9 -23t-30 -68t-59 -111t-62 -82
l-43 -45q-35 -35 -97 -55t-132 1q-47 -20 -84 -20q-145 0 -176 114q-6 27 -7 65q0 38 26 73t54 37q105 199 183 365t188 167q25 0 43 -8l-88 137q-244 -131 -270 -145q-20 -18 -50 -11q-10 4 -2 11l306 217q39 6 57 6t20 -6l74 -217q4 -16 -20 -13q8 -14 0 -21t-28 2t-36 9
t-28 -6q-70 -33 -70 -141q0 -57 16 -95t50 -111q34 -74 34 -142q0 -67 -43 -133t-102 -107q27 -4 37 -4z" />
    <glyph glyph-name="Scedilla" unicode="&#x15e;" horiz-adv-x="1845" 
d="M926 -417q0 -81 -107 -152q-53 -35 -138 -35t-180 24t-95 70q0 14 10 14t33 -22q49 -51 187 -51t185 73q29 44 29 92t-47 78t-99 31q-52 -1 -102 -25q-49 -24 -58 -24t-22 9q-12 9 -12 21t13 25q13 14 136 105q-274 16 -461 147t-202 369v22q0 140 101 308t249 237
q31 12 46 8t-25 -39q-88 -70 -142 -153q-115 -180 -114 -391q0 -139 77 -244q161 -215 599 -215q77 -1 209 27t255 92q264 139 342 360q25 66 25 127q0 139 -125 246q-67 53 -275 142t-280 136q-158 107 -158 243t142 257q203 172 573 172q174 0 284 -52q138 -65 138 -198
q0 -80 -74 -143q-51 -41 -137 -66q-37 -10 -41 9q-4 27 51 32q98 12 121 99q6 23 6 43q0 72 -65 135q-94 90 -250 90t-332 -64q-92 -33 -160 -90q-104 -90 -104 -180q0 -121 153 -217q57 -35 231 -114t274 -141t146 -144q46 -84 46 -171t-68 -194q-119 -190 -348 -328
q-139 -83 -307 -121t-326 -38h-45l4 -7q-2 -1 -46 -31t-44 -40q40 6 104 6t142 -39t78 -120z" />
    <glyph glyph-name="scedilla" unicode="&#x15f;" horiz-adv-x="524" 
d="M68 109q0 -82 77 -82q25 0 41 8q-76 47 -82 153q-36 -36 -36 -79zM311 279q0 63 -14 174t-14 149t2 53q-156 -311 -193 -379q43 0 43 -61q0 -121 86 -162q90 70 90 226zM328 35q82 0 161 96q43 53 154 268q4 10 14 11q18 2 19 -15q0 -4 -9 -23t-30 -68t-59 -111t-62 -82
l-43 -45q-35 -35 -97 -55t-132 1q-46 -20 -74 -20t-61 4q2 0 2 -4q-2 -2 -46 -32t-45 -40q40 6 104 6t142 -39t78 -119t-106 -153q-52 -35 -138 -35t-181 24t-95 70q0 35 46 -12t184 -47t186 74q29 43 28 91q0 48 -47 79q-90 59 -201 6q-49 -25 -58 -25t-21 9q-26 20 -2 42
q10 9 65 53t80 58q-45 14 -75 52q-29 38 -29 101t26 94q26 30 51 32q105 199 183 365t186 167q28 0 56 -13q28 -14 21 -30t-30 -6t-39 10t-28 -6q-70 -33 -70 -141q0 -57 16 -95t50 -111q34 -74 34 -142q0 -67 -43 -133t-102 -107q27 -4 37 -4z" />
    <glyph glyph-name="Scaron" unicode="&#x160;" horiz-adv-x="1845" 
d="M1702 1272q0 70 -66 129q-88 82 -228 82t-282 -51t-203 -119q-62 -68 -63 -142q0 -117 139 -200q51 -31 212 -105t255 -132t137 -136q42 -76 42 -156t-62 -182q-109 -174 -321 -303q-248 -147 -588 -147t-535 170q-150 131 -149 331q0 129 93 285t230 221q29 10 43 7
t-22 -36q-88 -70 -131 -143q-107 -164 -107 -344t111 -287q163 -156 453 -156t495 109q244 129 315 332q23 63 23 119q0 129 -115 229q-61 51 -256 133t-258 125q-145 97 -145 225t129 240q184 160 534 160q160 0 260 -49q129 -61 130 -185q0 -72 -60 -122t-114 -65t-58 1
t14 22t31 9q92 10 113 94q4 19 4 37zM2016 1739q19 0 20 -4q0 -4 -4 -6l-277 -197q-35 -4 -51 -4t-18 4l-68 197q-4 8 4 9t16 1t17 -10l86 -132q219 120 244 132q12 10 31 10z" />
    <glyph glyph-name="scaron" unicode="&#x161;" horiz-adv-x="524" 
d="M432 983q-18 0 -20 6l-74 217q-2 2 -2 7t18 5t25 -12l94 -145q243 131 270 145q15 12 35 12t21 -5q0 -5 -4 -7l-306 -217q-39 -6 -57 -6zM68 109q0 -82 77 -82q25 0 41 8q-76 47 -82 153q-36 -36 -36 -79zM311 279q0 63 -14 174t-14 149t2 53q-156 -311 -193 -379
q43 0 43 -61q0 -121 86 -162q90 70 90 226zM328 35q82 0 161 96q43 53 154 268q4 9 14 11q31 5 3 -55q-92 -200 -144 -244l-43 -45q-35 -35 -97 -55t-132 1q-47 -20 -84 -20q-145 0 -176 114q-6 27 -7 65q0 38 26 73t54 37q105 199 183 365t186 167q28 0 56 -13
q28 -14 21 -30t-30 -6t-39 10t-28 -6q-70 -33 -70 -141q0 -57 16 -95t50 -111q34 -74 34 -142q0 -67 -43 -133t-102 -107q27 -4 37 -4z" />
    <glyph glyph-name="Tcommaaccent" unicode="&#x162;" horiz-adv-x="2228" 
d="M694 -403q0 -81 -60 -141t-132 -85q-6 -2 -12 -2t-7 9q0 9 17 14q127 43 139 159q-27 -18 -55 -18t-46 23q-18 22 -14 54t31 54t61 21q34 1 56 -25t22 -63zM2697 1200q127 0 127 62q0 31 22 30q22 0 22 -50t-68 -82q-66 -32 -164 -17q-301 39 -516 131
q-145 -229 -260 -610q-43 -137 -122 -297q-79 -159 -170 -263q-261 -297 -761 -297q-258 0 -481 126t-260 386q-4 35 -5 104q0 69 40 195t151 193q45 27 67 27q37 0 33 -35q-8 -10 -42 -34q-34 -23 -64 -49t-62 -79q-53 -90 -53 -203q0 -258 176 -397q94 -78 211 -119
t234 -41h10q424 10 696 307q172 186 471 842q102 225 131 264q-362 115 -651 115t-469 -174q-145 -139 -145 -298t145 -204q51 -14 93 -14q119 0 201 79q50 48 76 95t21 72v4q17 14 29 9t12 -26q-20 -160 -162 -239q-86 -51 -160 -51t-130 20q-168 59 -213 227
q-14 53 -15 105q0 123 76 239q166 257 549 263q169 0 323 -42t290 -86q136 -46 163 -55q98 121 150 125q10 4 27 4q18 0 28 -28t-14 -37q-10 -2 -27 2q-12 8 -50 -26t-57 -56q192 -61 338 -89t209 -28z" />
    <glyph glyph-name="tcommaaccent" unicode="&#x163;" horiz-adv-x="409" 
d="M227 -182q0 -82 -60 -142t-132 -84q-6 -2 -12 -2t-7 9q0 10 17 14q127 43 139 160q-28 -19 -56 -19t-45 23t-13 55t30 52q27 22 62 22t56 -26t21 -62zM451 733h-97q-25 -57 -110 -272q111 114 207 272zM612 1114q0 41 -14 41q-23 1 -69 -65t-154 -312h102
q135 242 135 336zM66 164q0 170 163 569h-106q-10 0 -13 11q-3 10 2 22t15 12h123q162 354 254 417q53 38 77 38t33 -4q48 -23 48 -93t-48 -171q-48 -100 -92 -187h99q10 0 13 -11t-2 -23t-16 -11h-118q-113 -190 -273 -338l-47 -209q-6 -26 -6 -52t14 -52t47 -27
q33 0 76 25q98 74 217 309q8 19 20 23q24 9 7 -35q-68 -141 -107 -201q-111 -178 -235 -178q-63 0 -105 47q-40 47 -40 119z" />
    <glyph glyph-name="Tcaron" unicode="&#x164;" horiz-adv-x="2228" 
d="M2619 1734q0 -5 -4 -8l-305 -217q-37 -6 -57 -6t-21 6l-73 217q-2 2 -2 8t18 5q18 0 25 -13l94 -145q243 131 270 145q14 12 34 12t21 -4zM2685 1087q127 0 127 62q0 31 22 31t21 -50q0 -50 -57 -78q-58 -26 -102 -26t-73 4q-301 39 -516 131q-145 -229 -260 -610
q-43 -137 -122 -297t-170 -263t-209 -167q-233 -129 -551 -129q-257 0 -481 126t-261 388q-4 33 -4 101t40 196q40 127 151 192q45 27 67 27q37 0 33 -35q-8 -10 -42 -34t-65 -50t-61 -78q-53 -90 -53 -202q0 -258 176 -400q94 -76 211 -116t233 -41h11q424 10 696 307
q172 186 471 842q102 225 131 264q-362 114 -651 114t-469 -174q-146 -139 -146 -298t146 -203q175 -48 294 64q50 48 75 95q26 47 22 72v4q17 14 29 9t12 -25q-20 -160 -162 -242q-86 -49 -160 -49t-131 20q-168 59 -213 228q-14 53 -14 104q0 123 76 240q135 209 424 252
q66 10 125 10t138 -6t209 -41t266 -81t163 -54q98 121 149 125q10 4 28 4t28 -29t-15 -37q-10 -2 -21 2t-27 -3t-49 -41q-33 -35 -36 -38q192 -61 338 -89t209 -28z" />
    <glyph glyph-name="tcaron" unicode="&#x165;" horiz-adv-x="903" 
d="M934 1128q0 -90 -62 -150t-145 -87q-8 -4 -14 -4t-6 10t16 16q61 21 104 67t52 112q-27 -20 -60 -20t-53 24q-20 26 -15 60t35 58t67 25q37 0 59 -33t22 -78zM451 733h-97q-25 -57 -110 -272q111 114 207 272zM612 1114q0 41 -14 41q-23 1 -69 -65t-154 -312h102
q135 242 135 336zM66 164q0 170 163 569h-106q-10 0 -13 11q-3 10 2 22t15 12h123q162 354 254 417q53 38 77 38t33 -4q48 -23 48 -93t-48 -171q-48 -100 -92 -187h99q10 0 13 -11t-2 -23t-16 -11h-118q-113 -190 -273 -338l-47 -209q-6 -26 -6 -52t14 -52t47 -27
q33 0 76 25q98 74 217 309q8 19 20 23q24 9 7 -35q-68 -141 -107 -201q-111 -178 -235 -178q-63 0 -105 47q-40 47 -40 119z" />
    <glyph glyph-name="Tbar" unicode="&#x166;" horiz-adv-x="2228" 
d="M2697 1200q127 0 127 62q0 31 22 30q22 0 22 -50t-68 -82q-66 -32 -164 -17q-301 39 -516 131q-102 -162 -195 -422h213l-31 -41h-198q-12 -32 -62 -175t-72 -188t-49 -101t-77 -132q-49 -75 -111 -145t-180 -136q-233 -127 -551 -127q-258 0 -481 126t-260 386
q-4 35 -5 104q0 69 40 195t151 193q45 27 67 27q37 0 33 -35q-8 -10 -42 -34q-34 -23 -64 -49t-62 -79q-53 -90 -53 -203q0 -258 176 -397q94 -78 211 -119t234 -41h10q424 10 696 307q156 168 367 623h-256l33 41h243q23 47 61 131q125 277 154 311q-362 115 -651 115
t-469 -174q-145 -139 -145 -298t145 -204q51 -14 93 -14q119 0 201 79q50 48 76 95t21 72v4q17 14 29 9t12 -26q-20 -160 -162 -239q-86 -51 -160 -51t-130 20q-168 59 -213 227q-14 53 -15 105q0 123 76 239q166 257 549 263q169 0 323 -42t290 -86q136 -46 163 -55
q100 123 150 125q10 4 27 4q18 0 28 -28t-14 -37q-10 -2 -27 2q-12 8 -50 -26t-57 -56q192 -61 338 -89t209 -28z" />
    <glyph glyph-name="tbar" unicode="&#x167;" horiz-adv-x="409" 
d="M244 461l16 18h-10zM451 733h-97q-59 -137 -92 -227h23q86 98 166 227zM612 1114q0 41 -14 41q-23 1 -69 -65t-154 -312h102q135 242 135 336zM211 -2q-63 0 -105 47q-41 47 -40 130q0 83 69 304h-127l25 27h112q41 123 84 227h-106q-10 0 -13 11q-3 10 2 22t15 12h123
q162 354 254 417q53 38 77 38t33 -4q48 -23 48 -93t-48 -171q-48 -100 -92 -187h99q10 0 13 -11t-2 -23t-16 -11h-118q-76 -127 -164 -227h106l-24 -27h-107q-37 -43 -84 -84l-47 -209q-6 -26 -6 -52t14 -52t47 -27q33 0 76 25q98 74 217 309q8 19 20 23q24 9 7 -35
q-68 -141 -107 -201q-110 -178 -235 -178z" />
    <glyph glyph-name="Utilde" unicode="&#x168;" horiz-adv-x="1929" 
d="M1960 1389q-41 1 -116 33t-120 32t-73 -55q-3 -12 -21 -5t-20 9q72 127 159 127q43 0 118 -31t120 -31t78 60q2 6 10 6t21 -4l4 -4q-66 -137 -160 -137zM983 146q0 193 232 706q105 231 138 358q32 127 31 228q0 150 -79 196q-96 51 -218 52q-217 0 -464 -144
q-367 -215 -496 -543q-53 -137 -53 -251t39 -205q86 -209 299 -209q250 0 399 254q82 135 82 239q0 154 -139 154q-33 0 -83 -11t-46 1q6 16 61 41t111 24q84 0 120 -61q67 -113 -5 -308q-72 -194 -261 -307q-139 -86 -266 -86t-225 76q-168 129 -168 392t201 515
q162 203 416 343t472 141q115 0 213 -41q199 -86 199 -330q0 -182 -117 -452q-68 -160 -130 -292t-103 -268t-41 -227q0 -172 115 -172q123 0 288 205l56 76q82 120 212 378t132 261q61 109 114 108q57 -29 35 -92t-59 -129q-156 -281 -209 -596q-14 -86 -14 -156
q0 -141 75 -141h23q37 0 37 -16q0 -25 -45 -31h-25q-69 12 -105 72t-39 121t-3 141t26 207q-279 -461 -538 -461q-86 0 -134 55q-61 73 -61 185z" />
    <glyph glyph-name="utilde" unicode="&#x169;" horiz-adv-x="731" 
d="M727 850q-41 0 -116 33t-119 33t-74 -56q-4 -12 -22 -5t-19 9q72 127 160 127q43 -1 117 -31t120 -30q45 0 78 59q2 6 10 6t21 -4l4 -4q-66 -137 -160 -137zM554 2q-115 0 -118 145q0 47 21 117q-150 -262 -277 -262q-111 0 -129 92q-6 11 -6 25q0 88 76 213
q-33 0 -19 33l37 71q70 133 115 226q20 43 80 43h125q-74 -53 -149 -206q-76 -153 -116 -240t-40 -132q0 -82 57 -82q116 0 414 617q23 43 80 43h110q-45 -35 -71 -72t-70 -131q-123 -246 -137 -326q-6 -29 -7 -53q0 -66 45 -70q111 0 273 342q12 29 28 21t-7 -54
q-96 -198 -167 -279t-148 -81z" />
    <glyph glyph-name="Umacron" unicode="&#x16a;" horiz-adv-x="1929" 
d="M2079 1354l-25 -62h-438l26 62h437zM983 146q0 193 232 706q105 231 138 358q32 127 31 228q0 150 -79 196q-96 51 -218 52q-217 0 -464 -144q-367 -215 -496 -543q-53 -137 -53 -251t39 -205q86 -209 299 -209q250 0 399 254q82 135 82 239q0 154 -139 154
q-33 0 -83 -11t-46 1q6 16 61 41t111 24q84 0 120 -61q67 -113 -5 -308q-72 -194 -261 -307q-139 -86 -266 -86t-225 76q-168 129 -168 392t201 515q162 203 416 343t472 141q115 0 213 -41q199 -86 199 -330q0 -182 -117 -452q-68 -160 -130 -292t-103 -268t-41 -227
q0 -172 115 -172q123 0 288 205l56 76q82 120 212 378t132 261q61 109 114 108q57 -29 35 -92t-59 -129q-156 -281 -209 -596q-14 -86 -14 -156q0 -141 75 -141h23q37 0 37 -16q0 -25 -45 -31h-25q-69 12 -105 72t-39 121t-3 141t26 207q-279 -461 -538 -461q-86 0 -134 55
q-61 73 -61 185z" />
    <glyph glyph-name="umacron" unicode="&#x16b;" horiz-adv-x="731" 
d="M860 903l-24 -61h-439l27 61h436zM554 2q-115 0 -118 145q0 47 21 117q-150 -262 -277 -262q-111 0 -129 92q-6 11 -6 25q0 88 76 213q-33 0 -19 33l37 71q70 133 115 226q20 43 80 43h125q-74 -53 -149 -206q-76 -153 -116 -240t-40 -132q0 -82 57 -82q116 0 414 617
q23 43 80 43h110q-45 -35 -71 -72t-70 -131q-123 -246 -137 -326q-6 -29 -7 -53q0 -66 45 -70q111 0 273 342q12 29 24 23t13 -18t-60 -129q-60 -116 -127 -193q-67 -76 -144 -76z" />
    <glyph glyph-name="Ubreve" unicode="&#x16c;" horiz-adv-x="1929" 
d="M2161 1642q0 -61 -113 -133q-74 -47 -154 -47t-142 32t-62 118q0 51 34 51q10 1 24 -33q42 -97 155 -98q113 0 163 50q18 17 44 51t47 20q4 -5 4 -11zM983 146q0 193 232 706q105 231 138 358q32 127 31 228q0 150 -79 196q-96 51 -218 52q-217 0 -464 -144
q-367 -215 -496 -543q-53 -137 -53 -251t39 -205q86 -209 299 -209q250 0 399 254q82 135 82 239q0 154 -139 154q-33 0 -83 -11t-46 1q6 16 61 41t111 24q84 0 120 -61q67 -113 -5 -308q-72 -194 -261 -307q-139 -86 -266 -86t-225 76q-168 129 -168 392t201 515
q162 203 416 343t472 141q115 0 213 -41q199 -86 199 -330q0 -182 -117 -452q-68 -160 -130 -292t-103 -268t-41 -227q0 -172 115 -172q123 0 288 205l56 76q82 120 212 378t132 261q61 109 114 108q57 -29 35 -92t-59 -129q-156 -281 -209 -596q-14 -86 -14 -156
q0 -141 75 -141h23q37 0 37 -16q0 -25 -45 -31h-25q-69 12 -105 72t-39 121t-3 141t26 207q-279 -461 -538 -461q-86 0 -134 55q-61 73 -61 185z" />
    <glyph glyph-name="ubreve" unicode="&#x16d;" horiz-adv-x="731" 
d="M846 1081q0 -61 -113 -133q-73 -47 -153 -47t-143 32t-62 118q0 51 35 51q8 0 14 -13t15 -33t22 -34q53 -51 125 -51q113 0 166 50q18 17 44 51t46 20q4 -5 4 -11zM554 2q-115 0 -118 145q0 47 21 117q-150 -262 -277 -262q-111 0 -129 92q-6 11 -6 25q0 88 76 213
q-33 0 -19 33l37 71q70 133 115 226q20 43 80 43h125q-74 -53 -149 -206q-76 -153 -116 -240t-40 -132q0 -82 57 -82q116 0 414 617q23 43 80 43h110q-45 -35 -71 -72t-70 -131q-123 -246 -137 -326q-6 -29 -7 -53q0 -66 45 -70q111 0 273 342q12 29 24 23t13 -18t-60 -129
q-60 -116 -127 -193q-67 -76 -144 -76z" />
    <glyph glyph-name="Uring" unicode="&#x16e;" horiz-adv-x="1929" 
d="M1993 1625q0 -46 -47 -82q-46 -36 -104 -36t-90 29t-32 74t49 82t103 37t88 -29q33 -29 33 -75zM1849 1542q27 0 46 24t23 56t-13 54q-16 22 -43 20t-47 -24q-21 -22 -23 -54t14 -54t43 -22zM2060 938q0 -43 -51 -133q-170 -305 -223 -621q-14 -86 -14 -155
q0 -141 75 -142h23q37 0 37 -16q0 -25 -45 -31h-25q-69 12 -105 72t-39 122t-3 141t26 206q-145 -241 -282 -351t-256 -110q-86 0 -134 55q-61 74 -61 186q0 195 232 705q105 230 137 356t30 222q0 143 -75 190q-96 51 -217 52q-217 0 -465 -144q-367 -215 -496 -538
q-53 -137 -53 -249t37 -204q86 -203 297 -203q250 0 401 254q82 135 82 240q0 154 -139 153q-33 0 -83 -11t-46 1q6 16 61 41t111 25q84 0 127 -72q59 -104 -12 -298q-72 -194 -261 -306q-141 -86 -268 -86t-223 73q-168 124 -168 386t203 512q164 203 417 342t471 139
q115 0 213 -41q195 -84 195 -324q0 -178 -115 -442q-68 -162 -130 -294t-103 -267t-41 -228q0 -172 115 -172q123 0 288 205l56 76q82 119 212 378t132 261q61 108 114 108q41 -20 41 -63z" />
    <glyph glyph-name="uring" unicode="&#x16f;" horiz-adv-x="731" 
d="M702 1016q0 16 -14 36t-41 19q-27 1 -49 -23t-23 -57t15 -53t43 -20t46 23q19 24 21 42q2 17 2 33zM776 1000q0 -46 -47 -82t-104 -35t-89 29t-32 73t49 82t103 37t87 -29t33 -75zM554 2q-115 0 -118 145q0 47 21 117q-150 -262 -277 -262q-111 0 -129 92q-6 11 -6 25
q0 88 76 213q-33 0 -19 33l37 71q70 133 115 226q20 43 80 43h125q-74 -53 -149 -206q-76 -153 -116 -240t-40 -132q0 -82 57 -82q116 0 414 617q23 43 80 43h110q-45 -35 -71 -72t-70 -131q-123 -246 -137 -326q-6 -29 -7 -53q0 -66 45 -70q111 0 273 342q12 29 24 23
t13 -18t-60 -129q-60 -116 -127 -193q-67 -76 -144 -76z" />
    <glyph glyph-name="Uhungarumlaut" unicode="&#x170;" horiz-adv-x="1929" 
d="M1913 1411q-15 0 -15 19t20 117q20 97 24 108q10 78 77 78q14 0 27 -23q6 -18 -55 -156t-69 -140q-8 -3 -9 -3zM1673 1411q-14 0 -14 16l41 228q16 78 82 78q14 -1 22 -21t-53 -158t-69 -140q-8 -3 -9 -3zM2060 938q0 -43 -51 -133q-170 -305 -223 -621q-14 -86 -14 -155
q0 -141 75 -142h23q37 0 37 -16q0 -25 -45 -31h-25q-69 12 -105 72t-39 122t-3 141t26 206q-145 -241 -282 -351t-256 -110q-86 0 -134 55q-61 74 -61 186q0 195 232 705q105 230 137 356t30 222q0 143 -75 190q-96 51 -217 52q-217 0 -465 -144q-367 -215 -496 -538
q-53 -137 -53 -249t37 -204q86 -203 297 -203q250 0 401 254q82 135 82 240q0 154 -139 153q-33 0 -83 -11t-46 1q6 16 61 41t111 25q84 0 127 -72q59 -104 -12 -298q-72 -194 -261 -306q-141 -86 -268 -86t-223 73q-168 124 -168 386t203 512q164 203 417 342t471 139
q115 0 213 -41q195 -84 195 -324q0 -178 -115 -442q-68 -162 -130 -294t-103 -267t-41 -228q0 -172 115 -172q123 0 288 205l56 76q82 119 212 378t132 261q61 108 114 108q41 -20 41 -63z" />
    <glyph glyph-name="uhungarumlaut" unicode="&#x171;" horiz-adv-x="731" 
d="M717 848q-15 0 -15 19t20 117q20 97 23 108q10 77 78 77q14 0 27 -22q6 -17 -55 -155t-69 -141t-9 -3zM477 848q-14 0 -14 16l41 228q16 77 82 77q14 0 22 -20q8 -19 -53 -157t-69 -141t-9 -3zM554 2q-115 0 -118 145q0 47 21 117q-150 -262 -277 -262q-111 0 -129 92
q-6 11 -6 25q0 88 76 213q-33 0 -19 33l37 71q70 133 115 226q20 43 80 43h125q-74 -53 -149 -206q-76 -153 -116 -240t-40 -132q0 -82 57 -82q116 0 414 617q23 43 80 43h110q-45 -35 -71 -72t-70 -131q-123 -246 -137 -326q-6 -29 -7 -53q0 -66 45 -70q111 0 273 342
q12 29 24 23t13 -18t-60 -129q-60 -116 -127 -193q-67 -76 -144 -76z" />
    <glyph glyph-name="Uogonek" unicode="&#x172;" horiz-adv-x="1929" 
d="M1139 -502q-109 0 -109 86q0 72 77 170t169 172q-53 -20 -101 -20t-90 24q-102 58 -102 234t234 688q104 231 136 358t31 228q0 150 -79 196q-96 51 -218 52q-217 0 -464 -144q-367 -215 -496 -543q-53 -137 -53 -251t39 -205q86 -209 299 -209q250 0 399 254
q82 135 82 239q0 154 -139 154q-33 0 -83 -11t-46 1q6 16 61 41t111 24q84 0 120 -61q67 -113 -5 -308q-72 -194 -261 -307q-139 -86 -266 -86t-225 76q-168 129 -168 392t201 515q162 203 416 343t472 141q115 0 213 -41q199 -86 199 -330q0 -182 -117 -452
q-68 -160 -130 -292t-103 -268t-41 -227q0 -172 115 -172q123 0 288 205l56 76q82 120 212 378t132 261q61 109 114 108q41 -20 41 -63t-51 -133q-170 -305 -223 -621q-14 -86 -14 -156q0 -141 75 -141h23q37 0 37 -16q0 -25 -45 -31h-25q-69 12 -105 72t-39 121t-3 141
t26 207q-174 -287 -340 -390v-16q-90 -72 -166 -170t-76 -165t58 -66q43 0 104 61q26 11 21 -8q-7 -37 -65 -76t-113 -39z" />
    <glyph glyph-name="uogonek" unicode="&#x173;" horiz-adv-x="731" 
d="M180 2q-111 0 -129 92q-6 11 -6 25q0 88 76 213q-33 0 -19 33l37 71q70 133 115 226q20 43 80 43h125q-74 -53 -149 -206q-76 -153 -116 -240t-40 -132q0 -82 57 -82q116 0 414 617q23 43 80 43h110q-45 -35 -71 -72t-70 -131q-123 -246 -137 -326q-6 -29 -7 -53
q0 -66 45 -70q111 0 273 342q12 29 29 20t0 -38q-135 -285 -242 -350q-88 -70 -160 -165t-73 -162t59 -67q43 0 104 62q26 11 21 -8q-8 -37 -66 -76t-114 -39q-106 0 -107 86q0 72 79 172t171 172q-110 0 -113 145q0 47 21 117q-150 -262 -277 -262z" />
    <glyph glyph-name="Wcircumflex" unicode="&#x174;" horiz-adv-x="2752" 
d="M1825 1390q0 6 4 7l305 217q37 4 57 4t21 -4l74 -217q2 -2 2 -7q0 -6 -18 -6t-25 13l-95 145q-243 -131 -270 -145q-14 -13 -34 -13t-21 6zM2478 1208l-128 -16q-24 0 -23 12q-1 18 37 34t63 17h55q117 0 214 -92t126 -270q6 -43 6 -88q0 -152 -71 -344
q-100 -254 -345 -432t-450 -179q-276 0 -276 336q0 88 43 230q-111 -184 -287 -400q-96 -114 -200 -192t-177 -78q-145 0 -145 176q0 207 268 844q168 406 168 608q0 131 -79 181t-187 51q-47 0 -99 -11q-362 -74 -643 -391q-139 -160 -192 -306q-52 -146 -60 -217t-8 -117
q0 -124 78 -216q80 -92 223 -92q238 0 377 248q72 127 72 229q0 168 -150 168q-26 0 -62 -6t-34 8q2 15 55 31t107 16q106 0 155 -82q31 -50 31 -120t-39 -162q-104 -240 -375 -353q-72 -31 -133 -30q-201 0 -319 143q-84 98 -107 254q-4 31 -4 64q0 132 67 284t181 283
q208 237 534 366q290 110 531 19q197 -86 197 -330q0 -201 -138 -512q-95 -212 -199 -504t-104 -397q0 -74 51 -74q27 0 64 25q111 66 242 248t272 424t201 324t105 81q46 0 45 -50t-12 -83q-12 -33 -106 -261t-104 -301t-10 -110q0 -195 157 -194q147 0 375 181t322 403
t94 388t-67 250t-183 84z" />
    <glyph glyph-name="wcircumflex" unicode="&#x175;" horiz-adv-x="974" 
d="M800 1020q18 0 21 -6l74 -217q2 -2 2 -7q0 -6 -17 -6t-26 13l-94 145q-244 -131 -271 -145q-14 -13 -34 -13t-21 6q0 5 4 7l305 217q39 6 57 6zM156 128q0 -85 55 -85q43 0 121 104q77 104 174 297t109 227q13 34 73 34h125q-3 -4 -33 -24t-49 -52q-92 -154 -129 -248
q-82 -209 -82 -275t55 -69h11q147 0 291 356q-29 61 -29 113t12 92q35 119 111 145q14 6 26 7q33 0 33 -35l-10 -35q-90 -299 -164 -438q-133 -246 -291 -246q-75 0 -101 38t-29 68t-3 70q0 39 19 104q-152 -276 -273 -276q-45 0 -82 26t-45 68q-6 10 -6 25q0 88 76 213
q-33 0 -19 33l37 71q100 197 115 226q20 43 80 43h125q-74 -53 -149 -206q-74 -153 -114 -239t-40 -132z" />
    <glyph glyph-name="Ycircumflex" unicode="&#x176;" horiz-adv-x="2060" 
d="M1696 1360q-20 0 -21 5q0 5 4 7l306 217q39 4 57 4t20 -4l74 -217q2 -2 2 -7t-18 -5t-25 12l-94 146q-243 -132 -270 -146q-15 -12 -35 -12zM547 -653q0 -16 8 -33q43 -70 198 -70q299 0 568 202q133 99 219 239q-537 0 -823 -166q-170 -98 -170 -172zM2013 989
q37 0 37 -61q0 -62 -40 -236t-139 -471t-204 -483q31 2 110 4q275 7 374 53q100 47 118 148q-4 27 3 29q6 2 16 -16t10 -48t-33 -85q-33 -54 -129 -94t-500 -44q-98 -147 -248 -260t-319 -177q-168 -64 -284 -63q-116 0 -195 27q-154 51 -154 155q0 135 248 238
q317 131 885 131q201 492 280 792q-186 -401 -415 -557q-121 -82 -234 -82q-113 -1 -175 61t-62 169q0 223 303 717q94 154 156 320t61 290q0 125 -81 178t-196 53q-45 0 -96 -10q-369 -70 -666 -383q-150 -158 -220 -330t-70 -299q0 -53 14 -98q41 -150 162 -205
q61 -27 127 -26q227 0 387 254q90 145 90 254q0 141 -127 141q-25 0 -59 -7t-37 7q-2 14 47 26t94 13q106 0 143 -90q16 -39 17 -84q0 -90 -64 -209q-125 -227 -366 -328q-74 -31 -136 -31q-199 0 -311 144q-98 120 -98 276t76 312q75 156 197 286q226 243 554 371
q162 63 297 63t240 -41q109 -49 153 -132t45 -175q0 -231 -169 -514q-328 -560 -328 -790q0 -47 31 -88t103 -41t169 71q117 82 233 269q195 311 293 637q6 33 37 51t45 18z" />
    <glyph glyph-name="ycircumflex" unicode="&#x177;" horiz-adv-x="817" 
d="M684 1020q20 0 21 -6l73 -217q2 -2 2 -7q0 -6 -17 -6t-26 13l-94 145q-243 -131 -270 -145q-15 -13 -35 -13t-21 6q0 5 5 7l305 217q37 6 57 6zM-209 -606q119 0 254 122t238 261l45 76q-338 -88 -426 -127q-132 -57 -186 -163t3 -149q29 -20 72 -20zM154 127
q0 -82 57 -82q39 0 108 82q145 170 322 535q23 43 80 43h110q-53 -37 -83 -93t-67 -153q-36 -96 -90 -256t-83 -240q193 57 295 203q45 63 129 225q14 29 25 23t11 -16t-33 -80q-34 -69 -69 -127q-91 -151 -213 -217q-68 -36 -180 -76q-158 -287 -317 -422
q-150 -123 -324 -123q-90 0 -139 38t-49 91t30 121q53 104 193 168q104 49 276 91t222 56q74 129 176 461q-119 -209 -199 -293t-162 -84q-111 0 -129 92q-8 14 -4 43t5 41t24 64t45 90q-33 0 -19 33l37 71q70 133 115 226q20 43 80 43h125q-4 -4 -31 -23t-45 -51
q-74 -127 -184 -363q-45 -96 -45 -141z" />
    <glyph glyph-name="Ydieresis" unicode="&#x178;" horiz-adv-x="1964" 
d="M1796 1236q0 -30 -18 -49t-48 -19t-50 18t-19 48q0 30 18 49q19 19 49 19t49 -18t19 -48zM2060 1236q0 -30 -18 -49t-48 -19t-49 18t-20 48q1 30 19 49t48 19t49 -18t19 -48zM547 -653q0 -16 8 -33q43 -70 198 -70q299 0 568 202q133 99 219 239q-537 0 -823 -166
q-170 -98 -170 -172zM2013 989q37 0 37 -61q0 -62 -40 -236t-139 -471t-204 -483q31 2 110 4q275 7 374 53q100 47 118 148q-4 27 3 29q6 2 16 -16t10 -48t-33 -85q-33 -54 -129 -94t-500 -44q-98 -147 -248 -260t-319 -177q-168 -64 -284 -63q-116 0 -195 27
q-154 51 -154 155q0 135 248 238q317 131 885 131q201 492 280 792q-186 -401 -415 -557q-121 -82 -234 -82q-113 -1 -175 61t-62 169q0 223 303 717q94 154 156 320t61 290q0 125 -81 178t-196 53q-45 0 -96 -10q-369 -70 -666 -383q-150 -158 -220 -330t-70 -299
q0 -53 14 -98q41 -150 162 -205q61 -27 127 -26q227 0 387 254q90 145 90 254q0 141 -127 141q-25 0 -59 -7t-37 7q-2 14 47 26t94 13q106 0 143 -90q16 -39 17 -84q0 -90 -64 -209q-125 -227 -366 -328q-74 -31 -136 -31q-199 0 -311 144q-98 120 -98 276t76 312
q75 156 197 286q226 243 554 371q162 63 297 63t240 -41q109 -49 153 -132t45 -175q0 -231 -169 -514q-328 -560 -328 -790q0 -47 31 -88t103 -41t169 71q117 82 233 269q195 311 293 637q6 33 37 51t45 18z" />
    </font>
</defs>
</svg>
